<svg viewBox="0 0 330 200" xmlns="http://www.w3.org/2000/svg"><g><g><g><g><g><line x1="61.91500186920166" y1="176.89999961853027" x2="56.91500186920166" y2="176.89999961853027" style="visibility: inherit;" fill="rgb(0, 0, 0)" stroke="rgb(204, 204, 204)" stroke-width="1px"></line><line x1="61.91500186920166" y1="159.20999965667724" x2="56.91500186920166" y2="159.20999965667724" style="visibility: inherit;" fill="rgb(0, 0, 0)" stroke="rgb(204, 204, 204)" stroke-width="1px"></line><line x1="61.91500186920166" y1="141.51999969482424" x2="56.91500186920166" y2="141.51999969482424" style="visibility: inherit;" fill="rgb(0, 0, 0)" stroke="rgb(204, 204, 204)" stroke-width="1px"></line><line x1="61.91500186920166" y1="123.82999973297119" x2="56.91500186920166" y2="123.82999973297119" style="visibility: inherit;" fill="rgb(0, 0, 0)" stroke="rgb(204, 204, 204)" stroke-width="1px"></line><line x1="61.91500186920166" y1="106.13999977111816" x2="56.91500186920166" y2="106.13999977111816" style="visibility: inherit;" fill="rgb(0, 0, 0)" stroke="rgb(204, 204, 204)" stroke-width="1px"></line><line x1="61.91500186920166" y1="88.44999980926512" x2="56.91500186920166" y2="88.44999980926512" style="visibility: inherit;" fill="rgb(0, 0, 0)" stroke="rgb(204, 204, 204)" stroke-width="1px"></line><line x1="61.91500186920166" y1="70.75999984741209" x2="56.91500186920166" y2="70.75999984741209" style="visibility: inherit;" fill="rgb(0, 0, 0)" stroke="rgb(204, 204, 204)" stroke-width="1px"></line><line x1="61.91500186920166" y1="53.06999988555909" x2="56.91500186920166" y2="53.06999988555909" style="visibility: inherit;" fill="rgb(0, 0, 0)" stroke="rgb(204, 204, 204)" stroke-width="1px"></line><line x1="61.91500186920166" y1="35.379999923706045" x2="56.91500186920166" y2="35.379999923706045" style="visibility: inherit;" fill="rgb(0, 0, 0)" stroke="rgb(204, 204, 204)" stroke-width="1px"></line><line x1="61.91500186920166" y1="17.689999961853022" x2="56.91500186920166" y2="17.689999961853022" style="visibility: inherit;" fill="rgb(0, 0, 0)" stroke="rgb(204, 204, 204)" stroke-width="1px"></line><line x1="61.91500186920166" y1="0" x2="56.91500186920166" y2="0" style="visibility: inherit;" fill="rgb(0, 0, 0)" stroke="rgb(204, 204, 204)" stroke-width="1px"></line></g><g transform="translate(51.91500186920166, 0)"><text style="text-anchor: end; visibility: hidden; font-family: Roboto, sans-serif; font-size: 12px; font-weight: 200;" x="0" y="176.89999961853027" dx="0em" dy="0.3em" fill="rgb(33, 33, 33)" stroke="none" stroke-width="1px">-5e-3</text><text style="text-anchor: end; visibility: inherit; font-family: Roboto, sans-serif; font-size: 12px; font-weight: 200;" x="0" y="159.20999965667724" dx="0em" dy="0.3em" fill="rgb(33, 33, 33)" stroke="none" stroke-width="1px">0</text><text style="text-anchor: end; visibility: hidden; font-family: Roboto, sans-serif; font-size: 12px; font-weight: 200;" x="0" y="141.51999969482424" dx="0em" dy="0.3em" fill="rgb(33, 33, 33)" stroke="none" stroke-width="1px">5e-3</text><text style="text-anchor: end; visibility: inherit; font-family: Roboto, sans-serif; font-size: 12px; font-weight: 200;" x="0" y="123.82999973297119" dx="0em" dy="0.3em" fill="rgb(33, 33, 33)" stroke="none" stroke-width="1px">0.01</text><text style="text-anchor: end; visibility: hidden; font-family: Roboto, sans-serif; font-size: 12px; font-weight: 200;" x="0" y="106.13999977111816" dx="0em" dy="0.3em" fill="rgb(33, 33, 33)" stroke="none" stroke-width="1px">0.015</text><text style="text-anchor: end; visibility: inherit; font-family: Roboto, sans-serif; font-size: 12px; font-weight: 200;" x="0" y="88.44999980926512" dx="0em" dy="0.3em" fill="rgb(33, 33, 33)" stroke="none" stroke-width="1px">0.02</text><text style="text-anchor: end; visibility: hidden; font-family: Roboto, sans-serif; font-size: 12px; font-weight: 200;" x="0" y="70.75999984741209" dx="0em" dy="0.3em" fill="rgb(33, 33, 33)" stroke="none" stroke-width="1px">0.025</text><text style="text-anchor: end; visibility: inherit; font-family: Roboto, sans-serif; font-size: 12px; font-weight: 200;" x="0" y="53.06999988555909" dx="0em" dy="0.3em" fill="rgb(33, 33, 33)" stroke="none" stroke-width="1px">0.03</text><text style="text-anchor: end; visibility: hidden; font-family: Roboto, sans-serif; font-size: 12px; font-weight: 200;" x="0" y="35.379999923706045" dx="0em" dy="0.3em" fill="rgb(33, 33, 33)" stroke="none" stroke-width="1px">0.035</text><text style="text-anchor: end; visibility: inherit; font-family: Roboto, sans-serif; font-size: 12px; font-weight: 200;" x="0" y="17.689999961853022" dx="0em" dy="0.3em" fill="rgb(33, 33, 33)" stroke="none" stroke-width="1px">0.04</text><text style="text-anchor: end; visibility: hidden; font-family: Roboto, sans-serif; font-size: 12px; font-weight: 200;" x="0" y="0" dx="0em" dy="0.3em" fill="rgb(33, 33, 33)" stroke="none" stroke-width="1px">0.045</text></g><line x1="61.91500186920166" y1="0" x2="61.91500186920166" y2="176.89999961853027" fill="rgb(0, 0, 0)" stroke="rgb(204, 204, 204)" stroke-width="1px"></line></g></g><g transform="translate(61, 0)" clip-path="url(#clip_0)"><clipPath id="clip_0"><rect width="268" height="176"></rect></clipPath><g><g><g><line x1="0" y1="0" x2="0" y2="176.89999961853027" fill="rgb(0, 0, 0)" stroke="rgb(66, 66, 66)" stroke-width="1px" opacity="0.25"></line><line x1="19.148928437914165" y1="0" x2="19.148928437914165" y2="176.89999961853027" fill="rgb(0, 0, 0)" stroke="rgb(66, 66, 66)" stroke-width="1px" opacity="0.25"></line><line x1="38.29785687582833" y1="0" x2="38.29785687582833" y2="176.89999961853027" fill="rgb(0, 0, 0)" stroke="rgb(66, 66, 66)" stroke-width="1px" opacity="0.25"></line><line x1="57.446785313742495" y1="0" x2="57.446785313742495" y2="176.89999961853027" fill="rgb(0, 0, 0)" stroke="rgb(66, 66, 66)" stroke-width="1px" opacity="0.25"></line><line x1="76.59571375165666" y1="0" x2="76.59571375165666" y2="176.89999961853027" fill="rgb(0, 0, 0)" stroke="rgb(66, 66, 66)" stroke-width="1px" opacity="0.25"></line><line x1="95.74464218957084" y1="0" x2="95.74464218957084" y2="176.89999961853027" fill="rgb(0, 0, 0)" stroke="rgb(66, 66, 66)" stroke-width="1px" opacity="0.25"></line><line x1="114.89357062748499" y1="0" x2="114.89357062748499" y2="176.89999961853027" fill="rgb(0, 0, 0)" stroke="rgb(66, 66, 66)" stroke-width="1px" opacity="0.25"></line><line x1="134.04249906539917" y1="0" x2="134.04249906539917" y2="176.89999961853027" fill="rgb(0, 0, 0)" stroke="rgb(66, 66, 66)" stroke-width="1px" opacity="0.25"></line><line x1="153.19142750331332" y1="0" x2="153.19142750331332" y2="176.89999961853027" fill="rgb(0, 0, 0)" stroke="rgb(66, 66, 66)" stroke-width="1px" opacity="0.25"></line><line x1="172.34035594122753" y1="0" x2="172.34035594122753" y2="176.89999961853027" fill="rgb(0, 0, 0)" stroke="rgb(66, 66, 66)" stroke-width="1px" opacity="0.25"></line><line x1="191.48928437914168" y1="0" x2="191.48928437914168" y2="176.89999961853027" fill="rgb(0, 0, 0)" stroke="rgb(66, 66, 66)" stroke-width="1px" opacity="0.25"></line><line x1="210.63821281705583" y1="0" x2="210.63821281705583" y2="176.89999961853027" fill="rgb(0, 0, 0)" stroke="rgb(66, 66, 66)" stroke-width="1px" opacity="0.25"></line><line x1="229.78714125496998" y1="0" x2="229.78714125496998" y2="176.89999961853027" fill="rgb(0, 0, 0)" stroke="rgb(66, 66, 66)" stroke-width="1px" opacity="0.25"></line><line x1="248.9360696928842" y1="0" x2="248.9360696928842" y2="176.89999961853027" fill="rgb(0, 0, 0)" stroke="rgb(66, 66, 66)" stroke-width="1px" opacity="0.25"></line><line x1="268.08499813079834" y1="0" x2="268.08499813079834" y2="176.89999961853027" fill="rgb(0, 0, 0)" stroke="rgb(66, 66, 66)" stroke-width="1px" opacity="0.25"></line></g><g><line x1="0" y1="176.89999961853027" x2="268.08499813079834" y2="176.89999961853027" fill="rgb(0, 0, 0)" stroke="rgb(66, 66, 66)" stroke-width="1px" opacity="0.25"></line><line x1="0" y1="159.20999965667724" x2="268.08499813079834" y2="159.20999965667724" fill="rgb(0, 0, 0)" stroke="rgb(66, 66, 66)" stroke-width="1px" opacity="0.25"></line><line x1="0" y1="141.51999969482424" x2="268.08499813079834" y2="141.51999969482424" fill="rgb(0, 0, 0)" stroke="rgb(66, 66, 66)" stroke-width="1px" opacity="0.25"></line><line x1="0" y1="123.82999973297119" x2="268.08499813079834" y2="123.82999973297119" fill="rgb(0, 0, 0)" stroke="rgb(66, 66, 66)" stroke-width="1px" opacity="0.25"></line><line x1="0" y1="106.13999977111816" x2="268.08499813079834" y2="106.13999977111816" fill="rgb(0, 0, 0)" stroke="rgb(66, 66, 66)" stroke-width="1px" opacity="0.25"></line><line x1="0" y1="88.44999980926512" x2="268.08499813079834" y2="88.44999980926512" fill="rgb(0, 0, 0)" stroke="rgb(66, 66, 66)" stroke-width="1px" opacity="0.25"></line><line x1="0" y1="70.75999984741209" x2="268.08499813079834" y2="70.75999984741209" fill="rgb(0, 0, 0)" stroke="rgb(66, 66, 66)" stroke-width="1px" opacity="0.25"></line><line x1="0" y1="53.06999988555909" x2="268.08499813079834" y2="53.06999988555909" fill="rgb(0, 0, 0)" stroke="rgb(66, 66, 66)" stroke-width="1px" opacity="0.25"></line><line x1="0" y1="35.379999923706045" x2="268.08499813079834" y2="35.379999923706045" fill="rgb(0, 0, 0)" stroke="rgb(66, 66, 66)" stroke-width="1px" opacity="0.25"></line><line x1="0" y1="17.689999961853022" x2="268.08499813079834" y2="17.689999961853022" fill="rgb(0, 0, 0)" stroke="rgb(66, 66, 66)" stroke-width="1px" opacity="0.25"></line><line x1="0" y1="0" x2="268.08499813079834" y2="0" fill="rgb(0, 0, 0)" stroke="rgb(66, 66, 66)" stroke-width="1px" opacity="0.25"></line></g></g></g><g><g><line x1="0" y1="159.20999965667724" x2="268.08499813079834" y2="159.20999965667724" fill="rgb(0, 0, 0)" stroke="rgb(153, 153, 153)" stroke-width="1.5px"></line></g></g><g><g><line x1="19.148928437914165" y1="0" x2="19.148928437914165" y2="176.89999961853027" fill="rgb(0, 0, 0)" stroke="rgb(153, 153, 153)" stroke-width="1.5px"></line></g></g><g><g><g><g><g><path style="fill: none;" stroke="rgb(255, 112, 67)" stroke-width="2px" d="M20.106374859809875,107.32045149295286L21.063821281705582,104.37208061374116L22.021267703601293,101.06268809117628L22.978714125497,97.43474221415376L23.93616054739271,93.53820432461643L24.893606969288417,89.42438464344423L25.851053391184127,85.14116716632265L26.808499813079834,80.73009556576271L27.765946234975544,76.22518252697903L28.723392656871248,71.65303308183518L29.680839078766958,67.03367318966339L30.638285500662665,62.38173253110601L31.595731922558375,57.707632336285315L32.55317834445408,53.018645070266295L33.51062476634979,48.319763125915856L34.468071188245496,43.614361130741344L35.42551761014121,38.90469019058345L36.38296403203692,34.19224622213359L37.34041045393263,29.478016443805625L38.29785687582833,24.76263871463116L39.25530329772405,21.936158489859647L40.21274971961975,20.24823400492522L41.17019614151546,19.248694802221834L42.127642563411165,18.6674548881473L43.08508898530688,18.342457996672223L44.042535407202585,18.176477760258653L44.99998182909829,18.111168579084325L45.957428250994,18.111512824515458L46.91487467288971,18.1565105619808L47.87232109478542,18.233530233318113L48.82976751668112,18.335003459598244L49.78721393857683,18.456362857089996L50.744660360472544,18.594867996545208L51.702106782368254,18.74885353237802L52.65955320426396,18.917320257080263L53.61699962615967,19.099637013776235L54.57444604805538,19.29541983615617L55.53189246995109,19.504427800259133L56.48933889184679,19.72648999147537L57.446785313742495,19.961482772862293L58.40423173563821,20.209321418157298L59.361678157533916,20.469939275486926L60.31912457942963,20.74326472152723L61.27657100132533,21.029233694150772L62.23401742322105,21.327786667951532L63.19146384511675,21.6388721115895L64.14891026701247,21.96242220204231L65.10635668890816,22.298380429402552L66.06380311080387,22.64668125553984L67.02124953269958,23.007258997421232L67.9786959545953,23.380053157103223L68.93614237649099,23.764985259572896L69.89358879838672,24.16198185966833L70.85103522028243,24.570972530138118L71.80848164217812,24.99188338244647L72.76592806407383,25.42462790722527L73.72337448596954,25.86913311073045L74.68082090786525,26.325318292499716L75.63826732976096,26.793092856009167L76.59571375165666,27.27237081115956L77.55316017355239,27.763063659675627L78.5106065954481,28.265070854314764L79.46805301734379,28.778310978608204L80.4254994392395,29.302682462366462L81.3829458611352,29.838092731290914L82.34039228303092,30.384438792525053L83.29783870492663,30.94162194613924L84.25528512682233,31.509530251867442L85.21273154871804,32.08805436930358L86.17017797061376,32.67710233404982L87.12762439250946,33.2765504310669L88.08507081440517,33.88629807117709L89.04251723630087,34.50622690853479L89.99996365819658,35.136213215324474L90.9574100800923,35.776151122671834L91.914856501988,36.425913844882515L92.87230292388371,37.085377862262504L93.82974934577942,37.75443215877969L94.78719576767513,38.43294158841412L95.74464218957084,39.120782887307314L96.70208861146654,39.81782410480513L97.65953503336225,40.52393862223777L98.61698145525797,41.238997748095095L99.57442787715367,41.96286627513207L100.53187429904938,42.695410358693465L101.48932072094509,43.43648642761629L102.44676714284078,44.18596616295622L103.40421356473651,44.94369876491522L104.36165998663222,45.70954630533704L105.31910640852792,46.48336803498898L106.27655283042363,47.265021511992366L107.23399925231934,48.05435537083477L108.19144567421505,48.85123134393136L109.14889209611076,49.65549529831518L110.10633851800645,50.46699412585169L111.06378493990218,51.28558060533647L112.02123136179789,52.11110050366172L112.97867778369358,52.943403288623685L113.9361242055893,53.78232483246868L114.89357062748499,54.62771657425172L115.85101704938072,55.47941556897431L116.80846347127643,56.337268693313796L117.76590989317212,57.20111553687589L118.72335631506783,58.070788681008025L119.68080273696356,58.94612704616421L120.63824915885925,59.82697599227781L121.59569558075496,60.71316101883121L122.55314200265066,61.60452470520561L123.51058842454637,62.500896154582854L124.4680348464421,63.40210429247142L125.42548126833779,64.30798848183738L126.3829276902335,65.21837853202892L127.34037411212921,66.13310115623887L128.29782053402494,67.0519891180131L129.25526695592063,67.97486299501689L130.21271337781633,68.90156504955657L131.17015979971205,69.83191101449206L132.12760622160775,70.76573233720026L133.08505264350347,71.7028514416605L134.04249906539917,72.64309588187506L134.99994548729487,73.58628574579849L135.9573919091906,74.53224982183369L136.9148383310863,75.48081157459089L137.87228475298198,76.4317912744048L138.82973117487774,77.38501254707559L139.78717759677343,78.34030103168273L140.74462401866913,79.2974809392578L141.70207044056485,80.2563650799421L142.65951686246055,81.21677260341971L143.61696328435625,82.17853437114674L144.57440970625194,83.14146191148826L145.53185612814767,84.10538414912435L146.48930255004336,85.07011408636997L147.4467489719391,86.0354736242288L148.4041953938348,87.00128736690245L149.3616418157305,87.96737099644956L150.3190882376262,88.9335453857047L151.27653465952193,89.89962397790633L152.23398108141762,90.86543421064306L153.19142750331332,91.83079610202125L154.14887392520905,92.7955252184578L155.10632034710477,93.75944236340216L156.06376676900047,94.72236884650803L157.0212131908962,95.68412891716696L157.9786596127919,96.64454331658237L158.93610603468758,97.60342540901406L159.89355245658328,98.56059467661727L160.850998878479,99.51588218033068L161.8084453003747,100.46910484023985L162.7658917222704,101.42008690801087L163.72333814416615,102.3686438541811L164.68078456606185,103.31460565072624L165.63823098795754,104.25779515439253L166.59567740985327,105.1980362248194L167.55312383174896,106.13515200537441L168.51057025364466,107.06896784567749L169.46801667554038,107.99930778308448L170.42546309743608,108.92600429364684L171.38290951933178,109.84887910054077L172.34035594122753,110.76775933728683L173.29780236312322,111.68247670161982L174.25524878501892,112.59286167577993L175.21269520691465,113.49874533071834L176.17014162881034,114.3999498645589L177.12758805070604,115.29631323985234L178.08503447260173,116.1876723337438L179.04248089449746,117.07385678209668L179.99992731639315,117.95469714803602L180.95737373828888,118.83002982307471L181.9148201601846,119.69970128579695L182.8722665820803,120.56353638886779L183.829713003976,121.42138654963203L184.78715942587172,122.27308222002661L185.74460584776742,123.11846631488999L186.7020522696631,123.95738527277861L187.65949869155884,124.78968237444883L188.61694511345456,125.61519636996142L189.57439153535026,126.43377383502158L190.53183795724598,127.2452699947443L191.48928437914168,128.04952285775934L192.44673080103738,128.84639305299802L193.40417722293307,129.63572314938764L194.3616236448288,130.41736596797645L195.3190700667245,131.1911831171006L196.2765164886202,131.9570250023726L197.23396291051594,132.7147517828673L198.19140933241164,133.4642182666713L199.14885575430733,134.20528395932448L200.10630217620306,134.93781843388115L201.06374859809875,135.66167621578091L202.02119501999445,136.37672454902173L202.97864144189018,137.0828343547135L203.93608786378587,137.7798734882023L204.89353428568157,138.4677059883646L205.85098070757732,139.14620480726037L206.80842712947302,139.8152489038637L207.7658735513687,140.4747063432123L208.72331997326444,141.12446237812074L209.68076639516013,141.76438753192338L210.63821281705583,142.39436523739354L211.59565923895153,143.0142814009371L212.55310566084725,143.62401550509327L213.51055208274295,144.22345833516982L214.46799850463867,144.81249394855666L215.4254449265344,145.39101159194706L216.3828913484301,145.95890988615272L217.3403377703258,146.51607528335256L218.2977841922215,147.06241131768817L219.2552306141172,147.59780969584986L220.2126770360129,148.12217282116114L221.17012345790863,148.63540523140037L222.12756987980435,149.13740944999952L223.08501630170005,149.628086132779L224.04246272359578,150.10735260809616L224.99990914549147,150.5751180852247L225.95735556738717,151.0312895380034L226.91480198928286,151.4757874265969L227.8722484111786,151.90852580488055L228.82969483307429,152.32942377950806L229.78714125496998,152.73840431255513L230.74458767686573,153.13539103184087L231.70203409876143,153.52030747037767L232.65948052065713,153.89308583609477L233.61692694255285,154.25365365681398L234.57437336444855,154.60194685535785L235.53181978634424,154.93789700074473L236.48926620823997,155.2614407930056L237.44671263013566,155.57252171767564L238.40415905203136,155.87107901166905L239.3616054739271,156.15705768265096L240.3190518958228,156.43040768349573L241.2764983177185,156.69107048401148L242.23394473961423,156.93900239903286L243.19139116150993,157.1741587653529L244.14883758340562,157.39649079079376L245.10628400530132,157.60596244525934L246.06373042719704,157.80253019881383L247.02117684909274,157.9861561538019L247.97862327098846,158.15681246435045L248.9360696928842,158.3144621791611L249.89351611477989,158.45907810255042L250.85096253667558,158.59063208592983L251.8084089585713,158.7091004853566L252.765855380467,158.8144606915723L253.7233018023627,158.90669407292955L254.68074822425842,158.98578101467587L255.63819464615415,159.05170806183665L256.5956410680499,159.10446376789366L257.55308748994554,159.1440378904373L258.51053391184126,159.17042259693326" fill="none"></path></g></g></g></g><g opacity="0.2"><g><g><g><path style="fill: none;" stroke="rgb(255, 112, 67)" stroke-width="2px" d="M20.106374859809875,107.32045149295286L21.063821281705582,102.60305808621415L22.021267703601293,97.88567126951396L22.978714125497,93.16827786277526L23.93616054739271,88.45088445603655L24.893606969288417,83.73349104929784L25.851053391184127,79.01609764255913L26.808499813079834,74.29871082585895L27.765946234975544,69.58131082908172L28.723392656871248,64.86392401238156L29.680839078766958,60.146530605642845L30.638285500662665,55.42913719890414L31.595731922558375,50.71174379216543L32.55317834445408,45.99435038542672L33.51062476634979,41.276963568726536L34.468071188245496,36.55957675202635L35.42551761014121,31.842176755249124L36.38296403203692,27.124776758471892L37.34041045393263,22.407389941771708L38.29785687582833,17.690003125071524L39.25530329772405,17.696593163595292L40.21274971961975,17.71640281939774L41.17019614151546,17.74940573232477L42.127642563411165,17.795601902376387L43.08508898530688,17.85496496939849L44.042535407202585,17.927508113468132L44.99998182909829,18.013204974431215L45.957428250994,18.112029192133644L46.91487467288971,18.224007126729514L47.87232109478542,18.34905969775654L48.82976751668112,18.48721326536882L49.78721393857683,18.63840192918111L50.744660360472544,18.802625689193416L51.702106782368254,18.979831825097545L52.65955320426396,19.170020336893497L53.61699962615967,19.373112144118988L54.57444604805538,19.58909406669697L55.53189246995109,19.817939744473346L56.48933889184679,20.05958327706288L57.446785313742495,20.313971944157384L58.40423173563821,20.58107938560276L59.361678157533916,20.860866061167865L60.31912457942963,21.153252890390416L61.27657100132533,21.45818715296222L62.23401742322105,21.77561612857509L63.19146384511675,22.105500276997883L64.14891026701247,22.447747337691265L65.10635668890816,22.802317770424093L66.06380311080387,23.169132494734082L67.02124953269958,23.548125610235996L67.9786959545953,23.939244396621643L68.93614237649099,24.342383413274643L69.89358879838672,24.75747675980976L70.85103522028243,25.184458535841753L71.80848164217812,25.62324966090834L72.76592806407383,26.073744694393138L73.72337448596954,26.53589091598796L74.68082090786525,27.00959606515347L75.63826732976096,27.49475470127329L76.59571375165666,27.991287743885135L77.55316017355239,28.49910293244967L78.5106065954481,29.01808164627347L79.46805301734379,29.54817116504834L80.4254994392395,30.08923968800381L81.3829458611352,30.641208134677594L82.34039228303092,31.203957884376262L83.29783870492663,31.777396676560482L84.25528512682233,32.361392710459775L85.21273154871804,32.95584054545777L86.17017797061376,33.56067428116922L87.12762439250946,34.17572257659251L88.08507081440517,34.80091953134241L89.04251723630087,35.436120164571385L89.99996365819658,36.081192675508966L90.9574100800923,36.73605798369287L91.914856501988,37.400557928198516L92.87230292388371,38.07457388833249L93.82974934577942,38.75801360355545L94.78719576767513,39.45070573286578L95.74464218957084,40.1525448356471L96.70208861146654,40.86338593105189L97.65953503336225,41.583110398386715L98.61698145525797,42.31158643688111L99.57442787715367,43.04866906568754L100.53187429904938,43.79422648403554L101.48932072094509,44.548100531000536L102.44676714284078,45.310185765966146L103.40421356473651,46.080297667853706L104.36165998663222,46.85831761596979L105.31910640852792,47.64410062946687L106.27655283042363,48.43750172749743L107.23399925231934,49.238356159098366L108.19144567421505,50.04654530357626L109.14889209611076,50.861891229890965L110.10633851800645,51.684242367156436L111.06378493990218,52.513460324563674L112.02123136179789,53.349380351149584L112.97867778369358,54.191857466066644L113.9361242055893,55.04070714823619L114.89357062748499,55.89580418692626L115.85101704938072,56.756964061058206L116.80846347127643,57.624048379823016L117.76590989317212,58.496885802219076L118.72335631506783,59.375298397206244L119.68080273696356,60.25913459389847L120.63824915885925,61.14824941144824L121.59569558075496,62.04243855866131L122.55314200265066,62.941570234767205L123.51058842454637,63.84545332864874L124.4680348464421,64.7539164993043L125.42548126833779,65.66681476588634L126.3829276902335,66.58396360731619L127.34037411212921,67.50518509255376L128.29782053402494,68.43032106067444L129.25526695592063,69.35917381052253L130.21271337781633,70.29161813136608L131.17015979971205,71.22742996189527L132.12760622160775,72.16646432126258L133.08505264350347,73.10853009835083L134.04249906539917,74.05346254219691L134.99994548729487,75.00107054168365L135.9573919091906,75.95119593588646L136.9148383310863,76.90365420372669L137.87228475298198,77.85826082412567L138.82973117487774,78.81484445608177L139.78717759677343,79.77323375859339L140.74462401866913,80.73325080062038L141.70207044056485,81.6946912909685L142.65951686246055,82.65738388863615L143.61696328435625,83.62117702273726L144.57440970625194,84.58585322200055L145.53185612814767,85.55126750557851L146.48930255004336,86.51720899223837L147.4467489719391,87.48351293101703L148.4041953938348,88.45000798091289L149.3616418157305,89.41649644077022L150.3190882376262,90.3828069695874L151.27653465952193,91.34874186620874L152.23398108141762,92.31414955974817L153.19142750331332,93.27883893908852L154.14887392520905,94.24261889311258L155.10632034710477,95.20531808081874L156.06376676900047,96.16675857116687L157.0212131908962,97.12676902315533L157.9786596127919,98.08516491570548L158.93610603468758,99.04174854766158L159.89355245658328,99.99634857802204L160.850998878479,100.94881343590079L161.8084453003747,101.8989388301036L162.7658917222704,102.84656000966739L163.72333814416615,103.79147927343642L164.68078456606185,104.73354834554394L165.63823098795754,105.67257940989198L166.59567740985327,106.6083978304597L167.55312383174896,107.54082567620694L168.51057025364466,108.46969160613207L169.46801667554038,109.39481768919497L170.42546309743608,110.31604905949033L171.38290951933178,111.23319131088168L172.34035594122753,112.14607969240593L173.29780236312322,113.05455274811928L174.25524878501892,113.95843913702006L175.21269520691465,114.85757081312596L176.17014162881034,115.75175666531977L177.12758805070604,116.6408583027925L178.08503447260173,117.52471097458103L179.04248089449746,118.40313345462599L179.99992731639315,119.275957696945L180.95737373828888,120.14302883563276L181.9148201601846,121.00420847988028L182.8722665820803,121.85928904347404L183.829713003976,122.70816179077842L184.78715942587172,123.55062572561843L185.74460584776742,124.38654245718507L186.7020522696631,125.21576370961158L187.65949869155884,126.0381280269541L188.61694511345456,126.85346736323028L189.57439153535026,127.66164003261186L190.53183795724598,128.46251423432838L191.48928437914168,129.2559021522819L192.44673080103738,130.04169834585602L193.40417722293307,130.8197182939721L194.3616236448288,131.58983019585966L195.3190700667245,132.35190884078673L196.2765164886202,133.10578783028063L197.23396291051594,133.85134195360936L198.19140933241164,134.5884179923773L199.14885575430733,135.31688249830424L200.10630217620306,136.0366201457161L201.06374859809875,136.74746288863054L202.02119501999445,137.44929704888298L202.97864144189018,138.1419990632511L203.93608786378587,138.8254321884355L204.89353428568157,139.49945473860802L205.85098070757732,140.16395303560404L206.80842712947302,140.81881504876867L207.7658735513687,141.46389250223515L208.72331997326444,142.0990964304834L209.68076639516013,142.72427526262734L210.63821281705583,143.33933179559878L211.59565923895153,143.94415564625245L212.55310566084725,144.5386166613275L213.51055208274295,145.12262258028457L214.46799850463867,145.69604736863693L215.4254449265344,146.25878805703263L216.3828913484301,146.81075732746123L217.3403377703258,147.35182337915225L218.2977841922215,147.88191536919157L219.2552306141172,148.40090726309242L220.2126770360129,148.90871750912805L221.17012345790863,149.4052538467592L222.12756987980435,149.89041577789828L223.08501630170005,150.3641011569482L224.04246272359578,150.82625232107193L224.99990914549147,151.27676630091747L225.95735556738717,151.71554671717146L226.91480198928286,152.14253425948718L227.8722484111786,152.557633372306L228.82969483307429,152.96077074144935L229.78714125496998,153.35187511212573L230.74458767686573,153.7308711107695L231.70203409876143,154.09768212818284L232.65948052065713,154.45225338467046L233.61692694255285,154.79450538789274L234.57437336444855,155.12438665317367L235.53181978634424,155.44182221882508L236.48926620823997,155.7467564813969L237.44671263013566,156.03914310468073L238.40415905203136,156.31891495265916L239.3616054739271,156.5860256891238L240.3190518958228,156.84043268476293L241.2764983177185,157.08206468478505L242.23394473961423,157.31090027156495L243.19139116150993,157.52689331483293L244.14883758340562,157.7299888289551L245.10628400530132,157.9201699269577L246.06373042719704,158.09738182914555L247.02117684909274,158.26159508628396L247.97862327098846,158.4127969301733L248.9360696928842,158.5509367513771L249.89351611477989,158.6760019876344L250.85096253667558,158.7879630609989L251.8084089585713,158.88680308449685L252.765855380467,158.9725010008958L253.7233018023627,159.04504414496543L254.68074822425842,159.1044114272954L255.63819464615415,159.15059863257778L256.5956410680499,159.1835973269792L257.55308748994554,159.20339907425273L258.51053391184126,159.20999965667724" fill="none"></path></g></g></g></g></g></g><g transform="translate(61, 176)" clip-path="url(#clip_1)"><clipPath id="clip_1"><rect width="268" height="23"></rect></clipPath><g><g><line x1="0" y1="0" x2="0" y2="5" style="visibility: inherit;" fill="rgb(0, 0, 0)" stroke="rgb(204, 204, 204)" stroke-width="1px"></line><line x1="19.148928437914165" y1="0" x2="19.148928437914165" y2="5" style="visibility: inherit;" fill="rgb(0, 0, 0)" stroke="rgb(204, 204, 204)" stroke-width="1px"></line><line x1="38.29785687582833" y1="0" x2="38.29785687582833" y2="5" style="visibility: inherit;" fill="rgb(0, 0, 0)" stroke="rgb(204, 204, 204)" stroke-width="1px"></line><line x1="57.446785313742495" y1="0" x2="57.446785313742495" y2="5" style="visibility: inherit;" fill="rgb(0, 0, 0)" stroke="rgb(204, 204, 204)" stroke-width="1px"></line><line x1="76.59571375165666" y1="0" x2="76.59571375165666" y2="5" style="visibility: inherit;" fill="rgb(0, 0, 0)" stroke="rgb(204, 204, 204)" stroke-width="1px"></line><line x1="95.74464218957084" y1="0" x2="95.74464218957084" y2="5" style="visibility: inherit;" fill="rgb(0, 0, 0)" stroke="rgb(204, 204, 204)" stroke-width="1px"></line><line x1="114.89357062748499" y1="0" x2="114.89357062748499" y2="5" style="visibility: inherit;" fill="rgb(0, 0, 0)" stroke="rgb(204, 204, 204)" stroke-width="1px"></line><line x1="134.04249906539917" y1="0" x2="134.04249906539917" y2="5" style="visibility: inherit;" fill="rgb(0, 0, 0)" stroke="rgb(204, 204, 204)" stroke-width="1px"></line><line x1="153.19142750331332" y1="0" x2="153.19142750331332" y2="5" style="visibility: inherit;" fill="rgb(0, 0, 0)" stroke="rgb(204, 204, 204)" stroke-width="1px"></line><line x1="172.34035594122753" y1="0" x2="172.34035594122753" y2="5" style="visibility: inherit;" fill="rgb(0, 0, 0)" stroke="rgb(204, 204, 204)" stroke-width="1px"></line><line x1="191.48928437914168" y1="0" x2="191.48928437914168" y2="5" style="visibility: inherit;" fill="rgb(0, 0, 0)" stroke="rgb(204, 204, 204)" stroke-width="1px"></line><line x1="210.63821281705583" y1="0" x2="210.63821281705583" y2="5" style="visibility: inherit;" fill="rgb(0, 0, 0)" stroke="rgb(204, 204, 204)" stroke-width="1px"></line><line x1="229.78714125496998" y1="0" x2="229.78714125496998" y2="5" style="visibility: inherit;" fill="rgb(0, 0, 0)" stroke="rgb(204, 204, 204)" stroke-width="1px"></line><line x1="248.9360696928842" y1="0" x2="248.9360696928842" y2="5" style="visibility: inherit;" fill="rgb(0, 0, 0)" stroke="rgb(204, 204, 204)" stroke-width="1px"></line><line x1="268.08499813079834" y1="0" x2="268.08499813079834" y2="5" style="visibility: inherit;" fill="rgb(0, 0, 0)" stroke="rgb(204, 204, 204)" stroke-width="1px"></line></g><g transform="translate(0, 8)"><text style="text-anchor: middle; visibility: hidden; font-family: Roboto, sans-serif; font-size: 12px; font-weight: 200;" x="0" y="0" dx="0em" dy="0.95em" fill="rgb(33, 33, 33)" stroke="none" stroke-width="1px">-2k</text><text style="text-anchor: middle; visibility: inherit; font-family: Roboto, sans-serif; font-size: 12px; font-weight: 200;" x="19.148928437914165" y="0" dx="0em" dy="0.95em" fill="rgb(33, 33, 33)" stroke="none" stroke-width="1px">0</text><text style="text-anchor: middle; visibility: hidden; font-family: Roboto, sans-serif; font-size: 12px; font-weight: 200;" x="38.29785687582833" y="0" dx="0em" dy="0.95em" fill="rgb(33, 33, 33)" stroke="none" stroke-width="1px">2k</text><text style="text-anchor: middle; visibility: inherit; font-family: Roboto, sans-serif; font-size: 12px; font-weight: 200;" x="57.446785313742495" y="0" dx="0em" dy="0.95em" fill="rgb(33, 33, 33)" stroke="none" stroke-width="1px">4k</text><text style="text-anchor: middle; visibility: hidden; font-family: Roboto, sans-serif; font-size: 12px; font-weight: 200;" x="76.59571375165666" y="0" dx="0em" dy="0.95em" fill="rgb(33, 33, 33)" stroke="none" stroke-width="1px">6k</text><text style="text-anchor: middle; visibility: inherit; font-family: Roboto, sans-serif; font-size: 12px; font-weight: 200;" x="95.74464218957084" y="0" dx="0em" dy="0.95em" fill="rgb(33, 33, 33)" stroke="none" stroke-width="1px">8k</text><text style="text-anchor: middle; visibility: hidden; font-family: Roboto, sans-serif; font-size: 12px; font-weight: 200;" x="114.89357062748499" y="0" dx="0em" dy="0.95em" fill="rgb(33, 33, 33)" stroke="none" stroke-width="1px">10k</text><text style="text-anchor: middle; visibility: inherit; font-family: Roboto, sans-serif; font-size: 12px; font-weight: 200;" x="134.04249906539917" y="0" dx="0em" dy="0.95em" fill="rgb(33, 33, 33)" stroke="none" stroke-width="1px">12k</text><text style="text-anchor: middle; visibility: hidden; font-family: Roboto, sans-serif; font-size: 12px; font-weight: 200;" x="153.19142750331332" y="0" dx="0em" dy="0.95em" fill="rgb(33, 33, 33)" stroke="none" stroke-width="1px">14k</text><text style="text-anchor: middle; visibility: inherit; font-family: Roboto, sans-serif; font-size: 12px; font-weight: 200;" x="172.34035594122753" y="0" dx="0em" dy="0.95em" fill="rgb(33, 33, 33)" stroke="none" stroke-width="1px">16k</text><text style="text-anchor: middle; visibility: hidden; font-family: Roboto, sans-serif; font-size: 12px; font-weight: 200;" x="191.48928437914168" y="0" dx="0em" dy="0.95em" fill="rgb(33, 33, 33)" stroke="none" stroke-width="1px">18k</text><text style="text-anchor: middle; visibility: inherit; font-family: Roboto, sans-serif; font-size: 12px; font-weight: 200;" x="210.63821281705583" y="0" dx="0em" dy="0.95em" fill="rgb(33, 33, 33)" stroke="none" stroke-width="1px">20k</text><text style="text-anchor: middle; visibility: hidden; font-family: Roboto, sans-serif; font-size: 12px; font-weight: 200;" x="229.78714125496998" y="0" dx="0em" dy="0.95em" fill="rgb(33, 33, 33)" stroke="none" stroke-width="1px">22k</text><text style="text-anchor: middle; visibility: inherit; font-family: Roboto, sans-serif; font-size: 12px; font-weight: 200;" x="248.9360696928842" y="0" dx="0em" dy="0.95em" fill="rgb(33, 33, 33)" stroke="none" stroke-width="1px">24k</text><text style="text-anchor: middle; visibility: hidden; font-family: Roboto, sans-serif; font-size: 12px; font-weight: 200;" x="268.08499813079834" y="0" dx="0em" dy="0.95em" fill="rgb(33, 33, 33)" stroke="none" stroke-width="1px">26k</text></g><line x1="0" y1="0" x2="268.08499813079834" y2="0" fill="rgb(0, 0, 0)" stroke="rgb(204, 204, 204)" stroke-width="1px"></line></g></g></g></g></svg>