<svg viewBox="0 0 330 200" xmlns="http://www.w3.org/2000/svg"><g><g><g><g><g><line x1="30.766000747680664" y1="176.89999961853027" x2="25.766000747680664" y2="176.89999961853027" style="visibility: inherit;" fill="rgb(0, 0, 0)" stroke="rgb(204, 204, 204)" stroke-width="1px"></line><line x1="30.766000747680664" y1="164.26428536006384" x2="25.766000747680664" y2="164.26428536006384" style="visibility: inherit;" fill="rgb(0, 0, 0)" stroke="rgb(204, 204, 204)" stroke-width="1px"></line><line x1="30.766000747680664" y1="151.6285711015974" x2="25.766000747680664" y2="151.6285711015974" style="visibility: inherit;" fill="rgb(0, 0, 0)" stroke="rgb(204, 204, 204)" stroke-width="1px"></line><line x1="30.766000747680664" y1="138.99285684313094" x2="25.766000747680664" y2="138.99285684313094" style="visibility: inherit;" fill="rgb(0, 0, 0)" stroke="rgb(204, 204, 204)" stroke-width="1px"></line><line x1="30.766000747680664" y1="126.35714258466449" x2="25.766000747680664" y2="126.35714258466449" style="visibility: inherit;" fill="rgb(0, 0, 0)" stroke="rgb(204, 204, 204)" stroke-width="1px"></line><line x1="30.766000747680664" y1="113.72142832619802" x2="25.766000747680664" y2="113.72142832619802" style="visibility: inherit;" fill="rgb(0, 0, 0)" stroke="rgb(204, 204, 204)" stroke-width="1px"></line><line x1="30.766000747680664" y1="101.08571406773157" x2="25.766000747680664" y2="101.08571406773157" style="visibility: inherit;" fill="rgb(0, 0, 0)" stroke="rgb(204, 204, 204)" stroke-width="1px"></line><line x1="30.766000747680664" y1="88.44999980926514" x2="25.766000747680664" y2="88.44999980926514" style="visibility: inherit;" fill="rgb(0, 0, 0)" stroke="rgb(204, 204, 204)" stroke-width="1px"></line><line x1="30.766000747680664" y1="75.8142855507987" x2="25.766000747680664" y2="75.8142855507987" style="visibility: inherit;" fill="rgb(0, 0, 0)" stroke="rgb(204, 204, 204)" stroke-width="1px"></line><line x1="30.766000747680664" y1="63.17857129233223" x2="25.766000747680664" y2="63.17857129233223" style="visibility: inherit;" fill="rgb(0, 0, 0)" stroke="rgb(204, 204, 204)" stroke-width="1px"></line><line x1="30.766000747680664" y1="50.542857033865786" x2="25.766000747680664" y2="50.542857033865786" style="visibility: inherit;" fill="rgb(0, 0, 0)" stroke="rgb(204, 204, 204)" stroke-width="1px"></line><line x1="30.766000747680664" y1="37.90714277539935" x2="25.766000747680664" y2="37.90714277539935" style="visibility: inherit;" fill="rgb(0, 0, 0)" stroke="rgb(204, 204, 204)" stroke-width="1px"></line><line x1="30.766000747680664" y1="25.271428516932904" x2="25.766000747680664" y2="25.271428516932904" style="visibility: inherit;" fill="rgb(0, 0, 0)" stroke="rgb(204, 204, 204)" stroke-width="1px"></line><line x1="30.766000747680664" y1="12.635714258466443" x2="25.766000747680664" y2="12.635714258466443" style="visibility: inherit;" fill="rgb(0, 0, 0)" stroke="rgb(204, 204, 204)" stroke-width="1px"></line><line x1="30.766000747680664" y1="0" x2="25.766000747680664" y2="0" style="visibility: inherit;" fill="rgb(0, 0, 0)" stroke="rgb(204, 204, 204)" stroke-width="1px"></line></g><g transform="translate(20.766000747680664, 0)"><text style="text-anchor: end; visibility: hidden; font-family: Roboto, sans-serif; font-size: 12px; font-weight: 200;" x="0" y="176.89999961853027" dx="0em" dy="0.3em" fill="rgb(33, 33, 33)" stroke="none" stroke-width="1px">-1</text><text style="text-anchor: end; visibility: inherit; font-family: Roboto, sans-serif; font-size: 12px; font-weight: 200;" x="0" y="164.26428536006384" dx="0em" dy="0.3em" fill="rgb(33, 33, 33)" stroke="none" stroke-width="1px">0</text><text style="text-anchor: end; visibility: hidden; font-family: Roboto, sans-serif; font-size: 12px; font-weight: 200;" x="0" y="151.6285711015974" dx="0em" dy="0.3em" fill="rgb(33, 33, 33)" stroke="none" stroke-width="1px">1</text><text style="text-anchor: end; visibility: inherit; font-family: Roboto, sans-serif; font-size: 12px; font-weight: 200;" x="0" y="138.99285684313094" dx="0em" dy="0.3em" fill="rgb(33, 33, 33)" stroke="none" stroke-width="1px">2</text><text style="text-anchor: end; visibility: hidden; font-family: Roboto, sans-serif; font-size: 12px; font-weight: 200;" x="0" y="126.35714258466449" dx="0em" dy="0.3em" fill="rgb(33, 33, 33)" stroke="none" stroke-width="1px">3</text><text style="text-anchor: end; visibility: inherit; font-family: Roboto, sans-serif; font-size: 12px; font-weight: 200;" x="0" y="113.72142832619802" dx="0em" dy="0.3em" fill="rgb(33, 33, 33)" stroke="none" stroke-width="1px">4</text><text style="text-anchor: end; visibility: hidden; font-family: Roboto, sans-serif; font-size: 12px; font-weight: 200;" x="0" y="101.08571406773157" dx="0em" dy="0.3em" fill="rgb(33, 33, 33)" stroke="none" stroke-width="1px">5</text><text style="text-anchor: end; visibility: inherit; font-family: Roboto, sans-serif; font-size: 12px; font-weight: 200;" x="0" y="88.44999980926514" dx="0em" dy="0.3em" fill="rgb(33, 33, 33)" stroke="none" stroke-width="1px">6</text><text style="text-anchor: end; visibility: hidden; font-family: Roboto, sans-serif; font-size: 12px; font-weight: 200;" x="0" y="75.8142855507987" dx="0em" dy="0.3em" fill="rgb(33, 33, 33)" stroke="none" stroke-width="1px">7</text><text style="text-anchor: end; visibility: inherit; font-family: Roboto, sans-serif; font-size: 12px; font-weight: 200;" x="0" y="63.17857129233223" dx="0em" dy="0.3em" fill="rgb(33, 33, 33)" stroke="none" stroke-width="1px">8</text><text style="text-anchor: end; visibility: hidden; font-family: Roboto, sans-serif; font-size: 12px; font-weight: 200;" x="0" y="50.542857033865786" dx="0em" dy="0.3em" fill="rgb(33, 33, 33)" stroke="none" stroke-width="1px">9</text><text style="text-anchor: end; visibility: inherit; font-family: Roboto, sans-serif; font-size: 12px; font-weight: 200;" x="0" y="37.90714277539935" dx="0em" dy="0.3em" fill="rgb(33, 33, 33)" stroke="none" stroke-width="1px">10</text><text style="text-anchor: end; visibility: hidden; font-family: Roboto, sans-serif; font-size: 12px; font-weight: 200;" x="0" y="25.271428516932904" dx="0em" dy="0.3em" fill="rgb(33, 33, 33)" stroke="none" stroke-width="1px">11</text><text style="text-anchor: end; visibility: inherit; font-family: Roboto, sans-serif; font-size: 12px; font-weight: 200;" x="0" y="12.635714258466443" dx="0em" dy="0.3em" fill="rgb(33, 33, 33)" stroke="none" stroke-width="1px">12</text><text style="text-anchor: end; visibility: hidden; font-family: Roboto, sans-serif; font-size: 12px; font-weight: 200;" x="0" y="0" dx="0em" dy="0.3em" fill="rgb(33, 33, 33)" stroke="none" stroke-width="1px">13</text></g><line x1="30.766000747680664" y1="0" x2="30.766000747680664" y2="176.89999961853027" fill="rgb(0, 0, 0)" stroke="rgb(204, 204, 204)" stroke-width="1px"></line></g></g><g transform="translate(30, 0)" clip-path="url(#clip_0)"><clipPath id="clip_0"><rect width="299" height="176"></rect></clipPath><g><g><g><line x1="0" y1="0" x2="0" y2="176.89999961853027" fill="rgb(0, 0, 0)" stroke="rgb(66, 66, 66)" stroke-width="1px" opacity="0.25"></line><line x1="21.37385708945138" y1="0" x2="21.37385708945138" y2="176.89999961853027" fill="rgb(0, 0, 0)" stroke="rgb(66, 66, 66)" stroke-width="1px" opacity="0.25"></line><line x1="42.74771417890276" y1="0" x2="42.74771417890276" y2="176.89999961853027" fill="rgb(0, 0, 0)" stroke="rgb(66, 66, 66)" stroke-width="1px" opacity="0.25"></line><line x1="64.12157126835415" y1="0" x2="64.12157126835415" y2="176.89999961853027" fill="rgb(0, 0, 0)" stroke="rgb(66, 66, 66)" stroke-width="1px" opacity="0.25"></line><line x1="85.49542835780552" y1="0" x2="85.49542835780552" y2="176.89999961853027" fill="rgb(0, 0, 0)" stroke="rgb(66, 66, 66)" stroke-width="1px" opacity="0.25"></line><line x1="106.86928544725691" y1="0" x2="106.86928544725691" y2="176.89999961853027" fill="rgb(0, 0, 0)" stroke="rgb(66, 66, 66)" stroke-width="1px" opacity="0.25"></line><line x1="128.2431425367083" y1="0" x2="128.2431425367083" y2="176.89999961853027" fill="rgb(0, 0, 0)" stroke="rgb(66, 66, 66)" stroke-width="1px" opacity="0.25"></line><line x1="149.61699962615967" y1="0" x2="149.61699962615967" y2="176.89999961853027" fill="rgb(0, 0, 0)" stroke="rgb(66, 66, 66)" stroke-width="1px" opacity="0.25"></line><line x1="170.99085671561105" y1="0" x2="170.99085671561105" y2="176.89999961853027" fill="rgb(0, 0, 0)" stroke="rgb(66, 66, 66)" stroke-width="1px" opacity="0.25"></line><line x1="192.36471380506245" y1="0" x2="192.36471380506245" y2="176.89999961853027" fill="rgb(0, 0, 0)" stroke="rgb(66, 66, 66)" stroke-width="1px" opacity="0.25"></line><line x1="213.73857089451383" y1="0" x2="213.73857089451383" y2="176.89999961853027" fill="rgb(0, 0, 0)" stroke="rgb(66, 66, 66)" stroke-width="1px" opacity="0.25"></line><line x1="235.11242798396518" y1="0" x2="235.11242798396518" y2="176.89999961853027" fill="rgb(0, 0, 0)" stroke="rgb(66, 66, 66)" stroke-width="1px" opacity="0.25"></line><line x1="256.4862850734166" y1="0" x2="256.4862850734166" y2="176.89999961853027" fill="rgb(0, 0, 0)" stroke="rgb(66, 66, 66)" stroke-width="1px" opacity="0.25"></line><line x1="277.860142162868" y1="0" x2="277.860142162868" y2="176.89999961853027" fill="rgb(0, 0, 0)" stroke="rgb(66, 66, 66)" stroke-width="1px" opacity="0.25"></line><line x1="299.23399925231934" y1="0" x2="299.23399925231934" y2="176.89999961853027" fill="rgb(0, 0, 0)" stroke="rgb(66, 66, 66)" stroke-width="1px" opacity="0.25"></line></g><g><line x1="0" y1="176.89999961853027" x2="299.23399925231934" y2="176.89999961853027" fill="rgb(0, 0, 0)" stroke="rgb(66, 66, 66)" stroke-width="1px" opacity="0.25"></line><line x1="0" y1="164.26428536006384" x2="299.23399925231934" y2="164.26428536006384" fill="rgb(0, 0, 0)" stroke="rgb(66, 66, 66)" stroke-width="1px" opacity="0.25"></line><line x1="0" y1="151.6285711015974" x2="299.23399925231934" y2="151.6285711015974" fill="rgb(0, 0, 0)" stroke="rgb(66, 66, 66)" stroke-width="1px" opacity="0.25"></line><line x1="0" y1="138.99285684313094" x2="299.23399925231934" y2="138.99285684313094" fill="rgb(0, 0, 0)" stroke="rgb(66, 66, 66)" stroke-width="1px" opacity="0.25"></line><line x1="0" y1="126.35714258466449" x2="299.23399925231934" y2="126.35714258466449" fill="rgb(0, 0, 0)" stroke="rgb(66, 66, 66)" stroke-width="1px" opacity="0.25"></line><line x1="0" y1="113.72142832619802" x2="299.23399925231934" y2="113.72142832619802" fill="rgb(0, 0, 0)" stroke="rgb(66, 66, 66)" stroke-width="1px" opacity="0.25"></line><line x1="0" y1="101.08571406773157" x2="299.23399925231934" y2="101.08571406773157" fill="rgb(0, 0, 0)" stroke="rgb(66, 66, 66)" stroke-width="1px" opacity="0.25"></line><line x1="0" y1="88.44999980926514" x2="299.23399925231934" y2="88.44999980926514" fill="rgb(0, 0, 0)" stroke="rgb(66, 66, 66)" stroke-width="1px" opacity="0.25"></line><line x1="0" y1="75.8142855507987" x2="299.23399925231934" y2="75.8142855507987" fill="rgb(0, 0, 0)" stroke="rgb(66, 66, 66)" stroke-width="1px" opacity="0.25"></line><line x1="0" y1="63.17857129233223" x2="299.23399925231934" y2="63.17857129233223" fill="rgb(0, 0, 0)" stroke="rgb(66, 66, 66)" stroke-width="1px" opacity="0.25"></line><line x1="0" y1="50.542857033865786" x2="299.23399925231934" y2="50.542857033865786" fill="rgb(0, 0, 0)" stroke="rgb(66, 66, 66)" stroke-width="1px" opacity="0.25"></line><line x1="0" y1="37.90714277539935" x2="299.23399925231934" y2="37.90714277539935" fill="rgb(0, 0, 0)" stroke="rgb(66, 66, 66)" stroke-width="1px" opacity="0.25"></line><line x1="0" y1="25.271428516932904" x2="299.23399925231934" y2="25.271428516932904" fill="rgb(0, 0, 0)" stroke="rgb(66, 66, 66)" stroke-width="1px" opacity="0.25"></line><line x1="0" y1="12.635714258466443" x2="299.23399925231934" y2="12.635714258466443" fill="rgb(0, 0, 0)" stroke="rgb(66, 66, 66)" stroke-width="1px" opacity="0.25"></line><line x1="0" y1="0" x2="299.23399925231934" y2="0" fill="rgb(0, 0, 0)" stroke="rgb(66, 66, 66)" stroke-width="1px" opacity="0.25"></line></g></g></g><g><g><line x1="0" y1="164.26428536006384" x2="299.23399925231934" y2="164.26428536006384" fill="rgb(0, 0, 0)" stroke="rgb(153, 153, 153)" stroke-width="1.5px"></line></g></g><g><g><line x1="21.37385708945138" y1="0" x2="21.37385708945138" y2="176.89999961853027" fill="rgb(0, 0, 0)" stroke="rgb(153, 153, 153)" stroke-width="1.5px"></line></g></g><g><g><g><g><g><path style="fill: none;" stroke="rgb(255, 112, 67)" stroke-width="2px" d="M22.44254994392395,141.4313111823155L23.51124279839652,6.171038790683089L24.57993565286909,61.22908984976879L25.64862850734166,100.05882020165807L26.71732136181423,111.64709693975851L27.786014216286798,121.53755379259611L28.854707070759368,131.136772335241L29.923399925231934,138.38959539273412L30.992092779704503,141.28817921914722L32.06078563417707,145.1604194281477L33.12947848864964,146.95668081223283L34.19817134312221,150.37085761169448L35.26686419759478,131.9957807023403L36.33555705206735,141.45892318095983L37.40424990653992,144.98751300160012L38.47294276101248,148.44109142328116L39.541635615485056,150.67228617401005L40.61032846995762,151.42923338496755L41.679021324430195,125.28672592055824L42.74771417890276,137.66126405369755L43.816407033375334,144.20644252311976L44.8850998878479,148.81675503785866L45.95379274232047,151.17960643546095L47.02248559679304,152.5977367362633L48.09117845126561,153.65691547247448L49.15987130573818,153.34142313231803L50.228564160210745,154.36414720653616L51.29725701468332,155.1329294119545L52.365949869155884,154.79943768670373L53.43464272362846,155.73949827543916L54.503335578101016,156.46964445971724L55.572028432573596,156.08874043217864L56.640721287046155,156.57786064540832L57.709414141518735,156.82035884661357L58.778106995991294,156.47759750733115L59.84679985046387,156.7134247904954L60.91549270493643,155.16080254734604L61.984185559409006,155.84723173995033L63.05287841388157,155.7151801595091L64.12157126835415,156.5939675901994L65.19026412282672,156.8739586053161L66.25895697729928,155.95417901119734L67.32764983177185,152.95931483462465L68.39634268624442,153.6834748396281L69.465035540717,154.20843738511908L70.53372839518956,155.0737161169977L71.60242124966213,155.77179348767658L72.6711141041347,156.23249772595878L73.73980695860728,156.54938566615863L74.80849981307983,156.55322715428923L75.87719266755239,156.53839101805087L76.94588552202497,156.4747126348393L78.01457837649755,149.21820248227758L79.08327123097011,151.66611902021975L80.15196408544267,153.1817767618809L81.22065693991524,153.83037398380407L82.28934979438782,154.7198025515879L83.35804264886039,154.28310837776215L84.42673550333295,154.61420136578403L85.49542835780552,155.1428287474168L86.5641212122781,154.1787052665705L87.63281406675067,155.12700768814256L88.70150692122323,154.98975090515958L89.7701997756958,155.05937592723134L90.83889263016836,155.24105527420693L91.90758548464095,154.95359622325856L92.9762783391135,155.84745650782972L94.04497119358608,156.43589830168617L95.11366404805864,155.88163934257506L96.18235690253123,153.952709118745L97.25104975700378,153.77534318638675L98.31974261147636,154.6705043432271L99.38843546594892,155.09270119262607L100.45712832042149,155.46523829587656L101.52582117489406,155.7417218731401L102.59451402936664,155.35436390031526L103.6632068838392,155.84732512567842L104.73189973831177,156.4817081324208L105.80059259278434,156.5951426780504L106.86928544725691,155.6561189902567L107.93797830172947,156.59143935573388L109.00667115620203,147.0966547008448L110.07536401067462,149.87982951357446L111.14405686514719,152.05826033484593L112.21274971961975,150.3502564525705L113.28144257409231,151.00349453650858L114.35013542856488,152.2884115569249L115.41882828303747,153.29336130896502L116.48752113751003,153.40146882414376L117.55621399198259,154.41015458362992L118.62490684645516,155.0627658140092L119.69359970092773,155.44861495949883L120.76229255540031,155.718341850088L121.83098540987287,156.0860652483514L122.89967826434544,155.6971392512835L123.96837111881801,153.90085758078422L125.03706397329059,154.19138814340377L126.10575682776314,153.84258967484712L127.17444968223572,154.65448458656314L128.2431425367083,154.37501282086967L129.31183539118086,154.65509478675088L130.38052824565344,155.1183858261348L131.44922110012598,155.7753769881469L132.51791395459855,155.26028856327676L133.58660680907113,154.9213235117821L134.6552996635437,154.95638005803622L135.72399251801627,155.57219365746937L136.79268537248885,155.71283802222104L137.8613782269614,155.78968413070632L138.930071081434,155.77329563617437L139.99876393590654,155.43214582962943L141.0674567903791,155.3797796777501L142.13614964485168,155.53919364436126L143.20484249932426,156.32475835409733L144.27353535379683,156.57405731737632L145.3422282082694,156.77918763219532L146.41092106274195,157.3009000380343L147.47961391721455,157.90231027866793L148.5483067716871,157.90997434197413L149.61699962615967,157.80522784818243L150.68569248063224,157.95760985694642L151.75438533510479,157.64287096258738L152.82307818957736,156.42340253878746L153.89177104404993,155.69710799371L154.96046389852253,156.40568490393474L156.0291567529951,156.9782876432651L157.09784960746765,155.60596292249312L158.16654246194022,132.85951901708333L159.2352353164128,117.30277985560095L160.30392817088534,-36.223359922027555L170.99085671561105,-93.38599502285808L172.05954957008362,5.734330608073395L173.1282424245562,8.063057145246498L174.19693527902876,66.8354269934798L175.26562813350134,102.49629706306254L176.3343209879739,123.59028105556237L177.40301384244646,136.16552796780283L178.47170669691903,143.8259166836727L179.5403995513916,147.5393040674917L180.60909240586415,149.738815714829L181.67778526033672,151.77385443917305L182.74647811480932,152.8252469189592L183.8151709692819,153.6767578678176L184.88386382375447,154.40303292126745L185.952556678227,154.42264161475967L187.02124953269958,154.93029615850386L188.08994238717216,155.49900919353368L189.1586352416447,155.08730214221964L190.22732809611728,155.2560534587543L191.29602095058985,154.64163389772537L192.36471380506245,154.74425713001014L193.43340665953502,155.0689662615484L194.50209951400757,154.96667996659937L195.57079236848014,155.1693661378202L196.63948522295271,155.01191509013373L197.70817807742526,155.6092602286806L198.77687093189783,155.1887621144034L199.8455637863704,155.49945227042022L200.91425664084298,155.70902473849426L201.98294949531555,156.01485536945597L203.05164234978812,155.46597015561025L204.1203352042607,155.60914403630977L205.18902805873327,155.7518555512105L206.25772091320582,151.50608707860601L207.3264137676784,153.74849826473306L208.39510662215096,154.8884134992649L209.46379947662354,155.41895106203427L210.5324923310961,155.65234781089742L211.60118518556868,155.95944205644253L212.66987804004125,156.4352346778474L213.73857089451383,155.83400588094574L214.80726374898637,156.28142995614874L215.87595660345895,156.69986795415232L216.94464945793152,155.16410424314256L218.01334231240406,156.28680682769115L219.08203516687664,156.48973348353775L220.15072802134924,156.86344163743982L221.2194208758218,157.0918844556952L222.28811373029438,157.04977671478682L223.35680658476693,157.3270037256204L224.4254994392395,156.9231833556948L225.49419229371208,157.0745874159925L226.56288514818462,157.1899270212042L227.6315780026572,157.45463696767015L228.70027085712977,157.72981981894387L229.76896371160237,156.15429188441937L230.83765656607494,155.7524491990081L231.90634942054749,152.10828143508468L232.97504227502006,153.6162467508263L234.04373512949263,155.2027278435068L235.11242798396518,155.8322022911598L236.18112083843775,155.32996814555943L237.24981369291032,155.86431774892668L238.3185065473829,156.72263262886943L239.38719940185547,157.28506004329182L240.45589225632804,156.9125498758239L241.52458511080061,157.35349438870327L242.5932779652732,133.9131954492449L243.66197081974573,143.43570358865796L244.7306636742183,148.8395176328996L245.79935652869088,152.28487926393277L246.86804938316345,154.2782685305166L247.93674223763603,155.662939269537L249.0054350921086,156.67473248914888L250.07412794658117,156.73906354278955L251.14282080105374,157.49190335368337L252.2115136555263,157.41123576056216L253.28020650999886,157.72132953464612L254.34889936447144,157.5725056483254L255.41759221894398,156.5237815410819L256.4862850734166,156.18993805974844L257.5549779278892,156.88553076244133L258.6236707823617,157.02054744305775L259.6923636368343,157.74255897548144L260.7610564913069,157.71088183242182L261.8297493457794,158.1143747407568L262.89844220025196,157.56191232759193L263.96713505472457,157.53453013621728L265.0358279091971,157.1823875391226L266.10452076366965,157.42490845222275L267.17321361814226,157.69820689314534L268.24190647261486,157.8776953685917L269.3105993270874,157.77422162765802L270.37929218155995,157.60818769703315L271.44798503603255,157.2251905607348L272.5166778905051,157.78985870378543L273.5853707449777,157.78399831538093L274.65406359945024,157.38952032715628L275.7227564539228,157.4147856826731L276.7914493083954,157.18138039196393L277.860142162868,155.60606237561237L278.92883501734053,156.06500226223778L279.9975278718131,156.8588955803816L281.0662207262857,157.0852097273008L282.1349135807582,157.33017745483053L283.20360643523077,156.3575022615403L284.27229928970337,156.7599437476985L285.34099214417597,156.80349931377773L286.4096849986485,157.67650170893086L287.47837785312106,157.94496573932497L288.54707070759366,157.42243633987007" fill="none"></path></g><g><path style="fill: none;" stroke="rgb(0, 119, 187)" stroke-width="2px" d="M277.860142162868,154.83713207063872Z" fill="none"></path></g></g></g></g><g opacity="0.2"><g><g><g><path style="fill: none;" stroke="rgb(255, 112, 67)" stroke-width="2px" d="M22.44254994392395,141.4313111823155L23.51124279839652,-74.98512464429636L24.57993565286909,114.08481886649106L25.64862850734166,145.72258309547982L26.71732136181423,126.77675104902247L27.786014216286798,135.21961618453753L28.854707070759368,144.86380843871984L29.923399925231934,148.96428103766044L30.992092779704503,145.5630273421841L32.06078563417707,150.91024485215047L33.12947848864964,149.63478092981174L34.19817134312221,155.4735430115143L35.26686419759478,104.49316315256752L36.33555705206735,155.63509761763765L37.40424990653992,150.27625000768452L38.47294276101248,153.6190233247273L39.541635615485056,154.01813413326096L40.61032846995762,152.56446201258888L41.679021324430195,86.07694727183221L42.74771417890276,156.22194017160558L43.816407033375334,154.02385127411054L44.8850998878479,155.73207210566986L45.95379274232047,154.72383688148534L47.02248559679304,154.72491538836147L48.09117845126561,155.2456760486021L49.15987130573818,152.86818596751405L50.228564160210745,155.89823070099274L51.29725701468332,156.28610153982024L52.365949869155884,154.29920040602053L53.43464272362846,157.14958863898516L54.503335578101016,157.5648634940099L55.572028432573596,155.51738446665794L56.640721287046155,157.31154090686172L57.709414141518735,157.18410613105178L58.778106995991294,155.96345551313834L59.84679985046387,157.0671657091607L60.91549270493643,152.83186920664366L61.984185559409006,156.87687552248465L63.05287841388157,155.51710278958276L64.12157126835415,157.9121487332981L65.19026412282672,157.29394512742962L66.25895697729928,154.5745096211258L67.32764983177185,148.46701857192744L68.39634268624442,154.76971484681968L69.465035540717,154.9958812032191L70.53372839518956,156.37163421468068L71.60242124966213,156.8189095436296L72.6711141041347,156.9235540833562L73.73980695860728,157.02471757644776L74.80849981307983,156.55898938648505L75.87719266755239,156.51613681369358L76.94588552202497,156.3791950600224L78.01457837649755,138.33343725346668L79.08327123097011,155.3379938271266L80.15196408544267,155.45526337437025L81.22065693991524,154.80326981668819L82.28934979438782,156.05394540326316L83.35804264886039,153.6280671170237L84.42673550333295,155.11084084781675L85.49542835780552,155.9357698198659L86.5641212122781,152.7325200453011L87.63281406675067,156.54946132050057L88.70150692122323,154.7838657306852L89.7701997756958,155.16381346033896L90.83889263016836,155.51357429467032L91.90758548464095,154.52240764683597L92.9762783391135,157.18824693468648L94.04497119358608,157.31856099247088L95.11366404805864,155.05025090390833L96.18235690253123,151.0593137829999L97.25104975700378,153.5092942878494L98.31974261147636,156.01324607848764L99.38843546594892,155.72599646672458L100.45712832042149,156.02404395075223L101.52582117489406,156.1564472390355L102.59451402936664,154.77332694107798L103.6632068838392,156.58676696372316L104.73189973831177,157.4332826425344L105.80059259278434,156.76529449649473L106.86928544725691,154.2475834585661L107.93797830172947,157.99441990394973L109.00667115620203,132.8544777185112L110.07536401067462,154.05459173266897L111.14405686514719,155.3259065667531L112.21274971961975,147.78825062915737L113.28144257409231,151.9833516624157L114.35013542856488,154.21578708754936L115.41882828303747,154.80078593702515L116.48752113751003,153.5636300969119L117.55621399198259,155.92318322285914L118.62490684645516,156.04168265957813L119.69359970092773,156.02738867773326L120.76229255540031,156.12293218597173L121.83098540987287,156.63765034574652L122.89967826434544,155.1137502556816L123.96837111881801,151.20643507503533L125.03706397329059,154.62718398733307L126.10575682776314,153.31939197201217L127.17444968223572,155.87232695413715L128.2431425367083,153.95580517232952L129.31183539118086,155.07521773557266L130.38052824565344,155.81332238521074L131.44922110012598,156.76086373116496L132.51791395459855,154.48765592597158L133.58660680907113,154.41287593454012L134.6552996635437,155.00896487741738L135.72399251801627,156.49591405661909L136.79268537248885,155.92380456934853L137.8613782269614,155.90495329343426L138.930071081434,155.74871289437644L139.99876393590654,154.92042111981203L141.0674567903791,155.3012304499311L142.13614964485168,155.77831459427796L143.20484249932426,157.50310541870144L144.27353535379683,156.9480057622948L145.3422282082694,157.0868831044238L146.41092106274195,158.0834686467928L147.47961391721455,158.8044256396184L148.5483067716871,157.9214704369334L149.61699962615967,157.6481081074949L150.68569248063224,158.1861828700924L151.75438533510479,157.17076262104885L152.82307818957736,154.59419990308757L153.89177104404993,154.60766617609383L154.96046389852253,157.46855026927184L156.0291567529951,157.83719175226062L157.09784960746765,153.5474758413352L158.16654246194022,98.73985315896861L159.2352353164128,93.96767111337735L160.30392817088534,-266.5125695884702L168.8534710066659,-131.11922643179554L169.92216386113847,3.486433144271882L170.99085671561105,128.69388739899415L172.05954957008362,154.4148190544706L173.1282424245562,11.556146951006145L174.19693527902876,154.99398176582974L175.26562813350134,155.98760216743668L176.3343209879739,155.2312570443121L177.40301384244646,155.02839833616352L178.47170669691903,155.3164997574775L179.5403995513916,153.1093851432203L180.60909240586415,153.03808318583486L181.67778526033672,154.82641252568914L182.74647811480932,154.40233563863842L183.8151709692819,154.95402429110516L184.88386382375447,155.49244550144223L185.952556678227,154.45205465499805L187.02124953269958,155.69177797412013L188.08994238717216,156.35207874607843L189.1586352416447,154.46974156524857L190.22732809611728,155.5091804335563L191.29602095058985,153.72000455618195L192.36471380506245,154.89819197843727L193.43340665953502,155.55602995885585L194.50209951400757,154.81325052417583L195.57079236848014,155.47339539465136L196.63948522295271,154.77573851860402L197.70817807742526,156.50527793650093L198.77687093189783,154.5580149429876L199.8455637863704,155.96548750444543L200.91425664084298,156.02338344060533L201.98294949531555,156.4736013158985L203.05164234978812,154.6426423348417L204.1203352042607,155.82390485735903L205.18902805873327,155.96592282356164L206.25772091320582,145.1374343696993L207.3264137676784,157.1121150439236L208.39510662215096,156.5982863510627L209.46379947662354,156.2147574061883L210.5324923310961,156.0024429341922L211.60118518556868,156.42008342476018L212.66987804004125,157.1489236099547L213.73857089451383,154.93216268559323L214.80726374898637,156.95256606895325L215.87595660345895,157.32752495115773L216.94464945793152,152.8604586766279L218.01334231240406,157.97086070451405L219.08203516687664,156.79412346730763L220.15072802134924,157.42400386829294L221.2194208758218,157.43454868307825L222.28811373029438,156.9866151034242L223.35680658476693,157.74284424187078L224.4254994392395,156.31745280080642L225.49419229371208,157.30169350643908L226.56288514818462,157.36293642902177L227.6315780026572,157.85170188736907L228.70027085712977,158.14259409585443L229.76896371160237,153.79099998263263L230.83765656607494,155.14968517089125L231.90634942054749,146.6420297891995L232.97504227502006,155.8781947244387L234.04373512949263,157.5824494825276L235.11242798396518,156.77641396263928L236.18112083843775,154.5766169271589L237.24981369291032,156.66584215397756L238.3185065473829,158.01010494878355L239.38719940185547,158.12870116492545L240.45589225632804,156.35378462462202L241.52458511080061,158.01491115802233L242.5932779652732,98.7527470400574L243.66197081974573,157.7194657977775L244.7306636742183,156.94523869926206L245.79935652869088,157.4529217104825L246.86804938316345,157.26835243039235L247.93674223763603,157.7399453780676L249.0054350921086,158.1924223185667L250.07412794658117,156.83556012325056L251.14282080105374,158.6211630700241L252.2115136555263,157.2902343708803L253.28020650999886,158.18647019577205L254.34889936447144,157.34926981884436L255.41759221894398,154.9506953802166L256.4862850734166,155.6891728377483L257.5549779278892,157.92891981648066L258.6236707823617,157.22307246398236L259.6923636368343,158.82557627411703L260.7610564913069,157.66336611783237L261.8297493457794,158.7196141032593L262.89844220025196,156.73321870784457L263.96713505472457,157.4934568491554L265.0358279091971,156.65417364348056L266.10452076366965,157.78868982187294L267.17321361814226,158.10815455452922L268.24190647261486,158.14692808176127L269.3105993270874,157.61901101625747L270.37929218155995,157.3591368010958L271.44798503603255,156.6506948562873L272.5166778905051,158.63686091836135L273.5853707449777,157.7752077327742L274.65406359945024,156.7978033448193L275.7227564539228,157.45268371594838L276.7914493083954,156.83127245590018L277.860142162868,153.243085351085L278.92883501734053,156.75341209217592L279.9975278718131,158.04973555759733L281.0662207262857,157.42468094767955L282.1349135807582,157.69762904612514L283.20360643523077,154.89848947160493L284.27229928970337,157.3636059769358L285.34099214417597,156.8688326628966L286.4096849986485,158.98600530166053L287.47837785312106,158.34766178491617L288.54707070759366,156.63864224068774" fill="none"></path></g><g><path style="fill: none;" stroke="rgb(0, 119, 187)" stroke-width="2px" d="M277.860142162868,154.83713207063872Z" fill="none"></path></g></g></g></g></g></g><g transform="translate(30, 176)" clip-path="url(#clip_1)"><clipPath id="clip_1"><rect width="299" height="23"></rect></clipPath><g><g><line x1="0" y1="0" x2="0" y2="5" style="visibility: inherit;" fill="rgb(0, 0, 0)" stroke="rgb(204, 204, 204)" stroke-width="1px"></line><line x1="21.37385708945138" y1="0" x2="21.37385708945138" y2="5" style="visibility: inherit;" fill="rgb(0, 0, 0)" stroke="rgb(204, 204, 204)" stroke-width="1px"></line><line x1="42.74771417890276" y1="0" x2="42.74771417890276" y2="5" style="visibility: inherit;" fill="rgb(0, 0, 0)" stroke="rgb(204, 204, 204)" stroke-width="1px"></line><line x1="64.12157126835415" y1="0" x2="64.12157126835415" y2="5" style="visibility: inherit;" fill="rgb(0, 0, 0)" stroke="rgb(204, 204, 204)" stroke-width="1px"></line><line x1="85.49542835780552" y1="0" x2="85.49542835780552" y2="5" style="visibility: inherit;" fill="rgb(0, 0, 0)" stroke="rgb(204, 204, 204)" stroke-width="1px"></line><line x1="106.86928544725691" y1="0" x2="106.86928544725691" y2="5" style="visibility: inherit;" fill="rgb(0, 0, 0)" stroke="rgb(204, 204, 204)" stroke-width="1px"></line><line x1="128.2431425367083" y1="0" x2="128.2431425367083" y2="5" style="visibility: inherit;" fill="rgb(0, 0, 0)" stroke="rgb(204, 204, 204)" stroke-width="1px"></line><line x1="149.61699962615967" y1="0" x2="149.61699962615967" y2="5" style="visibility: inherit;" fill="rgb(0, 0, 0)" stroke="rgb(204, 204, 204)" stroke-width="1px"></line><line x1="170.99085671561105" y1="0" x2="170.99085671561105" y2="5" style="visibility: inherit;" fill="rgb(0, 0, 0)" stroke="rgb(204, 204, 204)" stroke-width="1px"></line><line x1="192.36471380506245" y1="0" x2="192.36471380506245" y2="5" style="visibility: inherit;" fill="rgb(0, 0, 0)" stroke="rgb(204, 204, 204)" stroke-width="1px"></line><line x1="213.73857089451383" y1="0" x2="213.73857089451383" y2="5" style="visibility: inherit;" fill="rgb(0, 0, 0)" stroke="rgb(204, 204, 204)" stroke-width="1px"></line><line x1="235.11242798396518" y1="0" x2="235.11242798396518" y2="5" style="visibility: inherit;" fill="rgb(0, 0, 0)" stroke="rgb(204, 204, 204)" stroke-width="1px"></line><line x1="256.4862850734166" y1="0" x2="256.4862850734166" y2="5" style="visibility: inherit;" fill="rgb(0, 0, 0)" stroke="rgb(204, 204, 204)" stroke-width="1px"></line><line x1="277.860142162868" y1="0" x2="277.860142162868" y2="5" style="visibility: inherit;" fill="rgb(0, 0, 0)" stroke="rgb(204, 204, 204)" stroke-width="1px"></line><line x1="299.23399925231934" y1="0" x2="299.23399925231934" y2="5" style="visibility: inherit;" fill="rgb(0, 0, 0)" stroke="rgb(204, 204, 204)" stroke-width="1px"></line></g><g transform="translate(0, 8)"><text style="text-anchor: middle; visibility: hidden; font-family: Roboto, sans-serif; font-size: 12px; font-weight: 200;" x="0" y="0" dx="0em" dy="0.95em" fill="rgb(33, 33, 33)" stroke="none" stroke-width="1px">-2k</text><text style="text-anchor: middle; visibility: inherit; font-family: Roboto, sans-serif; font-size: 12px; font-weight: 200;" x="21.37385708945138" y="0" dx="0em" dy="0.95em" fill="rgb(33, 33, 33)" stroke="none" stroke-width="1px">0</text><text style="text-anchor: middle; visibility: hidden; font-family: Roboto, sans-serif; font-size: 12px; font-weight: 200;" x="42.74771417890276" y="0" dx="0em" dy="0.95em" fill="rgb(33, 33, 33)" stroke="none" stroke-width="1px">2k</text><text style="text-anchor: middle; visibility: inherit; font-family: Roboto, sans-serif; font-size: 12px; font-weight: 200;" x="64.12157126835415" y="0" dx="0em" dy="0.95em" fill="rgb(33, 33, 33)" stroke="none" stroke-width="1px">4k</text><text style="text-anchor: middle; visibility: hidden; font-family: Roboto, sans-serif; font-size: 12px; font-weight: 200;" x="85.49542835780552" y="0" dx="0em" dy="0.95em" fill="rgb(33, 33, 33)" stroke="none" stroke-width="1px">6k</text><text style="text-anchor: middle; visibility: inherit; font-family: Roboto, sans-serif; font-size: 12px; font-weight: 200;" x="106.86928544725691" y="0" dx="0em" dy="0.95em" fill="rgb(33, 33, 33)" stroke="none" stroke-width="1px">8k</text><text style="text-anchor: middle; visibility: hidden; font-family: Roboto, sans-serif; font-size: 12px; font-weight: 200;" x="128.2431425367083" y="0" dx="0em" dy="0.95em" fill="rgb(33, 33, 33)" stroke="none" stroke-width="1px">10k</text><text style="text-anchor: middle; visibility: inherit; font-family: Roboto, sans-serif; font-size: 12px; font-weight: 200;" x="149.61699962615967" y="0" dx="0em" dy="0.95em" fill="rgb(33, 33, 33)" stroke="none" stroke-width="1px">12k</text><text style="text-anchor: middle; visibility: hidden; font-family: Roboto, sans-serif; font-size: 12px; font-weight: 200;" x="170.99085671561105" y="0" dx="0em" dy="0.95em" fill="rgb(33, 33, 33)" stroke="none" stroke-width="1px">14k</text><text style="text-anchor: middle; visibility: inherit; font-family: Roboto, sans-serif; font-size: 12px; font-weight: 200;" x="192.36471380506245" y="0" dx="0em" dy="0.95em" fill="rgb(33, 33, 33)" stroke="none" stroke-width="1px">16k</text><text style="text-anchor: middle; visibility: hidden; font-family: Roboto, sans-serif; font-size: 12px; font-weight: 200;" x="213.73857089451383" y="0" dx="0em" dy="0.95em" fill="rgb(33, 33, 33)" stroke="none" stroke-width="1px">18k</text><text style="text-anchor: middle; visibility: inherit; font-family: Roboto, sans-serif; font-size: 12px; font-weight: 200;" x="235.11242798396518" y="0" dx="0em" dy="0.95em" fill="rgb(33, 33, 33)" stroke="none" stroke-width="1px">20k</text><text style="text-anchor: middle; visibility: hidden; font-family: Roboto, sans-serif; font-size: 12px; font-weight: 200;" x="256.4862850734166" y="0" dx="0em" dy="0.95em" fill="rgb(33, 33, 33)" stroke="none" stroke-width="1px">22k</text><text style="text-anchor: middle; visibility: inherit; font-family: Roboto, sans-serif; font-size: 12px; font-weight: 200;" x="277.860142162868" y="0" dx="0em" dy="0.95em" fill="rgb(33, 33, 33)" stroke="none" stroke-width="1px">24k</text><text style="text-anchor: middle; visibility: hidden; font-family: Roboto, sans-serif; font-size: 12px; font-weight: 200;" x="299.23399925231934" y="0" dx="0em" dy="0.95em" fill="rgb(33, 33, 33)" stroke="none" stroke-width="1px">26k</text></g><line x1="0" y1="0" x2="299.23399925231934" y2="0" fill="rgb(0, 0, 0)" stroke="rgb(204, 204, 204)" stroke-width="1px"></line></g></g></g></g></svg>