<svg viewBox="0 0 330 200" xmlns="http://www.w3.org/2000/svg"><g><g><g><g><g><line x1="20.383000373840332" y1="176.89999961853027" x2="15.383000373840332" y2="176.89999961853027" style="visibility: inherit;" fill="rgb(0, 0, 0)" stroke="rgb(204, 204, 204)" stroke-width="1px"></line><line x1="20.383000373840332" y1="154.787499666214" x2="15.383000373840332" y2="154.787499666214" style="visibility: inherit;" fill="rgb(0, 0, 0)" stroke="rgb(204, 204, 204)" stroke-width="1px"></line><line x1="20.383000373840332" y1="132.6749997138977" x2="15.383000373840332" y2="132.6749997138977" style="visibility: inherit;" fill="rgb(0, 0, 0)" stroke="rgb(204, 204, 204)" stroke-width="1px"></line><line x1="20.383000373840332" y1="110.56249976158142" x2="15.383000373840332" y2="110.56249976158142" style="visibility: inherit;" fill="rgb(0, 0, 0)" stroke="rgb(204, 204, 204)" stroke-width="1px"></line><line x1="20.383000373840332" y1="88.44999980926514" x2="15.383000373840332" y2="88.44999980926514" style="visibility: inherit;" fill="rgb(0, 0, 0)" stroke="rgb(204, 204, 204)" stroke-width="1px"></line><line x1="20.383000373840332" y1="66.33749985694885" x2="15.383000373840332" y2="66.33749985694885" style="visibility: inherit;" fill="rgb(0, 0, 0)" stroke="rgb(204, 204, 204)" stroke-width="1px"></line><line x1="20.383000373840332" y1="44.22499990463257" x2="15.383000373840332" y2="44.22499990463257" style="visibility: inherit;" fill="rgb(0, 0, 0)" stroke="rgb(204, 204, 204)" stroke-width="1px"></line><line x1="20.383000373840332" y1="22.112499952316284" x2="15.383000373840332" y2="22.112499952316284" style="visibility: inherit;" fill="rgb(0, 0, 0)" stroke="rgb(204, 204, 204)" stroke-width="1px"></line><line x1="20.383000373840332" y1="0" x2="15.383000373840332" y2="0" style="visibility: inherit;" fill="rgb(0, 0, 0)" stroke="rgb(204, 204, 204)" stroke-width="1px"></line></g><g transform="translate(10.383000373840332, 0)"><text style="text-anchor: end; visibility: hidden; font-family: Roboto, sans-serif; font-size: 12px; font-weight: 200;" x="0" y="176.89999961853027" dx="0em" dy="0.3em" fill="rgb(33, 33, 33)" stroke="none" stroke-width="1px">0</text><text style="text-anchor: end; visibility: inherit; font-family: Roboto, sans-serif; font-size: 12px; font-weight: 200;" x="0" y="154.787499666214" dx="0em" dy="0.3em" fill="rgb(33, 33, 33)" stroke="none" stroke-width="1px">1</text><text style="text-anchor: end; visibility: hidden; font-family: Roboto, sans-serif; font-size: 12px; font-weight: 200;" x="0" y="132.6749997138977" dx="0em" dy="0.3em" fill="rgb(33, 33, 33)" stroke="none" stroke-width="1px">2</text><text style="text-anchor: end; visibility: inherit; font-family: Roboto, sans-serif; font-size: 12px; font-weight: 200;" x="0" y="110.56249976158142" dx="0em" dy="0.3em" fill="rgb(33, 33, 33)" stroke="none" stroke-width="1px">3</text><text style="text-anchor: end; visibility: hidden; font-family: Roboto, sans-serif; font-size: 12px; font-weight: 200;" x="0" y="88.44999980926514" dx="0em" dy="0.3em" fill="rgb(33, 33, 33)" stroke="none" stroke-width="1px">4</text><text style="text-anchor: end; visibility: inherit; font-family: Roboto, sans-serif; font-size: 12px; font-weight: 200;" x="0" y="66.33749985694885" dx="0em" dy="0.3em" fill="rgb(33, 33, 33)" stroke="none" stroke-width="1px">5</text><text style="text-anchor: end; visibility: hidden; font-family: Roboto, sans-serif; font-size: 12px; font-weight: 200;" x="0" y="44.22499990463257" dx="0em" dy="0.3em" fill="rgb(33, 33, 33)" stroke="none" stroke-width="1px">6</text><text style="text-anchor: end; visibility: inherit; font-family: Roboto, sans-serif; font-size: 12px; font-weight: 200;" x="0" y="22.112499952316284" dx="0em" dy="0.3em" fill="rgb(33, 33, 33)" stroke="none" stroke-width="1px">7</text><text style="text-anchor: end; visibility: hidden; font-family: Roboto, sans-serif; font-size: 12px; font-weight: 200;" x="0" y="0" dx="0em" dy="0.3em" fill="rgb(33, 33, 33)" stroke="none" stroke-width="1px">8</text></g><line x1="20.383000373840332" y1="0" x2="20.383000373840332" y2="176.89999961853027" fill="rgb(0, 0, 0)" stroke="rgb(204, 204, 204)" stroke-width="1px"></line></g></g><g transform="translate(20, 0)" clip-path="url(#clip_0)"><clipPath id="clip_0"><rect width="309" height="176"></rect></clipPath><g><g><g><line x1="0" y1="0" x2="0" y2="176.89999961853027" fill="rgb(0, 0, 0)" stroke="rgb(66, 66, 66)" stroke-width="1px" opacity="0.25"></line><line x1="22.11549997329712" y1="0" x2="22.11549997329712" y2="176.89999961853027" fill="rgb(0, 0, 0)" stroke="rgb(66, 66, 66)" stroke-width="1px" opacity="0.25"></line><line x1="44.23099994659424" y1="0" x2="44.23099994659424" y2="176.89999961853027" fill="rgb(0, 0, 0)" stroke="rgb(66, 66, 66)" stroke-width="1px" opacity="0.25"></line><line x1="66.34649991989136" y1="0" x2="66.34649991989136" y2="176.89999961853027" fill="rgb(0, 0, 0)" stroke="rgb(66, 66, 66)" stroke-width="1px" opacity="0.25"></line><line x1="88.46199989318848" y1="0" x2="88.46199989318848" y2="176.89999961853027" fill="rgb(0, 0, 0)" stroke="rgb(66, 66, 66)" stroke-width="1px" opacity="0.25"></line><line x1="110.5774998664856" y1="0" x2="110.5774998664856" y2="176.89999961853027" fill="rgb(0, 0, 0)" stroke="rgb(66, 66, 66)" stroke-width="1px" opacity="0.25"></line><line x1="132.69299983978271" y1="0" x2="132.69299983978271" y2="176.89999961853027" fill="rgb(0, 0, 0)" stroke="rgb(66, 66, 66)" stroke-width="1px" opacity="0.25"></line><line x1="154.80849981307983" y1="0" x2="154.80849981307983" y2="176.89999961853027" fill="rgb(0, 0, 0)" stroke="rgb(66, 66, 66)" stroke-width="1px" opacity="0.25"></line><line x1="176.92399978637695" y1="0" x2="176.92399978637695" y2="176.89999961853027" fill="rgb(0, 0, 0)" stroke="rgb(66, 66, 66)" stroke-width="1px" opacity="0.25"></line><line x1="199.0394997596741" y1="0" x2="199.0394997596741" y2="176.89999961853027" fill="rgb(0, 0, 0)" stroke="rgb(66, 66, 66)" stroke-width="1px" opacity="0.25"></line><line x1="221.1549997329712" y1="0" x2="221.1549997329712" y2="176.89999961853027" fill="rgb(0, 0, 0)" stroke="rgb(66, 66, 66)" stroke-width="1px" opacity="0.25"></line><line x1="243.2704997062683" y1="0" x2="243.2704997062683" y2="176.89999961853027" fill="rgb(0, 0, 0)" stroke="rgb(66, 66, 66)" stroke-width="1px" opacity="0.25"></line><line x1="265.38599967956543" y1="0" x2="265.38599967956543" y2="176.89999961853027" fill="rgb(0, 0, 0)" stroke="rgb(66, 66, 66)" stroke-width="1px" opacity="0.25"></line><line x1="287.50149965286255" y1="0" x2="287.50149965286255" y2="176.89999961853027" fill="rgb(0, 0, 0)" stroke="rgb(66, 66, 66)" stroke-width="1px" opacity="0.25"></line><line x1="309.61699962615967" y1="0" x2="309.61699962615967" y2="176.89999961853027" fill="rgb(0, 0, 0)" stroke="rgb(66, 66, 66)" stroke-width="1px" opacity="0.25"></line></g><g><line x1="0" y1="176.89999961853027" x2="309.61699962615967" y2="176.89999961853027" fill="rgb(0, 0, 0)" stroke="rgb(66, 66, 66)" stroke-width="1px" opacity="0.25"></line><line x1="0" y1="154.787499666214" x2="309.61699962615967" y2="154.787499666214" fill="rgb(0, 0, 0)" stroke="rgb(66, 66, 66)" stroke-width="1px" opacity="0.25"></line><line x1="0" y1="132.6749997138977" x2="309.61699962615967" y2="132.6749997138977" fill="rgb(0, 0, 0)" stroke="rgb(66, 66, 66)" stroke-width="1px" opacity="0.25"></line><line x1="0" y1="110.56249976158142" x2="309.61699962615967" y2="110.56249976158142" fill="rgb(0, 0, 0)" stroke="rgb(66, 66, 66)" stroke-width="1px" opacity="0.25"></line><line x1="0" y1="88.44999980926514" x2="309.61699962615967" y2="88.44999980926514" fill="rgb(0, 0, 0)" stroke="rgb(66, 66, 66)" stroke-width="1px" opacity="0.25"></line><line x1="0" y1="66.33749985694885" x2="309.61699962615967" y2="66.33749985694885" fill="rgb(0, 0, 0)" stroke="rgb(66, 66, 66)" stroke-width="1px" opacity="0.25"></line><line x1="0" y1="44.22499990463257" x2="309.61699962615967" y2="44.22499990463257" fill="rgb(0, 0, 0)" stroke="rgb(66, 66, 66)" stroke-width="1px" opacity="0.25"></line><line x1="0" y1="22.112499952316284" x2="309.61699962615967" y2="22.112499952316284" fill="rgb(0, 0, 0)" stroke="rgb(66, 66, 66)" stroke-width="1px" opacity="0.25"></line><line x1="0" y1="0" x2="309.61699962615967" y2="0" fill="rgb(0, 0, 0)" stroke="rgb(66, 66, 66)" stroke-width="1px" opacity="0.25"></line></g></g></g><g><g><line x1="0" y1="176.89999961853027" x2="309.61699962615967" y2="176.89999961853027" fill="rgb(0, 0, 0)" stroke="rgb(153, 153, 153)" stroke-width="1.5px"></line></g></g><g><g><line x1="22.11549997329712" y1="0" x2="22.11549997329712" y2="176.89999961853027" fill="rgb(0, 0, 0)" stroke="rgb(153, 153, 153)" stroke-width="1.5px"></line></g></g><g><g><g><g><g><path style="fill: none;" stroke="rgb(255, 112, 67)" stroke-width="2px" d="M23.221274971961975,166.2677843531763L24.32704997062683,65.7220014618944L25.432824969291687,36.26677760695677L26.538599967956543,24.435447421733688L27.6443749666214,18.57031038659204L28.750149965286255,14.88931492023673L29.85592496395111,-4.658762023663094L39.80789995193481,-4.168746322019786L40.91367495059967,0.14150309504450406L42.019449949264526,4.53419547035837L43.12522494792938,9.120666809002712L44.23099994659424,13.83494120312409L45.336774945259094,18.583793858739103L46.44254994392395,23.313234203883614L47.548324942588806,24.453740488930816L48.65409994125366,25.678942985294544L49.759874939918525,28.258833948406757L50.865649938583374,31.62398956135351L51.97142493724822,35.36990730289967L53.077199935913086,39.25942839221884L54.18297493457794,43.243412300294054L55.2887499332428,47.20599334308692L56.394524931907654,51.095252160921056L57.50029993057251,54.92818545858523L58.606074929237366,58.67542987511584L59.71184992790222,62.31947280140469L60.81762492656708,65.85367843072218L61.923399925231934,69.28152624441545L63.02917492389679,72.61156532466461L64.13494992256165,75.81056581990497L65.2407249212265,78.81893992735014L66.34649991989136,81.73565854850841L67.45227491855621,84.60017172899371L68.55804991722107,87.37697411288757L69.66382491588593,90.0709328473871L70.76959991455078,92.68909727517939L71.87537491321564,95.23600277956544L72.9811499118805,97.70176832799855L74.08692491054535,100.05497819512661L75.1926999092102,102.3543408455071L76.29847490787506,104.58653017164158L77.40424990653992,106.75281030395568L78.51002490520477,107.16863806402776L79.61579990386961,108.2234796039231L80.72157490253448,109.61818243714562L81.82734990119934,111.04524805470113L82.9331248998642,112.66193147700561L84.03889989852905,114.31770621120204L85.14467489719391,116.0167037392928L86.25044989585876,117.71823134450844L87.35622489452362,119.384978009404L88.46199989318848,121.02345207002533L89.56777489185335,122.58013978594387L90.67354989051819,124.11122044981002L91.77932488918304,125.54172610272316L92.8850998878479,126.9575509712065L93.99087488651274,128.29807018990553L95.09664988517761,129.62647641365555L96.20242488384247,130.92725320300693L97.30819988250732,132.19819528302162L98.41397488117218,133.4318164847094L99.51974987983705,134.16644830133126L100.62552487850189,135.06123676053318L101.73129987716675,136.04432819813871L102.8370748758316,136.85073172659304L103.94284987449645,137.75431501257083L105.04862487316132,138.67706026982532L106.15439987182617,139.62403466427372L107.26017487049103,140.56958177731235L108.36594986915588,141.50267299929712L109.47172486782074,142.40634533116236L110.5774998664856,143.28778493417414L111.68327486515045,144.14889945903866L112.78904986381531,144.9341222606595L113.89482486248018,145.6288954889746L115.00059986114502,146.3464570845693L116.10637485980988,147.0418492718056L117.21214985847473,147.7446504598963L118.31792485713957,148.4487633533808L119.42369985580444,149.1422451057538L120.5294748544693,149.81856054399796L121.63524985313416,150.47925460585614L122.74102485179901,151.12061381244715L123.84679985046387,151.74292905276752L124.95257484912872,152.34312728923075L126.05834984779358,152.92119198516676L127.16412484645844,153.23738026995275L128.2698998451233,153.52516250371352L129.37567484378815,153.8567529953845L130.481449842453,154.19793719222864L131.58722484111786,154.58627412537064L132.69299983978271,155.00386115549426L133.79877483844757,155.42464672151135L134.90454983711243,155.8596811075409L136.01032483577728,156.28609430840353L137.11609983444214,156.70844192463798L138.221874833107,157.1269262145713L139.32764983177185,157.53110074742304L140.4334248304367,157.92270060750815L141.53919982910156,158.28262505167154L142.64497482776642,158.64867390838387L143.75074982643127,159.01214109365256L144.85652482509613,159.36918844678146L145.962299823761,159.7180328935915L147.06807482242584,160.0570172853421L148.1738498210907,160.38401964539662L149.27962481975555,160.69722060538032L150.3853998184204,161.0023890379731L151.49117481708527,161.29209003348618L152.59694981575012,161.55431784280114L153.70272481441498,161.80713786016256L154.80849981307983,162.05677998557204L155.9142748117447,162.3065271827709L157.02004981040955,162.55082709643136L158.1258248090744,162.79321144307693L159.23159980773923,163.01783797082442L160.33737480640414,163.2396825308551L161.44314980506897,163.45976459531022L162.54892480373383,163.56833958955855L163.65469980239868,163.56719776101082L164.76047480106354,163.09157596831733L165.8662497997284,160.57933028854364L166.97202479839325,121.78507517525257L168.0777997970581,107.19317643406261L169.18357479572293,105.40128910123194L170.28934979438782,109.6712452148257L171.39512479305267,117.12585327613704L172.50089979171753,125.96674764955058L173.60667479038239,134.6809912939197L174.71244978904724,142.736376154355L175.8182247877121,145.5408832175882L176.92399978637695,116.79933656913002L178.0297747850418,100.15385957230033L179.1355497837067,89.37619051381586L180.24132478237152,83.49462844752357L181.34709978103638,80.43859237221378L182.45287477970123,79.16688485984177L183.5586497783661,78.94519669453965L184.66442477703094,79.33856444045206L185.7701997756958,80.09130737263278L186.87597477436066,81.01606939526422L187.98174977302548,82.05278600807638L189.0875247716904,83.14188838295578L190.19329977035522,84.24879928743918L191.29907476902008,85.3544299085382L192.40484976768494,86.44402455835466L193.5106247663498,87.49214823281777L194.61639976501465,88.51231467369523L195.7221747636795,89.51416101498518L196.82794976234436,90.49629957517259L197.9337247610092,91.45207320569966L199.0394997596741,92.38415357319926L200.14527475833893,93.28978687138223L201.25104975700378,94.16842372532248L202.35682475566864,95.02073197829526L203.4625997543335,95.8482721830459L204.56837475299835,96.65372255020425L205.6741497516632,97.43498904051327L206.77992475032806,98.19162501435245L207.8856997489929,98.92522456923489L208.99147474765778,99.6361157375947L210.09724974632263,100.32551811287131L211.2030247449875,100.99422460668585L212.30879974365234,101.64123690619402L213.4145747423172,102.17205061074094L214.52034974098206,102.61271920210594L215.6261247396469,103.09868272412483L216.73189973831177,103.60920195081285L217.83767473697665,104.12853305528645L218.94344973564148,104.64418039878976L220.04922473430634,105.1528895284724L221.1549997329712,105.53226295653293L222.26077473163605,105.94087583138601L223.3665497303009,106.36288012284157L224.47232472896576,106.7882187215804L225.57809972763062,107.21289025709476L226.68387472629544,107.63070858895196L227.78964972496036,108.03912820610954L228.89542472362518,108.43600181111778L230.00119972229004,108.82101529680209L231.1069747209549,109.19476889466831L232.21274971961975,109.55368348219199L233.3185247182846,109.90194645809053L234.42429971694946,110.23811412966782L235.53007471561432,110.5635514047488L236.63584971427915,110.87780350538252L237.74162471294406,111.17531288110551L238.8473997116089,111.46440251618662L239.95317471027374,111.73563348961707L241.0589497089386,112.00051239876292L242.16472470760345,112.25733292131022L243.2704997062683,112.5053918033444L244.37627470493317,112.7439254649196L245.48204970359802,112.97303670214752L246.58782470226285,113.19296222411832L247.69359970092773,113.4032788945823L248.7993746995926,113.60379187853484L249.90514969825745,113.79572126198882L251.0109246969223,113.97963460919048L252.11669969558716,114.15372779655034L253.222474694252,114.32079434697287L254.32824969291687,114.48023496569927L255.43402469158173,114.63245979237384L256.5397996902466,114.7772994747546L257.64557468891144,114.91488437085239L258.7513496875763,115.04546140045997L259.85712468624115,115.16930524419261L260.962899684906,115.28664819241398L262.06867468357086,115.3974187381095L263.1744496822357,115.50196410735106L264.2802246809006,115.59897429090586L265.38599967956543,115.6913832281802L266.4917746782303,115.77813812717275L267.59754967689514,115.85935383224675L268.70332467556,115.93533121937615L269.80909967422485,116.00624448770834L270.9148746728897,116.07223611535363L272.02064967155457,116.13349070335765L273.1264246702194,116.190146426908L274.2321996688843,116.24241271985693L275.33797466754913,116.29020225247065L276.443749666214,116.33410159704422L277.54952466487885,116.37424548928486L278.6552996635437,116.41075694686349L279.76107466220856,116.4438194386237L280.8668496608734,116.47350719606209L281.97262465953827,116.49993013125872L283.0783996582031,116.52347051331083L284.184174656868,116.54406668757552L285.28994965553284,116.56214559997912L286.3957246541977,116.57786219508571L287.50149965286255,116.59131998369541L288.6072746515274,116.60272025390186L289.71304965019226,116.61222384599549L290.8188246488571,116.62000950783136L291.924599647522,116.62623720843065L293.03037464618683,116.63110204338548L294.1361496448517,116.63479066085796L295.24192464351654,116.63747198767818L296.3476996421814,116.63934860293593L297.45347464084625,116.64048722496453L298.5592496395111,116.6411703981817" fill="none"></path></g><g><path style="fill: none;" stroke="rgb(0, 119, 187)" stroke-width="2px" d="M287.50149965286255,116.61159101910306Z" fill="none"></path></g></g></g></g><g opacity="0.2"><g><g><g><path style="fill: none;" stroke="rgb(255, 112, 67)" stroke-width="2px" d="M23.221274971961975,166.2677843531763L24.32704997062683,5.394531727125241L25.432824969291687,7.989762706216652L26.538599967956543,10.521803123911354L27.6443749666214,10.912787473511116L28.750149965286255,9.797173031899433L29.85592496395111,-32.61282482267097L38.70212495326996,-2.329288656457038L39.80789995193481,2.323826832528539L40.91367495059967,6.605053267540825L42.019449949264526,11.12211872921091L43.12522494792938,15.999675114223578L44.23099994659424,20.905921890953323L45.336774945259094,25.70681240379588L46.44254994392395,30.407239097351294L47.548324942588806,26.16447739919454L48.65409994125366,27.51673221614851L49.759874939918525,32.12865205631431L50.865649938583374,36.671708629922136L51.97142493724822,40.988774330442084L53.077199935913086,45.09370405486652L54.18297493457794,49.2193844925946L55.2887499332428,53.14986271721784L56.394524931907654,56.92913909795175L57.50029993057251,60.677584642456054L58.606074929237366,64.29629605256605L59.71184992790222,67.78553692982268L60.81762492656708,71.15498672280967L61.923399925231934,74.42329787656467L63.02917492389679,77.60662389351717L64.13494992256165,80.60906653306927L65.2407249212265,83.33150107176186L66.34649991989136,86.11073647049852L67.45227491855621,88.89694149397792L68.55804991722107,91.54217768538768L69.66382491588593,94.11187094719179L70.76959991455078,96.61634391573386L71.87537491321564,99.05636103548267L72.9811499118805,101.40041665026376L74.08692491054535,103.58479299559855L75.1926999092102,105.80338482094874L76.29847490787506,107.93481416076816L77.40424990653992,110.0022305023831L78.51002490520477,107.79237970413084L79.61579990386961,109.80574191375842L80.72157490253448,111.71023668697336L81.82734990119934,113.18584648103064L82.9331248998642,115.08695661045977L84.03889989852905,116.80136831249513L85.14467489719391,118.56520003142793L86.25044989585876,120.27052275233132L87.35622489452362,121.885098006747L88.46199989318848,123.48116316095712L89.56777489185335,124.91517135982156L90.67354989051819,126.40784144560917L91.77932488918304,127.68748458209285L92.8850998878479,129.08128827393148L93.99087488651274,130.30884901795412L95.09664988517761,131.61908574928054L96.20242488384247,132.87841838703397L97.30819988250732,134.10460840304367L98.41397488117218,135.28224828724106L99.51974987983705,135.2683960262641L100.62552487850189,136.40341944933598L101.73129987716675,137.51896535454702L102.8370748758316,138.06033701927458L103.94284987449645,139.10968994153748L105.04862487316132,140.061178155707L106.15439987182617,141.04449625594634L107.26017487049103,141.98790244687032L108.36594986915588,142.9023098322743L109.47172486782074,143.76185382896023L110.5774998664856,144.60994433869183L111.68327486515045,145.44057124633545L112.78904986381531,146.11195646309073L113.89482486248018,146.67105533144723L115.00059986114502,147.42279947796135L116.10637485980988,148.08493755266008L117.21214985847473,148.79885224203235L118.31792485713957,149.50493269360757L119.42369985580444,150.18246773431324L120.5294748544693,150.83303370136423L121.63524985313416,151.47029569864344L122.74102485179901,152.08265262233363L123.84679985046387,152.6764019132481L124.95257484912872,153.24342464392558L126.05834984779358,153.78828902907074L127.16412484645844,153.71166269713177L128.2698998451233,153.95683585435464L129.37567484378815,154.354138732891L130.481449842453,154.70971348749484L131.58722484111786,155.16877952508366L132.69299983978271,155.6302417006797L133.79877483844757,156.05582507053697L134.90454983711243,156.51223268658526L136.01032483577728,156.92571410969748L137.11609983444214,157.34196334898968L138.221874833107,157.75465264947132L139.32764983177185,158.13736254670061L140.4334248304367,158.51010039763577L141.53919982910156,158.82251171791665L142.64497482776642,159.1977471934523L143.75074982643127,159.55734187155565L144.85652482509613,159.9047594764748L145.962299823761,160.2412995638066L147.06807482242584,160.56549387296798L148.1738498210907,160.87452318547844L149.27962481975555,161.1670220453559L150.3853998184204,161.4601416868623L151.49117481708527,161.72664152675577L152.59694981575012,161.9476595567736L153.70272481441498,162.18636788620466L154.80849981307983,162.43124317368625L155.9142748117447,162.6811479785692L157.02004981040955,162.91727696692203L158.1258248090744,163.15678796304528L159.23159980773923,163.35477776244568L160.33737480640414,163.57244937090115L161.44314980506897,163.78988769199287L162.54892480373383,163.731202080931L163.65469980239868,163.56548501818924L164.76047480106354,162.37814327927714L165.8662497997284,156.8109617688831L166.97202479839325,63.59369250531597L168.0777997970581,85.30532832227766L169.18357479572293,102.7134581019859L170.28934979438782,116.07617938521639L171.39512479305267,128.30776536810401L172.50089979171753,139.2280892096709L173.60667479038239,147.75235676047336L174.71244978904724,154.81945344500804L175.8182247877121,149.74764381243796L176.92399978637695,73.68701659644273L178.0297747850418,75.18564407705583L179.1355497837067,73.20968692608915L180.24132478237152,74.6722853480851L181.34709978103638,75.85453825924913L182.45287477970123,77.25932359128376L183.5586497783661,78.61266444658645L184.66442477703094,79.92861605932069L185.7701997756958,81.22042177090384L186.87597477436066,82.40321242921141L187.98174977302548,83.60786092729461L189.0875247716904,84.77554194527488L190.19329977035522,85.90916564416432L191.29907476902008,87.01287584018667L192.40484976768494,88.07841653307935L193.5106247663498,89.06433374451245L194.61639976501465,90.04256433501143L195.7221747636795,91.01693052692008L196.82794976234436,91.96950741545373L197.9337247610092,92.88573365149028L199.0394997596741,93.78227412444863L200.14527475833893,94.6482368186567L201.25104975700378,95.48637900623282L202.35682475566864,96.2991943577544L203.4625997543335,97.08958249017189L204.56837475299835,97.8618981009418L205.6741497516632,98.60688877597676L206.77992475032806,99.32657897511126L207.8856997489929,100.0256239015585L208.99147474765778,100.70245249013442L210.09724974632263,101.35962167578623L211.2030247449875,101.99728434740769L212.30879974365234,102.6117553554563L213.4145747423172,102.96827116756134L214.52034974098206,103.27372208915341L215.6261247396469,103.82762800715318L216.73189973831177,104.37498079084492L217.83767473697665,104.90752971199686L218.94344973564148,105.41765141404471L220.04922473430634,105.91595322299634L221.1549997329712,106.10132309862371L222.26077473163605,106.55379514366564L223.3665497303009,106.99588656002493L224.47232472896576,107.42622661968863L225.57809972763062,107.84989756036629L226.68387472629544,108.25743608673775L227.78964972496036,108.65175763184595L228.89542472362518,109.03131221863009L230.00119972229004,109.39853552532855L231.1069747209549,109.75539929146765L232.21274971961975,110.09205536347747L233.3185247182846,110.42434092193832L234.42429971694946,110.74236563703374L235.53007471561432,111.05170731737024L236.63584971427915,111.34918165633314L237.74162471294406,111.62157694468999L238.8473997116089,111.8980369688083L239.95317471027374,112.14247994976273L241.0589497089386,112.3978307624817L242.16472470760345,112.64256370513118L243.2704997062683,112.87748012639565L244.37627470493317,113.10172595728244L245.48204970359802,113.3167035579894L246.58782470226285,113.52285050707451L247.69359970092773,113.71875390027827L248.7993746995926,113.90456135446362L249.90514969825745,114.08361533716982L251.0109246969223,114.25550462999297L252.11669969558716,114.41486757759014L253.222474694252,114.57139417260669L254.32824969291687,114.71939589378889L255.43402469158173,114.86079703238568L256.5397996902466,114.99455899832572L257.64557468891144,115.1212617149991L258.7513496875763,115.24132694487133L259.85712468624115,115.35507100979157L260.962899684906,115.46266261474602L262.06867468357086,115.56357455665278L263.1744496822357,115.65878216121337L264.2802246809006,115.74448956623809L265.38599967956543,115.82999663409169L266.4917746782303,115.9082704756616L267.59754967689514,115.98117738985775L268.70332467556,116.04929730007024L269.80909967422485,116.1126143902066L270.9148746728897,116.17122355682159L272.02064967155457,116.22537258536369L273.1264246702194,116.27513001223355L274.2321996688843,116.32081215928031L275.33797466754913,116.36188655139125L276.443749666214,116.39995061390454L277.54952466487885,116.4344613276458L278.6552996635437,116.46552413323144L279.76107466220856,116.49341317626403L280.8668496608734,116.51803883221964L281.97262465953827,116.53956453405368L283.0783996582031,116.55878108638899L284.184174656868,116.57496094897255L285.28994965553284,116.58926396858453L286.3957246541977,116.60143708774564L287.50149965286255,116.61150666660996L288.6072746515274,116.61982065921154L289.71304965019226,116.62647923413596L290.8188246488571,116.63168800058514L291.924599647522,116.63557875932958L293.03037464618683,116.63839929581775L294.1361496448517,116.64032358706669L295.24192464351654,116.64149397790851L296.3476996421814,116.64216352582253L297.45347464084625,116.64219515800744L298.5592496395111,116.64219515800744" fill="none"></path></g><g><path style="fill: none;" stroke="rgb(0, 119, 187)" stroke-width="2px" d="M287.50149965286255,116.61159101910306Z" fill="none"></path></g></g></g></g></g></g><g transform="translate(20, 176)" clip-path="url(#clip_1)"><clipPath id="clip_1"><rect width="309" height="23"></rect></clipPath><g><g><line x1="0" y1="0" x2="0" y2="5" style="visibility: inherit;" fill="rgb(0, 0, 0)" stroke="rgb(204, 204, 204)" stroke-width="1px"></line><line x1="22.11549997329712" y1="0" x2="22.11549997329712" y2="5" style="visibility: inherit;" fill="rgb(0, 0, 0)" stroke="rgb(204, 204, 204)" stroke-width="1px"></line><line x1="44.23099994659424" y1="0" x2="44.23099994659424" y2="5" style="visibility: inherit;" fill="rgb(0, 0, 0)" stroke="rgb(204, 204, 204)" stroke-width="1px"></line><line x1="66.34649991989136" y1="0" x2="66.34649991989136" y2="5" style="visibility: inherit;" fill="rgb(0, 0, 0)" stroke="rgb(204, 204, 204)" stroke-width="1px"></line><line x1="88.46199989318848" y1="0" x2="88.46199989318848" y2="5" style="visibility: inherit;" fill="rgb(0, 0, 0)" stroke="rgb(204, 204, 204)" stroke-width="1px"></line><line x1="110.5774998664856" y1="0" x2="110.5774998664856" y2="5" style="visibility: inherit;" fill="rgb(0, 0, 0)" stroke="rgb(204, 204, 204)" stroke-width="1px"></line><line x1="132.69299983978271" y1="0" x2="132.69299983978271" y2="5" style="visibility: inherit;" fill="rgb(0, 0, 0)" stroke="rgb(204, 204, 204)" stroke-width="1px"></line><line x1="154.80849981307983" y1="0" x2="154.80849981307983" y2="5" style="visibility: inherit;" fill="rgb(0, 0, 0)" stroke="rgb(204, 204, 204)" stroke-width="1px"></line><line x1="176.92399978637695" y1="0" x2="176.92399978637695" y2="5" style="visibility: inherit;" fill="rgb(0, 0, 0)" stroke="rgb(204, 204, 204)" stroke-width="1px"></line><line x1="199.0394997596741" y1="0" x2="199.0394997596741" y2="5" style="visibility: inherit;" fill="rgb(0, 0, 0)" stroke="rgb(204, 204, 204)" stroke-width="1px"></line><line x1="221.1549997329712" y1="0" x2="221.1549997329712" y2="5" style="visibility: inherit;" fill="rgb(0, 0, 0)" stroke="rgb(204, 204, 204)" stroke-width="1px"></line><line x1="243.2704997062683" y1="0" x2="243.2704997062683" y2="5" style="visibility: inherit;" fill="rgb(0, 0, 0)" stroke="rgb(204, 204, 204)" stroke-width="1px"></line><line x1="265.38599967956543" y1="0" x2="265.38599967956543" y2="5" style="visibility: inherit;" fill="rgb(0, 0, 0)" stroke="rgb(204, 204, 204)" stroke-width="1px"></line><line x1="287.50149965286255" y1="0" x2="287.50149965286255" y2="5" style="visibility: inherit;" fill="rgb(0, 0, 0)" stroke="rgb(204, 204, 204)" stroke-width="1px"></line><line x1="309.61699962615967" y1="0" x2="309.61699962615967" y2="5" style="visibility: inherit;" fill="rgb(0, 0, 0)" stroke="rgb(204, 204, 204)" stroke-width="1px"></line></g><g transform="translate(0, 8)"><text style="text-anchor: middle; visibility: hidden; font-family: Roboto, sans-serif; font-size: 12px; font-weight: 200;" x="0" y="0" dx="0em" dy="0.95em" fill="rgb(33, 33, 33)" stroke="none" stroke-width="1px">-2k</text><text style="text-anchor: middle; visibility: inherit; font-family: Roboto, sans-serif; font-size: 12px; font-weight: 200;" x="22.11549997329712" y="0" dx="0em" dy="0.95em" fill="rgb(33, 33, 33)" stroke="none" stroke-width="1px">0</text><text style="text-anchor: middle; visibility: hidden; font-family: Roboto, sans-serif; font-size: 12px; font-weight: 200;" x="44.23099994659424" y="0" dx="0em" dy="0.95em" fill="rgb(33, 33, 33)" stroke="none" stroke-width="1px">2k</text><text style="text-anchor: middle; visibility: inherit; font-family: Roboto, sans-serif; font-size: 12px; font-weight: 200;" x="66.34649991989136" y="0" dx="0em" dy="0.95em" fill="rgb(33, 33, 33)" stroke="none" stroke-width="1px">4k</text><text style="text-anchor: middle; visibility: hidden; font-family: Roboto, sans-serif; font-size: 12px; font-weight: 200;" x="88.46199989318848" y="0" dx="0em" dy="0.95em" fill="rgb(33, 33, 33)" stroke="none" stroke-width="1px">6k</text><text style="text-anchor: middle; visibility: inherit; font-family: Roboto, sans-serif; font-size: 12px; font-weight: 200;" x="110.5774998664856" y="0" dx="0em" dy="0.95em" fill="rgb(33, 33, 33)" stroke="none" stroke-width="1px">8k</text><text style="text-anchor: middle; visibility: hidden; font-family: Roboto, sans-serif; font-size: 12px; font-weight: 200;" x="132.69299983978271" y="0" dx="0em" dy="0.95em" fill="rgb(33, 33, 33)" stroke="none" stroke-width="1px">10k</text><text style="text-anchor: middle; visibility: inherit; font-family: Roboto, sans-serif; font-size: 12px; font-weight: 200;" x="154.80849981307983" y="0" dx="0em" dy="0.95em" fill="rgb(33, 33, 33)" stroke="none" stroke-width="1px">12k</text><text style="text-anchor: middle; visibility: hidden; font-family: Roboto, sans-serif; font-size: 12px; font-weight: 200;" x="176.92399978637695" y="0" dx="0em" dy="0.95em" fill="rgb(33, 33, 33)" stroke="none" stroke-width="1px">14k</text><text style="text-anchor: middle; visibility: inherit; font-family: Roboto, sans-serif; font-size: 12px; font-weight: 200;" x="199.0394997596741" y="0" dx="0em" dy="0.95em" fill="rgb(33, 33, 33)" stroke="none" stroke-width="1px">16k</text><text style="text-anchor: middle; visibility: hidden; font-family: Roboto, sans-serif; font-size: 12px; font-weight: 200;" x="221.1549997329712" y="0" dx="0em" dy="0.95em" fill="rgb(33, 33, 33)" stroke="none" stroke-width="1px">18k</text><text style="text-anchor: middle; visibility: inherit; font-family: Roboto, sans-serif; font-size: 12px; font-weight: 200;" x="243.2704997062683" y="0" dx="0em" dy="0.95em" fill="rgb(33, 33, 33)" stroke="none" stroke-width="1px">20k</text><text style="text-anchor: middle; visibility: hidden; font-family: Roboto, sans-serif; font-size: 12px; font-weight: 200;" x="265.38599967956543" y="0" dx="0em" dy="0.95em" fill="rgb(33, 33, 33)" stroke="none" stroke-width="1px">22k</text><text style="text-anchor: middle; visibility: inherit; font-family: Roboto, sans-serif; font-size: 12px; font-weight: 200;" x="287.50149965286255" y="0" dx="0em" dy="0.95em" fill="rgb(33, 33, 33)" stroke="none" stroke-width="1px">24k</text><text style="text-anchor: middle; visibility: hidden; font-family: Roboto, sans-serif; font-size: 12px; font-weight: 200;" x="309.61699962615967" y="0" dx="0em" dy="0.95em" fill="rgb(33, 33, 33)" stroke="none" stroke-width="1px">26k</text></g><line x1="0" y1="0" x2="309.61699962615967" y2="0" fill="rgb(0, 0, 0)" stroke="rgb(204, 204, 204)" stroke-width="1px"></line></g></g></g></g></svg>