<svg viewBox="0 0 330 200" xmlns="http://www.w3.org/2000/svg"><g><g><g><g><g><line x1="30.766000747680664" y1="176.89999961853027" x2="25.766000747680664" y2="176.89999961853027" style="visibility: inherit;" fill="rgb(0, 0, 0)" stroke="rgb(204, 204, 204)" stroke-width="1px"></line><line x1="30.766000747680664" y1="157.24444410536023" x2="25.766000747680664" y2="157.24444410536023" style="visibility: inherit;" fill="rgb(0, 0, 0)" stroke="rgb(204, 204, 204)" stroke-width="1px"></line><line x1="30.766000747680664" y1="137.58888859219022" x2="25.766000747680664" y2="137.58888859219022" style="visibility: inherit;" fill="rgb(0, 0, 0)" stroke="rgb(204, 204, 204)" stroke-width="1px"></line><line x1="30.766000747680664" y1="117.9333330790202" x2="25.766000747680664" y2="117.9333330790202" style="visibility: inherit;" fill="rgb(0, 0, 0)" stroke="rgb(204, 204, 204)" stroke-width="1px"></line><line x1="30.766000747680664" y1="98.27777756585016" x2="25.766000747680664" y2="98.27777756585016" style="visibility: inherit;" fill="rgb(0, 0, 0)" stroke="rgb(204, 204, 204)" stroke-width="1px"></line><line x1="30.766000747680664" y1="78.62222205268012" x2="25.766000747680664" y2="78.62222205268012" style="visibility: inherit;" fill="rgb(0, 0, 0)" stroke="rgb(204, 204, 204)" stroke-width="1px"></line><line x1="30.766000747680664" y1="58.9666665395101" x2="25.766000747680664" y2="58.9666665395101" style="visibility: inherit;" fill="rgb(0, 0, 0)" stroke="rgb(204, 204, 204)" stroke-width="1px"></line><line x1="30.766000747680664" y1="39.31111102634006" x2="25.766000747680664" y2="39.31111102634006" style="visibility: inherit;" fill="rgb(0, 0, 0)" stroke="rgb(204, 204, 204)" stroke-width="1px"></line><line x1="30.766000747680664" y1="19.65555551317004" x2="25.766000747680664" y2="19.65555551317004" style="visibility: inherit;" fill="rgb(0, 0, 0)" stroke="rgb(204, 204, 204)" stroke-width="1px"></line><line x1="30.766000747680664" y1="0" x2="25.766000747680664" y2="0" style="visibility: inherit;" fill="rgb(0, 0, 0)" stroke="rgb(204, 204, 204)" stroke-width="1px"></line></g><g transform="translate(20.766000747680664, 0)"><text style="text-anchor: end; visibility: hidden; font-family: Roboto, sans-serif; font-size: 12px; font-weight: 200;" x="0" y="176.89999961853027" dx="0em" dy="0.3em" fill="rgb(33, 33, 33)" stroke="none" stroke-width="1px">0</text><text style="text-anchor: end; visibility: inherit; font-family: Roboto, sans-serif; font-size: 12px; font-weight: 200;" x="0" y="157.24444410536023" dx="0em" dy="0.3em" fill="rgb(33, 33, 33)" stroke="none" stroke-width="1px">2</text><text style="text-anchor: end; visibility: hidden; font-family: Roboto, sans-serif; font-size: 12px; font-weight: 200;" x="0" y="137.58888859219022" dx="0em" dy="0.3em" fill="rgb(33, 33, 33)" stroke="none" stroke-width="1px">4</text><text style="text-anchor: end; visibility: inherit; font-family: Roboto, sans-serif; font-size: 12px; font-weight: 200;" x="0" y="117.9333330790202" dx="0em" dy="0.3em" fill="rgb(33, 33, 33)" stroke="none" stroke-width="1px">6</text><text style="text-anchor: end; visibility: hidden; font-family: Roboto, sans-serif; font-size: 12px; font-weight: 200;" x="0" y="98.27777756585016" dx="0em" dy="0.3em" fill="rgb(33, 33, 33)" stroke="none" stroke-width="1px">8</text><text style="text-anchor: end; visibility: inherit; font-family: Roboto, sans-serif; font-size: 12px; font-weight: 200;" x="0" y="78.62222205268012" dx="0em" dy="0.3em" fill="rgb(33, 33, 33)" stroke="none" stroke-width="1px">10</text><text style="text-anchor: end; visibility: hidden; font-family: Roboto, sans-serif; font-size: 12px; font-weight: 200;" x="0" y="58.9666665395101" dx="0em" dy="0.3em" fill="rgb(33, 33, 33)" stroke="none" stroke-width="1px">12</text><text style="text-anchor: end; visibility: inherit; font-family: Roboto, sans-serif; font-size: 12px; font-weight: 200;" x="0" y="39.31111102634006" dx="0em" dy="0.3em" fill="rgb(33, 33, 33)" stroke="none" stroke-width="1px">14</text><text style="text-anchor: end; visibility: hidden; font-family: Roboto, sans-serif; font-size: 12px; font-weight: 200;" x="0" y="19.65555551317004" dx="0em" dy="0.3em" fill="rgb(33, 33, 33)" stroke="none" stroke-width="1px">16</text><text style="text-anchor: end; visibility: hidden; font-family: Roboto, sans-serif; font-size: 12px; font-weight: 200;" x="0" y="0" dx="0em" dy="0.3em" fill="rgb(33, 33, 33)" stroke="none" stroke-width="1px">18</text></g><line x1="30.766000747680664" y1="0" x2="30.766000747680664" y2="176.89999961853027" fill="rgb(0, 0, 0)" stroke="rgb(204, 204, 204)" stroke-width="1px"></line></g></g><g transform="translate(30, 0)" clip-path="url(#clip_0)"><clipPath id="clip_0"><rect width="299" height="176"></rect></clipPath><g><g><g><line x1="0" y1="0" x2="0" y2="176.89999961853027" fill="rgb(0, 0, 0)" stroke="rgb(66, 66, 66)" stroke-width="1px" opacity="0.25"></line><line x1="21.37385708945138" y1="0" x2="21.37385708945138" y2="176.89999961853027" fill="rgb(0, 0, 0)" stroke="rgb(66, 66, 66)" stroke-width="1px" opacity="0.25"></line><line x1="42.74771417890276" y1="0" x2="42.74771417890276" y2="176.89999961853027" fill="rgb(0, 0, 0)" stroke="rgb(66, 66, 66)" stroke-width="1px" opacity="0.25"></line><line x1="64.12157126835415" y1="0" x2="64.12157126835415" y2="176.89999961853027" fill="rgb(0, 0, 0)" stroke="rgb(66, 66, 66)" stroke-width="1px" opacity="0.25"></line><line x1="85.49542835780552" y1="0" x2="85.49542835780552" y2="176.89999961853027" fill="rgb(0, 0, 0)" stroke="rgb(66, 66, 66)" stroke-width="1px" opacity="0.25"></line><line x1="106.86928544725691" y1="0" x2="106.86928544725691" y2="176.89999961853027" fill="rgb(0, 0, 0)" stroke="rgb(66, 66, 66)" stroke-width="1px" opacity="0.25"></line><line x1="128.2431425367083" y1="0" x2="128.2431425367083" y2="176.89999961853027" fill="rgb(0, 0, 0)" stroke="rgb(66, 66, 66)" stroke-width="1px" opacity="0.25"></line><line x1="149.61699962615967" y1="0" x2="149.61699962615967" y2="176.89999961853027" fill="rgb(0, 0, 0)" stroke="rgb(66, 66, 66)" stroke-width="1px" opacity="0.25"></line><line x1="170.99085671561105" y1="0" x2="170.99085671561105" y2="176.89999961853027" fill="rgb(0, 0, 0)" stroke="rgb(66, 66, 66)" stroke-width="1px" opacity="0.25"></line><line x1="192.36471380506245" y1="0" x2="192.36471380506245" y2="176.89999961853027" fill="rgb(0, 0, 0)" stroke="rgb(66, 66, 66)" stroke-width="1px" opacity="0.25"></line><line x1="213.73857089451383" y1="0" x2="213.73857089451383" y2="176.89999961853027" fill="rgb(0, 0, 0)" stroke="rgb(66, 66, 66)" stroke-width="1px" opacity="0.25"></line><line x1="235.11242798396518" y1="0" x2="235.11242798396518" y2="176.89999961853027" fill="rgb(0, 0, 0)" stroke="rgb(66, 66, 66)" stroke-width="1px" opacity="0.25"></line><line x1="256.4862850734166" y1="0" x2="256.4862850734166" y2="176.89999961853027" fill="rgb(0, 0, 0)" stroke="rgb(66, 66, 66)" stroke-width="1px" opacity="0.25"></line><line x1="277.860142162868" y1="0" x2="277.860142162868" y2="176.89999961853027" fill="rgb(0, 0, 0)" stroke="rgb(66, 66, 66)" stroke-width="1px" opacity="0.25"></line><line x1="299.23399925231934" y1="0" x2="299.23399925231934" y2="176.89999961853027" fill="rgb(0, 0, 0)" stroke="rgb(66, 66, 66)" stroke-width="1px" opacity="0.25"></line></g><g><line x1="0" y1="176.89999961853027" x2="299.23399925231934" y2="176.89999961853027" fill="rgb(0, 0, 0)" stroke="rgb(66, 66, 66)" stroke-width="1px" opacity="0.25"></line><line x1="0" y1="157.24444410536023" x2="299.23399925231934" y2="157.24444410536023" fill="rgb(0, 0, 0)" stroke="rgb(66, 66, 66)" stroke-width="1px" opacity="0.25"></line><line x1="0" y1="137.58888859219022" x2="299.23399925231934" y2="137.58888859219022" fill="rgb(0, 0, 0)" stroke="rgb(66, 66, 66)" stroke-width="1px" opacity="0.25"></line><line x1="0" y1="117.9333330790202" x2="299.23399925231934" y2="117.9333330790202" fill="rgb(0, 0, 0)" stroke="rgb(66, 66, 66)" stroke-width="1px" opacity="0.25"></line><line x1="0" y1="98.27777756585016" x2="299.23399925231934" y2="98.27777756585016" fill="rgb(0, 0, 0)" stroke="rgb(66, 66, 66)" stroke-width="1px" opacity="0.25"></line><line x1="0" y1="78.62222205268012" x2="299.23399925231934" y2="78.62222205268012" fill="rgb(0, 0, 0)" stroke="rgb(66, 66, 66)" stroke-width="1px" opacity="0.25"></line><line x1="0" y1="58.9666665395101" x2="299.23399925231934" y2="58.9666665395101" fill="rgb(0, 0, 0)" stroke="rgb(66, 66, 66)" stroke-width="1px" opacity="0.25"></line><line x1="0" y1="39.31111102634006" x2="299.23399925231934" y2="39.31111102634006" fill="rgb(0, 0, 0)" stroke="rgb(66, 66, 66)" stroke-width="1px" opacity="0.25"></line><line x1="0" y1="19.65555551317004" x2="299.23399925231934" y2="19.65555551317004" fill="rgb(0, 0, 0)" stroke="rgb(66, 66, 66)" stroke-width="1px" opacity="0.25"></line><line x1="0" y1="0" x2="299.23399925231934" y2="0" fill="rgb(0, 0, 0)" stroke="rgb(66, 66, 66)" stroke-width="1px" opacity="0.25"></line></g></g></g><g><g><line x1="0" y1="176.89999961853027" x2="299.23399925231934" y2="176.89999961853027" fill="rgb(0, 0, 0)" stroke="rgb(153, 153, 153)" stroke-width="1.5px"></line></g></g><g><g><line x1="21.37385708945138" y1="0" x2="21.37385708945138" y2="176.89999961853027" fill="rgb(0, 0, 0)" stroke="rgb(153, 153, 153)" stroke-width="1.5px"></line></g></g><g><g><g><g><g><path style="fill: none;" stroke="rgb(255, 112, 67)" stroke-width="2px" d="M22.44254994392395,144.27243185456453L23.51124279839652,-4.894979275307097L24.57993565286909,25.278626883257694L25.64862850734166,51.14289429218245L26.71732136181423,57.87309906573283L27.786014216286798,64.08339564836085L28.854707070759368,62.96365910456774L29.923399925231934,61.33099124853505L30.992092779704503,61.91319249567678L32.06078563417707,64.91957502106584L33.12947848864964,66.38556261219799L34.19817134312221,69.73366657899098L35.26686419759478,52.31300443360534L36.33555705206735,63.50020979067348L37.40424990653992,68.40997772794232L38.47294276101248,74.53263947356369L39.541635615485056,79.20070005510935L40.61032846995762,82.43020349546786L41.679021324430195,62.83157796757541L42.74771417890276,75.06423435529074L43.816407033375334,82.18284848734898L44.8850998878479,88.59385921777594L45.95379274232047,89.87044456688852L47.02248559679304,91.6856343380623L48.09117845126561,93.69943609940874L49.15987130573818,93.32098040605823L50.228564160210745,96.30011520663459L51.29725701468332,99.03927829216929L52.365949869155884,99.58394660090106L53.43464272362846,103.09190936491456L54.503335578101016,106.10651451279601L55.572028432573596,106.95676301968092L56.640721287046155,109.26606836633741L57.709414141518735,111.41576889418273L58.778106995991294,112.60297529909602L59.84679985046387,114.8752897840444L60.91549270493643,115.48145549722965L61.984185559409006,117.36955443878158L63.05287841388157,118.60972704119209L64.12157126835415,120.62335999228382L65.19026412282672,121.73643701141448L66.25895697729928,122.40644077164617L67.32764983177185,121.86714043525798L68.39634268624442,124.2102574569858L69.465035540717,125.69053031768809L70.53372839518956,127.22683984606586L71.60242124966213,128.99478604088972L72.6711141041347,130.5626359582994L73.73980695860728,131.34202832640818L74.80849981307983,132.30715413210118L75.87719266755239,132.63478420606629L76.94588552202497,131.66465854981826L78.01457837649755,126.5993606175642L79.08327123097011,129.5639480609194L80.15196408544267,130.16009169510735L81.22065693991524,131.1821943463045L82.28934979438782,133.12043490670658L83.35804264886039,133.15496220169484L84.42673550333295,134.53155867834548L85.49542835780552,136.39583389595404L86.5641212122781,135.00115585897515L87.63281406675067,137.41087405038644L88.70150692122323,137.5513042091989L89.7701997756958,139.3260659325387L90.83889263016836,140.5893303400729L91.90758548464095,140.83599572014137L92.9762783391135,142.58941409094035L94.04497119358608,144.04192201368267L95.11366404805864,143.892184254814L96.18235690253123,142.43457717080673L97.25104975700378,142.78676341186625L98.31974261147636,144.06459527556456L99.38843546594892,144.74071668668822L100.45712832042149,145.9076042388836L101.52582117489406,146.331084024067L102.59451402936664,145.37924990876044L103.6632068838392,146.34858342164696L104.73189973831177,147.8060717002755L105.80059259278434,148.19264641608967L106.86928544725691,141.71317791948223L107.93797830172947,145.5408332187936L109.00667115620203,140.32824374525163L110.07536401067462,144.34226642380682L111.14405686514719,146.56929780226787L112.21274971961975,145.4130560416016L113.28144257409231,144.43778172771673L114.35013542856488,146.85546654540465L115.41882828303747,147.99664999731291L116.48752113751003,149.03267508073807L117.55621399198259,150.1655412189987L118.62490684645516,151.48647106453654L119.69359970092773,152.5078922816498L120.76229255540031,153.067664799757L121.83098540987287,153.2286430984181L122.89967826434544,153.52333846841952L123.96837111881801,152.4715897458549L125.03706397329059,152.48122019144097L126.10575682776314,152.47249264172845L127.17444968223572,153.10148751155288L128.2431425367083,152.83978027144394L129.31183539118086,153.82071885910077L130.38052824565344,153.68768392318506L131.44922110012598,155.14716896342333L132.51791395459855,153.790272091954L133.58660680907113,152.87768148812086L134.6552996635437,153.81622872983303L135.72399251801627,154.90195638513813L136.79268537248885,154.97688117795073L137.8613782269614,155.70049591140824L138.930071081434,155.34675904264353L139.99876393590654,155.7596766790283L141.0674567903791,155.5917906608372L142.13614964485168,155.55882784288247L143.20484249932426,156.93893647879477L144.27353535379683,157.41696740008226L145.3422282082694,157.81842755173284L146.41092106274195,157.46319488370474L147.47961391721455,158.41929611905314L148.5483067716871,159.02411479671503L149.61699962615967,159.3316843579597L150.68569248063224,159.46694596236009L151.75438533510479,159.11333564816732L152.82307818957736,158.44147648973126L153.89177104404993,157.52356475862894L154.96046389852253,157.9961990368067L156.0291567529951,159.08122154457095L157.09784960746765,155.91890392684206L158.16654246194022,139.60996114034057L159.2352353164128,126.94283500352185L160.30392817088534,6.69475720932144L161.37262102535792,-434.220575352758L170.99085671561105,-57.885338417101075L172.05954957008362,11.516738343997641L173.1282424245562,9.176455783120709L174.19693527902876,51.53457336205359L175.26562813350134,78.49295207123245L176.3343209879739,93.60799462139289L177.40301384244646,103.08919080129444L178.47170669691903,109.93268289283326L179.5403995513916,114.07297464846098L180.60909240586415,115.64325792104775L181.67778526033672,116.99277544629938L182.74647811480932,118.04276497530769L183.8151709692819,119.94597522362798L184.88386382375447,120.58235251294848L185.952556678227,121.79854126233217L187.02124953269958,122.193553191824L188.08994238717216,126.17323360605778L189.1586352416447,125.25863987506744L190.22732809611728,125.47488951793446L191.29602095058985,125.40985815007791L192.36471380506245,125.25235594304995L193.43340665953502,125.47190457415977L194.50209951400757,125.86637114934702L195.57079236848014,125.85815706197933L196.63948522295271,127.30024314276613L197.70817807742526,128.2985955273573L198.77687093189783,125.76777705797375L199.8455637863704,127.00555804902L200.91425664084298,127.66658467732195L201.98294949531555,128.69729896446597L203.05164234978812,128.91985191411496L204.1203352042607,129.9224130598617L205.18902805873327,130.51266713273213L206.25772091320582,115.60486488961008L207.3264137676784,122.20551949391488L208.39510662215096,126.62805894671756L209.46379947662354,128.15467080052355L210.5324923310961,129.68408298365833L211.60118518556868,130.11412789540043L212.66987804004125,131.4201146012756L213.73857089451383,130.8631205693928L214.80726374898637,132.32662011480258L215.87595660345895,133.12679688341856L216.94464945793152,131.17579286232998L218.01334231240406,133.07534752169332L219.08203516687664,134.0885609501542L220.15072802134924,134.7229175805702L221.2194208758218,135.0495497122328L222.28811373029438,134.49181884584573L223.35680658476693,134.64328499877467L224.4254994392395,135.11579598883395L225.49419229371208,135.8877597529384L226.56288514818462,136.37625875533115L227.6315780026572,136.5301727941451L228.70027085712977,136.6763512295329L229.76896371160237,134.56722507385538L230.83765656607494,133.54113425787932L231.90634942054749,131.67224540574483L232.97504227502006,131.96478734488068L234.04373512949263,134.5896914661269L235.11242798396518,135.53924080600015L236.18112083843775,134.50856367975643L237.24981369291032,135.70214642988117L238.3185065473829,137.22746705230674L239.38719940185547,137.7303481884683L240.45589225632804,136.78318572376133L241.52458511080061,137.55444051367957L242.5932779652732,109.94010896566542L243.66197081974573,121.40743325393692L244.7306636742183,128.09855395387285L245.79935652869088,131.77735536579166L246.86804938316345,134.35288920583847L247.93674223763603,136.24936050341017L249.0054350921086,137.44216331571351L250.07412794658117,137.9902440972968L251.14282080105374,138.5279924526693L252.2115136555263,137.7310533189185L253.28020650999886,138.6821922228234L254.34889936447144,138.89249172262748L255.41759221894398,138.2628805822954L256.4862850734166,138.2138130697252L257.5549779278892,138.6647890651593L258.6236707823617,138.43722445364324L259.6923636368343,139.1224617333039L260.7610564913069,139.40086139445194L261.8297493457794,139.8151870854253L262.89844220025196,139.12531790072822L263.96713505472457,138.99136231452295L265.0358279091971,139.46911566867325L266.10452076366965,139.22381461665026L267.17321361814226,140.14051762046464L268.24190647261486,140.63407386386928L269.3105993270874,139.91408060747983L270.37929218155995,139.3856810010271L271.44798503603255,138.16987292112927L272.5166778905051,138.93845648422433L273.5853707449777,138.93454508459988L274.65406359945024,138.74142664642068L275.7227564539228,138.8957553639245L276.7914493083954,139.60438353781663L277.860142162868,137.70541588189934L278.92883501734053,137.82455199146597L279.9975278718131,137.8429084570489L281.0662207262857,137.74508231454627L282.1349135807582,138.2352982936715L283.20360643523077,136.4091764182259L284.27229928970337,136.29211218095784L285.34099214417597,137.73423792271217L286.4096849986485,139.28806027497643L287.47837785312106,139.711187979209L288.54707070759366,138.600119420832" fill="none"></path></g><g><path style="fill: none;" stroke="rgb(0, 119, 187)" stroke-width="2px" d="M277.860142162868,135.5121958194586Z" fill="none"></path></g></g></g></g><g opacity="0.2"><g><g><g><path style="fill: none;" stroke="rgb(255, 112, 67)" stroke-width="2px" d="M22.44254994392395,144.27243185456453L23.51124279839652,-94.39542595323007L24.57993565286909,54.24528879547992L25.64862850734166,81.55927276507796L26.71732136181423,66.66005441808022L27.786014216286798,72.6744715289052L28.854707070759368,61.36241793115883L29.923399925231934,58.95054584082794L30.992092779704503,62.771826248440554L32.06078563417707,69.38370269542358L33.12947848864964,68.57124759934129L34.19817134312221,74.73760229524547L35.26686419759478,26.238892699986135L36.33555705206735,80.25910092636624L37.40424990653992,75.76885838594092L38.47294276101248,83.71231391656815L39.541635615485056,86.20081556063462L40.61032846995762,87.27363868543196L41.679021324430195,33.43662532907578L42.74771417890276,93.41210082361633L43.816407033375334,92.86037928371923L44.8850998878479,98.2101643563775L45.95379274232047,91.78529738660654L47.02248559679304,94.40839749216968L48.09117845126561,96.72012442818738L49.15987130573818,92.75329847997301L50.228564160210745,100.76880978470973L51.29725701468332,103.14801871521084L52.365949869155884,100.40094856228217L53.43464272362846,108.3538515721371L54.503335578101016,110.62842123494238L55.572028432573596,108.2321356108373L56.640721287046155,112.73002611063743L57.709414141518735,114.64031953197207L58.778106995991294,114.38378485544365L59.84679985046387,118.28376145287285L60.91549270493643,116.3907040576292L61.984185559409006,120.20170283358232L63.05287841388157,120.46998593790033L64.12157126835415,123.64380941219213L65.19026412282672,123.40605253787862L66.25895697729928,123.41144641118768L67.32764983177185,121.05818993106499L68.39634268624442,127.72493298856273L69.465035540717,127.91093960835678L70.53372839518956,129.53130413839295L71.60242124966213,131.64670533296015L72.6711141041347,132.914410834326L73.73980695860728,132.511116878545L74.80849981307983,133.75484284062117L75.87719266755239,133.12622931700994L76.94588552202497,130.20947006545327L78.01457837649755,119.00141371920523L79.08327123097011,134.01082922594443L80.15196408544267,131.05430714638834L81.22065693991524,132.71534832309922L82.28934979438782,136.02779574730863L83.35804264886039,133.20675314417718L84.42673550333295,136.5964533933212L85.49542835780552,139.19224672236663L86.5641212122781,132.90913880350698L87.63281406675067,141.02545133750326L88.70150692122323,137.76194944741758L89.7701997756958,141.98820851754843L90.83889263016836,142.4842269513742L91.90758548464095,141.205993790244L92.9762783391135,145.21954164713887L94.04497119358608,146.22068389779608L95.11366404805864,143.667577616511L96.18235690253123,140.24816654479582L97.25104975700378,143.3150427734555L98.31974261147636,145.98134307111206L99.38843546594892,145.75489880337375L100.45712832042149,147.65793556717662L101.52582117489406,146.9663037018421L102.59451402936664,143.9514987358006L103.6632068838392,147.80258369097672L104.73189973831177,149.99230411821839L105.80059259278434,148.77250848981095L106.86928544725691,131.99397517457106L107.93797830172947,151.28231616776065L109.00667115620203,132.5093595349387L110.07536401067462,150.36330044163964L111.14405686514719,149.90984486995936L112.21274971961975,143.6786934006023L113.28144257409231,142.9748702568894L114.35013542856488,150.48199377193654L115.41882828303747,149.7084251751753L116.48752113751003,150.5867127058758L117.55621399198259,151.86484042638963L118.62490684645516,153.46786583284327L119.69359970092773,154.04002410731968L120.76229255540031,153.90732357691786L121.83098540987287,153.47011054640976L122.89967826434544,153.96538152342166L123.96837111881801,150.89396666200798L125.03706397329059,152.49566585982004L126.10575682776314,152.45940131715963L127.17444968223572,154.04497981628955L128.2431425367083,152.4472194112805L129.31183539118086,155.292126740586L130.38052824565344,153.48813151931157L131.44922110012598,157.33639652378068L132.51791395459855,151.75492678475L133.58660680907113,151.5087955823711L134.6552996635437,155.2240495924013L135.72399251801627,156.53054786809582L136.79268537248885,155.08926836716958L137.8613782269614,156.78591801159448L138.930071081434,154.81615373949654L139.99876393590654,156.37905313360545L141.0674567903791,155.33996163355056L142.13614964485168,155.5093836159504L143.20484249932426,159.00909943266322L144.27353535379683,158.13401378201345L145.3422282082694,158.42061777920875L146.41092106274195,156.9303458816626L147.47961391721455,159.85344797207574L148.5483067716871,159.93134281320786L149.61699962615967,159.79303869982664L150.68569248063224,159.6698383689607L151.75438533510479,158.58292017687813L152.82307818957736,157.4336877520772L153.89177104404993,156.1466971619754L154.96046389852253,158.70515045407336L156.0291567529951,160.70875530621737L157.09784960746765,151.17542750024873L158.16654246194022,115.1465469605883L159.2352353164128,107.94214579829378L160.30392817088534,-173.67735948197918L168.8534710066659,-68.00481123564714L169.92216386113847,31.618566672700982L170.99085671561105,94.84652434135307L172.05954957008362,115.61985348564576L173.1282424245562,5.666031941805269L174.19693527902876,115.07174973045292L175.26562813350134,118.93052013500073L176.3343209879739,116.2805584466335L177.40301384244646,117.31098507114677L178.47170669691903,120.19792103014146L179.5403995513916,120.2834122819026L180.60909240586415,117.99868282992787L181.67778526033672,119.01705173417685L182.74647811480932,119.61774926882015L183.8151709692819,122.80079059610841L184.88386382375447,121.53691844692923L185.952556678227,123.62282438640767L187.02124953269958,122.78607108606172L188.08994238717216,132.14275422740846L189.1586352416447,123.88674927858193L190.22732809611728,125.799263982235L191.29602095058985,125.31231109829312L192.36471380506245,125.01610263250797L193.43340665953502,125.80122752082451L194.50209951400757,126.45807101212793L195.57079236848014,125.84583593092776L196.63948522295271,129.46337226394633L197.70817807742526,129.7961241042441L198.77687093189783,121.97154935389841L199.8455637863704,128.8622295355894L200.91425664084298,128.65812461977487L201.98294949531555,130.24337039518196L203.05164234978812,129.25368133858845L204.1203352042607,131.42625477848185L205.18902805873327,131.39804824203773L206.25772091320582,93.24316152492702L207.3264137676784,132.1065014003721L208.39510662215096,133.26186812592155L209.46379947662354,130.4445885812325L210.5324923310961,131.97820125836057L211.60118518556868,130.75919526301357L212.66987804004125,133.37909466008836L213.73857089451383,130.02762952156866L214.80726374898637,134.5218694329172L215.87595660345895,134.3270620363426L216.94464945793152,128.2492868306971L218.01334231240406,135.92467951073832L219.08203516687664,135.60838109284552L220.15072802134924,135.67445252619422L221.2194208758218,135.5394979097267L222.28811373029438,133.65522254626507L223.35680658476693,134.87048422816815L224.4254994392395,135.8245624739228L225.49419229371208,137.0457053990951L226.56288514818462,137.10900725892023L227.6315780026572,136.76104385236602L228.70027085712977,136.8956188826146L229.76896371160237,131.40353584033912L230.83765656607494,132.00199803391519L231.90634942054749,128.8689121275431L232.97504227502006,132.40360025358444L234.04373512949263,138.52704764799626L235.11242798396518,136.96356481581006L236.18112083843775,132.96254799039082L237.24981369291032,137.49252055506824L238.3185065473829,139.51544798594512L239.38719940185547,138.48466989271063L240.45589225632804,135.3624420267009L241.52458511080061,138.7113226985569L242.5932779652732,68.51861164364425L243.66197081974573,138.60841968634415L244.7306636742183,138.13523500377673L245.79935652869088,137.29555748366985L246.86804938316345,138.2161899659087L247.93674223763603,139.09406744976775L249.0054350921086,139.23136753416853L250.07412794658117,138.81236526967172L251.14282080105374,139.3346149857281L252.2115136555263,136.53564461829228L253.28020650999886,140.10890057868073L254.34889936447144,139.20794097233363L255.41759221894398,137.31846387179726L256.4862850734166,138.14021180086988L257.5549779278892,139.34125305831046L258.6236707823617,138.09587753636916L259.6923636368343,140.1503176527949L260.7610564913069,139.818460886174L261.8297493457794,140.4366756218853L262.89844220025196,138.09051412368262L263.96713505472457,138.790428935215L265.0358279091971,140.1857456998987L266.10452076366965,138.8558630386158L267.17321361814226,141.51557212618616L268.24190647261486,141.37440822897622L269.3105993270874,138.83409072289567L270.37929218155995,138.59308159134804L271.44798503603255,136.34616080128248L272.5166778905051,140.09133182886697L273.5853707449777,138.92867798516323L274.65406359945024,138.4517489891519L275.7227564539228,139.1272484401802L276.7914493083954,140.66732579865482L277.860142162868,134.8569643980234L278.92883501734053,138.0032561558159L279.9975278718131,137.8704431554233L281.0662207262857,137.5983431007923L282.1349135807582,138.9706222623593L283.20360643523077,133.66999360505756L284.27229928970337,136.1165158250558L285.34099214417597,139.8974265353436L286.4096849986485,141.61879380337285L287.47837785312106,140.34587953555786L288.54707070759366,136.93351658326648" fill="none"></path></g><g><path style="fill: none;" stroke="rgb(0, 119, 187)" stroke-width="2px" d="M277.860142162868,135.5121958194586Z" fill="none"></path></g></g></g></g></g></g><g transform="translate(30, 176)" clip-path="url(#clip_1)"><clipPath id="clip_1"><rect width="299" height="23"></rect></clipPath><g><g><line x1="0" y1="0" x2="0" y2="5" style="visibility: inherit;" fill="rgb(0, 0, 0)" stroke="rgb(204, 204, 204)" stroke-width="1px"></line><line x1="21.37385708945138" y1="0" x2="21.37385708945138" y2="5" style="visibility: inherit;" fill="rgb(0, 0, 0)" stroke="rgb(204, 204, 204)" stroke-width="1px"></line><line x1="42.74771417890276" y1="0" x2="42.74771417890276" y2="5" style="visibility: inherit;" fill="rgb(0, 0, 0)" stroke="rgb(204, 204, 204)" stroke-width="1px"></line><line x1="64.12157126835415" y1="0" x2="64.12157126835415" y2="5" style="visibility: inherit;" fill="rgb(0, 0, 0)" stroke="rgb(204, 204, 204)" stroke-width="1px"></line><line x1="85.49542835780552" y1="0" x2="85.49542835780552" y2="5" style="visibility: inherit;" fill="rgb(0, 0, 0)" stroke="rgb(204, 204, 204)" stroke-width="1px"></line><line x1="106.86928544725691" y1="0" x2="106.86928544725691" y2="5" style="visibility: inherit;" fill="rgb(0, 0, 0)" stroke="rgb(204, 204, 204)" stroke-width="1px"></line><line x1="128.2431425367083" y1="0" x2="128.2431425367083" y2="5" style="visibility: inherit;" fill="rgb(0, 0, 0)" stroke="rgb(204, 204, 204)" stroke-width="1px"></line><line x1="149.61699962615967" y1="0" x2="149.61699962615967" y2="5" style="visibility: inherit;" fill="rgb(0, 0, 0)" stroke="rgb(204, 204, 204)" stroke-width="1px"></line><line x1="170.99085671561105" y1="0" x2="170.99085671561105" y2="5" style="visibility: inherit;" fill="rgb(0, 0, 0)" stroke="rgb(204, 204, 204)" stroke-width="1px"></line><line x1="192.36471380506245" y1="0" x2="192.36471380506245" y2="5" style="visibility: inherit;" fill="rgb(0, 0, 0)" stroke="rgb(204, 204, 204)" stroke-width="1px"></line><line x1="213.73857089451383" y1="0" x2="213.73857089451383" y2="5" style="visibility: inherit;" fill="rgb(0, 0, 0)" stroke="rgb(204, 204, 204)" stroke-width="1px"></line><line x1="235.11242798396518" y1="0" x2="235.11242798396518" y2="5" style="visibility: inherit;" fill="rgb(0, 0, 0)" stroke="rgb(204, 204, 204)" stroke-width="1px"></line><line x1="256.4862850734166" y1="0" x2="256.4862850734166" y2="5" style="visibility: inherit;" fill="rgb(0, 0, 0)" stroke="rgb(204, 204, 204)" stroke-width="1px"></line><line x1="277.860142162868" y1="0" x2="277.860142162868" y2="5" style="visibility: inherit;" fill="rgb(0, 0, 0)" stroke="rgb(204, 204, 204)" stroke-width="1px"></line><line x1="299.23399925231934" y1="0" x2="299.23399925231934" y2="5" style="visibility: inherit;" fill="rgb(0, 0, 0)" stroke="rgb(204, 204, 204)" stroke-width="1px"></line></g><g transform="translate(0, 8)"><text style="text-anchor: middle; visibility: hidden; font-family: Roboto, sans-serif; font-size: 12px; font-weight: 200;" x="0" y="0" dx="0em" dy="0.95em" fill="rgb(33, 33, 33)" stroke="none" stroke-width="1px">-2k</text><text style="text-anchor: middle; visibility: inherit; font-family: Roboto, sans-serif; font-size: 12px; font-weight: 200;" x="21.37385708945138" y="0" dx="0em" dy="0.95em" fill="rgb(33, 33, 33)" stroke="none" stroke-width="1px">0</text><text style="text-anchor: middle; visibility: hidden; font-family: Roboto, sans-serif; font-size: 12px; font-weight: 200;" x="42.74771417890276" y="0" dx="0em" dy="0.95em" fill="rgb(33, 33, 33)" stroke="none" stroke-width="1px">2k</text><text style="text-anchor: middle; visibility: inherit; font-family: Roboto, sans-serif; font-size: 12px; font-weight: 200;" x="64.12157126835415" y="0" dx="0em" dy="0.95em" fill="rgb(33, 33, 33)" stroke="none" stroke-width="1px">4k</text><text style="text-anchor: middle; visibility: hidden; font-family: Roboto, sans-serif; font-size: 12px; font-weight: 200;" x="85.49542835780552" y="0" dx="0em" dy="0.95em" fill="rgb(33, 33, 33)" stroke="none" stroke-width="1px">6k</text><text style="text-anchor: middle; visibility: inherit; font-family: Roboto, sans-serif; font-size: 12px; font-weight: 200;" x="106.86928544725691" y="0" dx="0em" dy="0.95em" fill="rgb(33, 33, 33)" stroke="none" stroke-width="1px">8k</text><text style="text-anchor: middle; visibility: hidden; font-family: Roboto, sans-serif; font-size: 12px; font-weight: 200;" x="128.2431425367083" y="0" dx="0em" dy="0.95em" fill="rgb(33, 33, 33)" stroke="none" stroke-width="1px">10k</text><text style="text-anchor: middle; visibility: inherit; font-family: Roboto, sans-serif; font-size: 12px; font-weight: 200;" x="149.61699962615967" y="0" dx="0em" dy="0.95em" fill="rgb(33, 33, 33)" stroke="none" stroke-width="1px">12k</text><text style="text-anchor: middle; visibility: hidden; font-family: Roboto, sans-serif; font-size: 12px; font-weight: 200;" x="170.99085671561105" y="0" dx="0em" dy="0.95em" fill="rgb(33, 33, 33)" stroke="none" stroke-width="1px">14k</text><text style="text-anchor: middle; visibility: inherit; font-family: Roboto, sans-serif; font-size: 12px; font-weight: 200;" x="192.36471380506245" y="0" dx="0em" dy="0.95em" fill="rgb(33, 33, 33)" stroke="none" stroke-width="1px">16k</text><text style="text-anchor: middle; visibility: hidden; font-family: Roboto, sans-serif; font-size: 12px; font-weight: 200;" x="213.73857089451383" y="0" dx="0em" dy="0.95em" fill="rgb(33, 33, 33)" stroke="none" stroke-width="1px">18k</text><text style="text-anchor: middle; visibility: inherit; font-family: Roboto, sans-serif; font-size: 12px; font-weight: 200;" x="235.11242798396518" y="0" dx="0em" dy="0.95em" fill="rgb(33, 33, 33)" stroke="none" stroke-width="1px">20k</text><text style="text-anchor: middle; visibility: hidden; font-family: Roboto, sans-serif; font-size: 12px; font-weight: 200;" x="256.4862850734166" y="0" dx="0em" dy="0.95em" fill="rgb(33, 33, 33)" stroke="none" stroke-width="1px">22k</text><text style="text-anchor: middle; visibility: inherit; font-family: Roboto, sans-serif; font-size: 12px; font-weight: 200;" x="277.860142162868" y="0" dx="0em" dy="0.95em" fill="rgb(33, 33, 33)" stroke="none" stroke-width="1px">24k</text><text style="text-anchor: middle; visibility: hidden; font-family: Roboto, sans-serif; font-size: 12px; font-weight: 200;" x="299.23399925231934" y="0" dx="0em" dy="0.95em" fill="rgb(33, 33, 33)" stroke="none" stroke-width="1px">26k</text></g><line x1="0" y1="0" x2="299.23399925231934" y2="0" fill="rgb(0, 0, 0)" stroke="rgb(204, 204, 204)" stroke-width="1px"></line></g></g></g></g></svg>