<svg viewBox="0 0 330 200" xmlns="http://www.w3.org/2000/svg"><g><g><g><g><g><line x1="51.53200149536133" y1="176.89999961853027" x2="46.53200149536133" y2="176.89999961853027" style="visibility: inherit;" fill="rgb(0, 0, 0)" stroke="rgb(204, 204, 204)" stroke-width="1px"></line><line x1="51.53200149536133" y1="160.81818147139114" x2="46.53200149536133" y2="160.81818147139114" style="visibility: inherit;" fill="rgb(0, 0, 0)" stroke="rgb(204, 204, 204)" stroke-width="1px"></line><line x1="51.53200149536133" y1="144.73636332425204" x2="46.53200149536133" y2="144.73636332425204" style="visibility: inherit;" fill="rgb(0, 0, 0)" stroke="rgb(204, 204, 204)" stroke-width="1px"></line><line x1="51.53200149536133" y1="128.65454517711294" x2="46.53200149536133" y2="128.65454517711294" style="visibility: inherit;" fill="rgb(0, 0, 0)" stroke="rgb(204, 204, 204)" stroke-width="1px"></line><line x1="51.53200149536133" y1="112.57272702997383" x2="46.53200149536133" y2="112.57272702997383" style="visibility: inherit;" fill="rgb(0, 0, 0)" stroke="rgb(204, 204, 204)" stroke-width="1px"></line><line x1="51.53200149536133" y1="96.49090888283469" x2="46.53200149536133" y2="96.49090888283469" style="visibility: inherit;" fill="rgb(0, 0, 0)" stroke="rgb(204, 204, 204)" stroke-width="1px"></line><line x1="51.53200149536133" y1="80.40909073569557" x2="46.53200149536133" y2="80.40909073569557" style="visibility: inherit;" fill="rgb(0, 0, 0)" stroke="rgb(204, 204, 204)" stroke-width="1px"></line><line x1="51.53200149536133" y1="64.32727258855648" x2="46.53200149536133" y2="64.32727258855648" style="visibility: inherit;" fill="rgb(0, 0, 0)" stroke="rgb(204, 204, 204)" stroke-width="1px"></line><line x1="51.53200149536133" y1="48.245454441417344" x2="46.53200149536133" y2="48.245454441417344" style="visibility: inherit;" fill="rgb(0, 0, 0)" stroke="rgb(204, 204, 204)" stroke-width="1px"></line><line x1="51.53200149536133" y1="32.16363629427826" x2="46.53200149536133" y2="32.16363629427826" style="visibility: inherit;" fill="rgb(0, 0, 0)" stroke="rgb(204, 204, 204)" stroke-width="1px"></line><line x1="51.53200149536133" y1="16.08181814713912" x2="46.53200149536133" y2="16.08181814713912" style="visibility: inherit;" fill="rgb(0, 0, 0)" stroke="rgb(204, 204, 204)" stroke-width="1px"></line><line x1="51.53200149536133" y1="0" x2="46.53200149536133" y2="0" style="visibility: inherit;" fill="rgb(0, 0, 0)" stroke="rgb(204, 204, 204)" stroke-width="1px"></line></g><g transform="translate(41.53200149536133, 0)"><text style="text-anchor: end; visibility: hidden; font-family: Roboto, sans-serif; font-size: 12px; font-weight: 200;" x="0" y="176.89999961853027" dx="0em" dy="0.3em" fill="rgb(33, 33, 33)" stroke="none" stroke-width="1px">0.5</text><text style="text-anchor: end; visibility: inherit; font-family: Roboto, sans-serif; font-size: 12px; font-weight: 200;" x="0" y="160.81818147139114" dx="0em" dy="0.3em" fill="rgb(33, 33, 33)" stroke="none" stroke-width="1px">0.55</text><text style="text-anchor: end; visibility: hidden; font-family: Roboto, sans-serif; font-size: 12px; font-weight: 200;" x="0" y="144.73636332425204" dx="0em" dy="0.3em" fill="rgb(33, 33, 33)" stroke="none" stroke-width="1px">0.6</text><text style="text-anchor: end; visibility: inherit; font-family: Roboto, sans-serif; font-size: 12px; font-weight: 200;" x="0" y="128.65454517711294" dx="0em" dy="0.3em" fill="rgb(33, 33, 33)" stroke="none" stroke-width="1px">0.65</text><text style="text-anchor: end; visibility: hidden; font-family: Roboto, sans-serif; font-size: 12px; font-weight: 200;" x="0" y="112.57272702997383" dx="0em" dy="0.3em" fill="rgb(33, 33, 33)" stroke="none" stroke-width="1px">0.7</text><text style="text-anchor: end; visibility: inherit; font-family: Roboto, sans-serif; font-size: 12px; font-weight: 200;" x="0" y="96.49090888283469" dx="0em" dy="0.3em" fill="rgb(33, 33, 33)" stroke="none" stroke-width="1px">0.75</text><text style="text-anchor: end; visibility: hidden; font-family: Roboto, sans-serif; font-size: 12px; font-weight: 200;" x="0" y="80.40909073569557" dx="0em" dy="0.3em" fill="rgb(33, 33, 33)" stroke="none" stroke-width="1px">0.8</text><text style="text-anchor: end; visibility: inherit; font-family: Roboto, sans-serif; font-size: 12px; font-weight: 200;" x="0" y="64.32727258855648" dx="0em" dy="0.3em" fill="rgb(33, 33, 33)" stroke="none" stroke-width="1px">0.85</text><text style="text-anchor: end; visibility: hidden; font-family: Roboto, sans-serif; font-size: 12px; font-weight: 200;" x="0" y="48.245454441417344" dx="0em" dy="0.3em" fill="rgb(33, 33, 33)" stroke="none" stroke-width="1px">0.9</text><text style="text-anchor: end; visibility: inherit; font-family: Roboto, sans-serif; font-size: 12px; font-weight: 200;" x="0" y="32.16363629427826" dx="0em" dy="0.3em" fill="rgb(33, 33, 33)" stroke="none" stroke-width="1px">0.95</text><text style="text-anchor: end; visibility: hidden; font-family: Roboto, sans-serif; font-size: 12px; font-weight: 200;" x="0" y="16.08181814713912" dx="0em" dy="0.3em" fill="rgb(33, 33, 33)" stroke="none" stroke-width="1px">1</text><text style="text-anchor: end; visibility: hidden; font-family: Roboto, sans-serif; font-size: 12px; font-weight: 200;" x="0" y="0" dx="0em" dy="0.3em" fill="rgb(33, 33, 33)" stroke="none" stroke-width="1px">1.05</text></g><line x1="51.53200149536133" y1="0" x2="51.53200149536133" y2="176.89999961853027" fill="rgb(0, 0, 0)" stroke="rgb(204, 204, 204)" stroke-width="1px"></line></g></g><g transform="translate(51, 0)" clip-path="url(#clip_0)"><clipPath id="clip_0"><rect width="278" height="176"></rect></clipPath><g><g><g><line x1="0" y1="0" x2="0" y2="176.89999961853027" fill="rgb(0, 0, 0)" stroke="rgb(66, 66, 66)" stroke-width="1px" opacity="0.25"></line><line x1="19.890571321759904" y1="0" x2="19.890571321759904" y2="176.89999961853027" fill="rgb(0, 0, 0)" stroke="rgb(66, 66, 66)" stroke-width="1px" opacity="0.25"></line><line x1="39.78114264351981" y1="0" x2="39.78114264351981" y2="176.89999961853027" fill="rgb(0, 0, 0)" stroke="rgb(66, 66, 66)" stroke-width="1px" opacity="0.25"></line><line x1="59.671713965279714" y1="0" x2="59.671713965279714" y2="176.89999961853027" fill="rgb(0, 0, 0)" stroke="rgb(66, 66, 66)" stroke-width="1px" opacity="0.25"></line><line x1="79.56228528703961" y1="0" x2="79.56228528703961" y2="176.89999961853027" fill="rgb(0, 0, 0)" stroke="rgb(66, 66, 66)" stroke-width="1px" opacity="0.25"></line><line x1="99.45285660879952" y1="0" x2="99.45285660879952" y2="176.89999961853027" fill="rgb(0, 0, 0)" stroke="rgb(66, 66, 66)" stroke-width="1px" opacity="0.25"></line><line x1="119.34342793055943" y1="0" x2="119.34342793055943" y2="176.89999961853027" fill="rgb(0, 0, 0)" stroke="rgb(66, 66, 66)" stroke-width="1px" opacity="0.25"></line><line x1="139.23399925231934" y1="0" x2="139.23399925231934" y2="176.89999961853027" fill="rgb(0, 0, 0)" stroke="rgb(66, 66, 66)" stroke-width="1px" opacity="0.25"></line><line x1="159.12457057407923" y1="0" x2="159.12457057407923" y2="176.89999961853027" fill="rgb(0, 0, 0)" stroke="rgb(66, 66, 66)" stroke-width="1px" opacity="0.25"></line><line x1="179.01514189583915" y1="0" x2="179.01514189583915" y2="176.89999961853027" fill="rgb(0, 0, 0)" stroke="rgb(66, 66, 66)" stroke-width="1px" opacity="0.25"></line><line x1="198.90571321759904" y1="0" x2="198.90571321759904" y2="176.89999961853027" fill="rgb(0, 0, 0)" stroke="rgb(66, 66, 66)" stroke-width="1px" opacity="0.25"></line><line x1="218.79628453935896" y1="0" x2="218.79628453935896" y2="176.89999961853027" fill="rgb(0, 0, 0)" stroke="rgb(66, 66, 66)" stroke-width="1px" opacity="0.25"></line><line x1="238.68685586111886" y1="0" x2="238.68685586111886" y2="176.89999961853027" fill="rgb(0, 0, 0)" stroke="rgb(66, 66, 66)" stroke-width="1px" opacity="0.25"></line><line x1="258.57742718287875" y1="0" x2="258.57742718287875" y2="176.89999961853027" fill="rgb(0, 0, 0)" stroke="rgb(66, 66, 66)" stroke-width="1px" opacity="0.25"></line><line x1="278.4679985046387" y1="0" x2="278.4679985046387" y2="176.89999961853027" fill="rgb(0, 0, 0)" stroke="rgb(66, 66, 66)" stroke-width="1px" opacity="0.25"></line></g><g><line x1="0" y1="176.89999961853027" x2="278.4679985046387" y2="176.89999961853027" fill="rgb(0, 0, 0)" stroke="rgb(66, 66, 66)" stroke-width="1px" opacity="0.25"></line><line x1="0" y1="160.81818147139114" x2="278.4679985046387" y2="160.81818147139114" fill="rgb(0, 0, 0)" stroke="rgb(66, 66, 66)" stroke-width="1px" opacity="0.25"></line><line x1="0" y1="144.73636332425204" x2="278.4679985046387" y2="144.73636332425204" fill="rgb(0, 0, 0)" stroke="rgb(66, 66, 66)" stroke-width="1px" opacity="0.25"></line><line x1="0" y1="128.65454517711294" x2="278.4679985046387" y2="128.65454517711294" fill="rgb(0, 0, 0)" stroke="rgb(66, 66, 66)" stroke-width="1px" opacity="0.25"></line><line x1="0" y1="112.57272702997383" x2="278.4679985046387" y2="112.57272702997383" fill="rgb(0, 0, 0)" stroke="rgb(66, 66, 66)" stroke-width="1px" opacity="0.25"></line><line x1="0" y1="96.49090888283469" x2="278.4679985046387" y2="96.49090888283469" fill="rgb(0, 0, 0)" stroke="rgb(66, 66, 66)" stroke-width="1px" opacity="0.25"></line><line x1="0" y1="80.40909073569557" x2="278.4679985046387" y2="80.40909073569557" fill="rgb(0, 0, 0)" stroke="rgb(66, 66, 66)" stroke-width="1px" opacity="0.25"></line><line x1="0" y1="64.32727258855648" x2="278.4679985046387" y2="64.32727258855648" fill="rgb(0, 0, 0)" stroke="rgb(66, 66, 66)" stroke-width="1px" opacity="0.25"></line><line x1="0" y1="48.245454441417344" x2="278.4679985046387" y2="48.245454441417344" fill="rgb(0, 0, 0)" stroke="rgb(66, 66, 66)" stroke-width="1px" opacity="0.25"></line><line x1="0" y1="32.16363629427826" x2="278.4679985046387" y2="32.16363629427826" fill="rgb(0, 0, 0)" stroke="rgb(66, 66, 66)" stroke-width="1px" opacity="0.25"></line><line x1="0" y1="16.08181814713912" x2="278.4679985046387" y2="16.08181814713912" fill="rgb(0, 0, 0)" stroke="rgb(66, 66, 66)" stroke-width="1px" opacity="0.25"></line><line x1="0" y1="0" x2="278.4679985046387" y2="0" fill="rgb(0, 0, 0)" stroke="rgb(66, 66, 66)" stroke-width="1px" opacity="0.25"></line></g></g></g><g><g><line x1="0" y1="337.7181810899215" x2="278.4679985046387" y2="337.7181810899215" fill="rgb(0, 0, 0)" stroke="rgb(153, 153, 153)" stroke-width="1.5px"></line></g></g><g><g><line x1="19.890571321759904" y1="0" x2="19.890571321759904" y2="176.89999961853027" fill="rgb(0, 0, 0)" stroke="rgb(153, 153, 153)" stroke-width="1.5px"></line></g></g><g><g><g><g><g><path style="fill: none;" stroke="rgb(255, 112, 67)" stroke-width="2px" d="M20.8850998878479,5.760255380693466L21.879628453935894,29.390731646004134L22.87415702002389,43.85250516376426L23.868685586111887,74.01828927655477L24.86321415219988,84.61629172753939L25.857742718287877,89.64694348115128L26.852271284375874,92.99293010265123L27.846799850463867,16.35058935592667L28.841328416551864,36.32867376504078L29.835856982639857,58.529288833292995L30.83038554872785,49.96003580449857L31.824914114815847,40.350603868175206L32.81944268090384,-107.50358226557064L34.808499813079834,-25.467806195157074L35.80302837916783,24.013085843871675L36.79755694525583,57.29737884515151L37.792085511343814,79.82873309051244L38.786614077431814,37.15253951859125L39.78114264351981,53.93447363846785L40.77567120960781,51.22859661667185L41.7701997756958,74.89823729550292L42.7647283417838,39.942934397381066L43.75925690787179,45.430135837320144L44.75378547395979,46.8497557110776L45.74831404004778,-6.453097950789147L46.742842606135774,10.526836248015023L47.737371172223774,24.028352987456202L48.73189973831177,-7.606126048806541L49.72642830439976,25.633518155259825L50.720956870487754,49.136737935186794L51.715485436575754,30.907052453052124L52.71001400266375,39.52860772779448L53.70454256875175,50.70551353967225L54.69907113483974,46.877755643951076L55.693599700927734,65.38191984772556L56.68812826701573,76.30444836848399L57.68265683310373,74.09314323574228L58.67718539919172,74.28372348432563L59.671713965279714,75.39031001091537L60.666242531367715,63.02557458783307L61.6607710974557,67.97566915172068L62.6552996635437,87.37390304550567L63.649828229631694,107.54220706717199L64.64435679571969,105.57890659099317L65.63888536180768,97.96715460892678L66.63341392789569,103.8295070150563L67.62794249398368,109.96868596523358L68.62247106007167,94.94159108753483L69.61699962615967,94.92021625283701L70.61152819224766,99.97187669597889L71.60605675833565,54.50005139542043L72.60058532442366,53.15121457260502L73.59511389051166,67.10616002060078L74.58964245659965,24.520520917692547L75.58417102268763,17.377412699742464L76.57869958877563,33.45808914538975L77.57322815486363,20.954456746416046L78.56775672095162,33.33527185092965L79.56228528703961,57.05961967782491L80.55681385312762,13.314212497200572L81.55134241921562,45.768857364756L82.54587098530361,33.051191566611614L83.5403995513916,68.7682263747638L84.5349281174796,85.98839899200576L85.5294566835676,82.05592851619853L86.5239852496556,97.76731150206818L87.51851381574357,111.83901132637456L88.51304238183157,103.10332392712567L89.50757094791958,93.81429544801199L90.50209951400757,96.84006290711102L91.49662808009556,101.57458741689322L92.49115664618355,101.22586534281525L93.48568521227155,116.78912198488595L94.48021377835956,110.188963797605L95.47474234444755,75.12387171623325L96.46927091053554,80.54600184399676L97.46379947662354,98.52543847748197L98.45832804271154,95.14523271056062L99.45285660879952,-105.82862148794254L100.44738517488751,-16.89335753219064L101.44191374097551,42.77679986323089L102.43644230706352,93.19458943338671L103.43097087315151,100.19102922377272L104.4254994392395,95.71204291051346L105.4200280053275,36.94351722329361L106.41455657141549,73.11915557582233L107.4090851375035,74.79943309778906L108.40361370359149,96.11654357140685L109.39814226967948,97.90643957189674L110.39267083576746,115.19609339952004L111.38719940185547,129.75093971134078L112.38172796794346,132.47481361035003L113.37625653403146,119.97476581091388L114.37078510011945,134.92019171066784L115.36531366620746,142.03693759361641L116.35984223229545,130.1336598580453L117.35437079838344,133.76385166449415L118.34889936447144,128.03417357732087L119.34342793055943,120.50905133483435L120.33795649664744,139.36263226374155L121.33248506273543,116.88810287017213L122.32701362882341,141.7272879339152L123.3215421949114,104.28784932832511L124.31607076099941,76.96240753037306L125.3105993270874,100.90723460745969L126.3051278931754,115.06887823276368L127.29965645926339,108.7056774079848L128.29418502535137,125.10718754155468L129.28871359143938,108.66072039135554L130.28324215752738,125.66476844038098L131.27777072361536,116.4291851322513L132.27229928970337,106.36191746668273L133.26682785579138,126.77651549625537L134.26135642187936,131.51972750893657L135.25588498796736,134.9981143730239L136.25041355405534,105.87852757350794L137.24494212014335,118.04625545283396L138.23947068623136,133.96785500703464L139.23399925231934,143.06888475513642L140.22852781840731,139.9841196112138L141.22305638449532,132.8695039185783L142.2175849505833,138.39680424262866L143.2121135166713,123.57626349519596L144.20664208275932,117.78096383628363L145.20117064884732,135.51425677403822L146.1956992149353,65.37285590688404L147.1902277810233,110.64264055983472L148.1847563471113,98.98998387819238L149.1792849131993,108.07840594035704L150.17381347928728,148.8188983438378L151.16834204537525,159.99592693415377L152.16287061146326,157.8687280052426L153.15739917755127,168.66980306614423L154.15192774363928,153.52113840189116L155.14645630972726,100.73324557681792L156.14098487581526,103.8415426898089L157.13551344190324,127.37539581186766L158.13004200799125,104.63468042846995L159.12457057407923,86.39675950235564L160.11909914016724,76.79055686310673L161.11362770625524,97.68897896835206L162.10815627234325,73.48060477785235L163.10268483843123,92.47500651108663L164.0972134045192,68.70888903806178L165.09174197060722,62.129927145444434L166.0862705366952,85.3853471690161L167.0807991027832,115.4141905826254L168.07532766887118,97.36664188293504L169.0698562349592,74.65217923319791L170.0643848010472,66.41128708813467L171.0589133671352,90.92282643489834L172.05344193322318,77.18085184522792L173.0479704993112,100.63559472588452L174.04249906539917,85.39568837466943L175.03702763148715,186.32468546077024L176.03155619757516,152.30000273286865L177.02608476366314,140.79612912039127L178.02061332975114,140.40544933694542L179.01514189583915,119.08110077801344L180.00967046192716,104.8281597314175L181.00419902801514,107.56140137250827L181.99872759410314,89.73606535911972L182.99325616019112,128.90253879981069L183.98778472627913,134.65512225380652L184.9823132923671,51.168039141112885L185.9768418584551,72.7631006165107L186.9713704245431,78.39156989562815L187.9658989906311,93.99903446440847L188.9604275567191,105.22656071041907L189.9549561228071,124.66656191952303L190.9494846888951,130.94022362018788L191.94401325498308,-256.5983136101929L192.93854182107108,-104.06620008373056L193.93307038715906,4.586915136464999L194.92759895324707,33.61845783534937L195.92212751933508,70.17699481366448L196.91665608542309,68.93395366090917L197.91118465151106,92.16483435599275L198.90571321759904,83.72177836772413L199.90024178368705,114.28566335273645L200.89477034977503,123.6838876936832L201.88929891586304,92.73824883515469L202.88382748195102,120.15058899144984L203.87835604803902,142.06753910104933L204.87288461412703,147.3750821308937L205.86741318021504,146.47728469252777L206.86194174630302,123.69588136465593L207.85647031239102,116.15984903703382L208.850998878479,136.68237748538908L209.84552744456698,153.02703501838167L210.840056010655,161.18868369414417L211.83458457674297,154.75419607526138L212.82911314283098,147.96262245216582L213.82364170891898,114.7136170341797L214.818170275007,87.15624771488022L215.81269884109497,114.80800854428824L216.80722740718298,82.14473177776362L217.80175597327096,123.93198438350743L218.79628453935896,135.37706032302086L219.79081310544694,110.96034277961243L220.78534167153492,133.08891178762056L221.77987023762293,157.96156482279474L222.77439880371094,157.04399232538228L223.76892736979894,132.61147128995407L224.76345593588692,143.8367864651279L225.75798450197493,-165.918011094627L226.7525130680629,-35.547096428632315L227.74704163415092,43.45338173600557L228.7415702002389,73.8313125211285L229.7360987663269,105.16649443105104L230.7306273324149,129.8799081607226L231.72515589850292,141.1611181052956L232.7196844645909,155.5614633464546L233.71421303067888,152.19592968158938L234.70874159676688,126.46082169392182L235.70327016285486,148.08451076561786L236.69779872894287,157.23461927057198L237.69232729503085,161.91295266399393L238.68685586111886,167.46081059007452L239.68138442720686,163.25213164030941L240.67591299329487,151.18645025333296L241.67044155938285,154.12879376447674L242.66497012547086,163.01491526586696L243.65949869155884,165.34403816943046L244.65402725764682,155.93819672018768L245.64855582373482,151.42710873374946L246.6430843898228,175.26605899304926L247.6376129559108,160.3696672335332L248.63214152199882,182.7756427574175L249.62667008808683,193.77569738309617L250.6211986541748,172.31509498392091L251.6157272202628,158.76741039384146L252.6102557863508,128.29452971006094L253.6047843524388,138.69045724502053L254.59931291852678,138.36923167512737L255.59384148461476,141.79065558432703L256.58837005070274,145.9353213958879L257.58289861679077,174.83941995777144L258.57742718287875,152.594632939999L259.5719557489668,144.64571448373786L260.56648431505477,124.90004603224074L261.56101288114274,115.824490889973L262.5555414472307,125.54178683439463L263.55007001331876,90.46603634282653L264.54459857940674,76.3371914145027L265.5391271454948,122.38636356681938L266.53365571158275,150.98955918872426L267.52818427767073,157.98721202403976L268.5227128437587,134.9157852974914" fill="none"></path></g><g><path style="fill: none;" stroke="rgb(0, 119, 187)" stroke-width="2px" d="M258.57742718287875,100.09438987518409Z" fill="none"></path></g></g></g></g><g opacity="0.2"><g><g><g><path style="fill: none;" stroke="rgb(255, 112, 67)" stroke-width="2px" d="M20.8850998878479,5.760255380693466L21.879628453935894,43.56901740519058L22.87415702002389,57.7358077408139L23.868685586111887,109.49325139319637L24.86321415219988,98.45304372754498L25.857742718287877,96.60614589102778L26.852271284375874,97.77774450718209L27.846799850463867,-95.39467921926898L28.841328416551864,65.79246772536855L29.835856982639857,91.49461486116513L30.83038554872785,37.18387875558095L31.824914114815847,25.988750067935165L32.81944268090384,-328.80209189517L33.81397124699184,69.97504775389966L34.808499813079834,-8.997750076484742L35.80302837916783,98.19952614372446L36.79755694525583,107.20973354975898L37.792085511343814,113.62004375015175L38.786614077431814,-26.85524955073566L39.78114264351981,79.10584088303095L40.77567120960781,47.16992948070452L41.7701997756958,110.4019194541406L42.7647283417838,-12.489329818322885L43.75925690787179,53.66087299609647L44.75378547395979,48.97917543166338L45.74831404004778,-86.40715113126676L46.742842606135774,35.996694099223504L47.737371172223774,44.280607368609424L48.73189973831177,-55.05781546337451L49.72642830439976,75.49296609031312L50.720956870487754,84.39155981115384L51.715485436575754,3.5625278569472996L52.71001400266375,52.46093961066759L53.70454256875175,67.47087145691005L54.69907113483974,41.136118964874036L55.693599700927734,93.13816567623766L56.68812826701573,92.68824098063236L57.68265683310373,70.77618555715712L58.67718539919172,74.56959385613916L59.671713965279714,77.05018979710192L60.666242531367715,44.478471478002334L61.6607710974557,75.40081099159674L62.6552996635437,116.47125387218067L63.649828229631694,137.79466309093647L64.64435679571969,102.63395587723517L65.63888536180768,86.54952663701407L66.63341392789569,112.62303562370202L67.62794249398368,119.17745439015492L68.62247106007167,72.4009487714928L69.61699962615967,94.88815400079078L70.61152819224766,107.5493673606305L71.60605675833565,-13.707686555086573L72.60058532442366,51.12795933838793L73.59511389051166,88.03857819255771L74.58964245659965,-39.357937736602885L75.58417102268763,6.66275037282414L76.57869958877563,57.579103813851624L77.57322815486363,2.199008147959683L78.56775672095162,51.90649450769769L79.56228528703961,92.64614141816489L80.55681385312762,-52.303898273732855L81.55134241921562,94.45082466608766L82.54587098530361,13.974692869395358L83.5403995513916,122.34377858699162L84.5349281174796,111.81865791786853L85.5294566835676,76.15722280248781L86.5239852496556,121.33438598087251L87.51851381574357,132.9465610628341L88.51304238183157,89.99979282825231L89.50757094791958,79.88075272934145L90.50209951400757,101.37871409575952L91.49662808009556,108.67637418156653L92.49115664618355,100.70278223169838L93.48568521227155,140.13400694799194L94.48021377835956,100.28872651668357L95.47474234444755,22.526233594175636L96.46927091053554,88.67919703564205L97.46379947662354,125.49459342770983L98.45832804271154,90.07492406017855L99.45285660879952,-407.28940278569723L100.44738517488751,116.50953840143728L101.44191374097551,132.2820359563632L102.43644230706352,168.82127378862037L103.43097087315151,110.6856889093517L104.4254994392395,88.9935634406246L105.4200280053275,-51.20927130753616L106.41455657141549,127.38261310461534L107.4090851375035,77.31984938073923L108.40361370359149,128.09220928183356L109.39814226967948,100.5912835726315L110.39267083576746,141.130574140955L111.38719940185547,151.5832091790719L112.38172796794346,136.56062445886383L113.37625653403146,101.22469411175966L114.37078510011945,157.33833056029871L115.36531366620746,152.7120564180393L116.35984223229545,112.27874325468862L117.35437079838344,139.2091393741675L118.34889936447144,119.43965644656097L119.34342793055943,109.22136797110453L120.33795649664744,167.64300365710238L121.33248506273543,83.17630877981807L122.32701362882341,178.9860655295297L123.3215421949114,48.12869141993994L124.31607076099941,35.97424483344508L125.3105993270874,136.82447522308962L126.3051278931754,136.31134367071968L127.29965645926339,99.16087617081645L128.29418502535137,149.7094527419095L129.28871359143938,83.99101966605684L130.28324215752738,151.1708405139192L131.27777072361536,102.57581017005673L132.27229928970337,91.26101596832989L133.26682785579138,157.39841254061434L134.26135642187936,138.63454552795838L135.25588498796736,140.2156946691549L136.25041355405534,62.199147374233995L137.24494212014335,136.297847271823L138.23947068623136,157.85025433833562L139.23399925231934,156.72042937728907L140.22852781840731,135.3569718953299L141.22305638449532,122.19758037962504L142.2175849505833,146.68775472870425L143.2121135166713,101.34545237404686L144.20664208275932,109.08801434791519L145.20117064884732,162.11419618066998L146.1956992149353,-39.839245393847186L147.1902277810233,178.54731753926072L148.1847563471113,81.5109988557289L149.1792849131993,121.71103903360405L150.17381347928728,209.9296369490589L151.16834204537525,176.76146981962773L152.16287061146326,154.6779296118758L153.15739917755127,184.87141565749675L154.15192774363928,130.7981414055116L155.14645630972726,21.551406339208103L156.14098487581526,108.50398835929533L157.13551344190324,162.6761754949558L158.13004200799125,70.52360735337344L159.12457057407923,59.039878113184194L160.11909914016724,62.381252904233335L161.11362770625524,129.0366121262201L162.10815627234325,37.16804349210275L163.10268483843123,120.96660911093805L164.0972134045192,33.05971282852452L165.09174197060722,52.2614843065184L166.0862705366952,120.26847720437354L167.0807991027832,160.4574557030394L168.07532766887118,70.2953188333995L169.0698562349592,40.580485258592205L170.0643848010472,54.04994887053975L171.0589133671352,127.69013545504377L172.05344193322318,56.5678899607223L173.0479704993112,135.81770904686945L174.04249906539917,62.535828847846844L175.03702763148715,337.7181810899215L176.03155619757516,101.26297864101628L177.02608476366314,123.54031870167518L178.02061332975114,139.81942966177664L179.01514189583915,87.09457793961553L180.00967046192716,83.44874816152358L181.00419902801514,111.66126383414449L181.99872759410314,62.99806133903688L182.99325616019112,187.65224896084712L183.98778472627913,143.28399743480028L184.9823132923671,-74.06258552792765L185.9768418584551,105.1556928296074L186.9713704245431,86.83427381430434L187.9658989906311,117.4102313175789L188.9604275567191,122.06785007943496L189.9549561228071,153.826563733179L190.9494846888951,140.35071617118518L191.94401325498308,-837.906119455764L192.93854182107108,124.73197020596294L193.93307038715906,167.5665879667584L194.92759895324707,77.16577188367589L195.92212751933508,125.01480028113718L196.91665608542309,67.06939193177621L197.91118465151106,127.01115539861814L198.90571321759904,71.0571943853212L199.90024178368705,160.13149083025496L200.89477034977503,137.78122420510326L201.88929891586304,46.31979054736197L202.88382748195102,161.26909922589255L203.87835604803902,174.94296426544855L204.87288461412703,155.33639667566018L205.86741318021504,145.13058853497893L206.86194174630302,89.52377637284819L207.85647031239102,104.85580054560069L208.850998878479,167.46617015792202L209.84552744456698,177.54402131787052L210.840056010655,173.43115670778792L211.83458457674297,145.1024646469371L212.82911314283098,137.7752620175225L213.82364170891898,64.84010890720059L214.818170275007,45.820193735930985L215.81269884109497,156.28564978840018L216.80722740718298,33.149816627976776L217.80175597327096,186.61286329212308L218.79628453935896,152.5446742322909L219.79081310544694,74.33526646449984L220.78534167153492,166.2817652996328L221.77987023762293,195.270544375556L222.77439880371094,155.66763357926357L223.76892736979894,95.96268973681174L224.76345593588692,160.67475922788856L225.75798450197493,-630.5502074342592L226.7525130680629,160.00927557035965L227.74704163415092,161.9540989829624L228.7415702002389,119.39820869881294L229.7360987663269,152.16926729593473L230.7306273324149,166.95002875522994L231.72515589850292,158.0829330221552L232.7196844645909,177.16198120819297L233.71421303067888,147.1476291842916L234.70874159676688,87.85815971242044L235.70327016285486,180.52004437316194L236.69779872894287,170.95978202800316L237.69232729503085,168.93045275412692L238.68685586111886,175.78259747919543L239.68138442720686,156.9391132156618L240.67591299329487,133.08792817286832L241.67044155938285,158.54230903119236L242.66497012547086,176.3440975179522L243.65949869155884,168.8377225247757L244.65402725764682,141.82943454632357L245.64855582373482,144.6604767540921L246.6430843898228,211.02448438199895L247.6376129559108,138.02507959425913L248.63214152199882,216.38460604324402L249.62667008808683,210.2757793216142L250.6211986541748,140.12419138515799L251.6157272202628,138.44588350872232L252.6102557863508,82.58520868439015L253.6047843524388,154.28434854745993L254.59931291852678,137.88739332028763L255.59384148461476,146.92279144812647L256.58837005070274,152.15232011322928L257.58289861679077,218.19556780059668L258.57742718287875,119.22745241334034L259.5719557489668,132.72233679934612L260.56648431505477,95.28154335499505L261.56101288114274,102.21115817657136L262.5555414472307,140.11773075102707L263.55007001331876,37.852410605474326L264.54459857940674,55.14392402201704L265.5391271454948,191.4601217952944L266.53365571158275,193.89435262158156L267.52818427767073,168.483691277013L268.5227128437587,100.30864520766885" fill="none"></path></g><g><path style="fill: none;" stroke="rgb(0, 119, 187)" stroke-width="2px" d="M258.57742718287875,100.09438987518409Z" fill="none"></path></g></g></g></g></g></g><g transform="translate(51, 176)" clip-path="url(#clip_1)"><clipPath id="clip_1"><rect width="278" height="23"></rect></clipPath><g><g><line x1="0" y1="0" x2="0" y2="5" style="visibility: inherit;" fill="rgb(0, 0, 0)" stroke="rgb(204, 204, 204)" stroke-width="1px"></line><line x1="19.890571321759904" y1="0" x2="19.890571321759904" y2="5" style="visibility: inherit;" fill="rgb(0, 0, 0)" stroke="rgb(204, 204, 204)" stroke-width="1px"></line><line x1="39.78114264351981" y1="0" x2="39.78114264351981" y2="5" style="visibility: inherit;" fill="rgb(0, 0, 0)" stroke="rgb(204, 204, 204)" stroke-width="1px"></line><line x1="59.671713965279714" y1="0" x2="59.671713965279714" y2="5" style="visibility: inherit;" fill="rgb(0, 0, 0)" stroke="rgb(204, 204, 204)" stroke-width="1px"></line><line x1="79.56228528703961" y1="0" x2="79.56228528703961" y2="5" style="visibility: inherit;" fill="rgb(0, 0, 0)" stroke="rgb(204, 204, 204)" stroke-width="1px"></line><line x1="99.45285660879952" y1="0" x2="99.45285660879952" y2="5" style="visibility: inherit;" fill="rgb(0, 0, 0)" stroke="rgb(204, 204, 204)" stroke-width="1px"></line><line x1="119.34342793055943" y1="0" x2="119.34342793055943" y2="5" style="visibility: inherit;" fill="rgb(0, 0, 0)" stroke="rgb(204, 204, 204)" stroke-width="1px"></line><line x1="139.23399925231934" y1="0" x2="139.23399925231934" y2="5" style="visibility: inherit;" fill="rgb(0, 0, 0)" stroke="rgb(204, 204, 204)" stroke-width="1px"></line><line x1="159.12457057407923" y1="0" x2="159.12457057407923" y2="5" style="visibility: inherit;" fill="rgb(0, 0, 0)" stroke="rgb(204, 204, 204)" stroke-width="1px"></line><line x1="179.01514189583915" y1="0" x2="179.01514189583915" y2="5" style="visibility: inherit;" fill="rgb(0, 0, 0)" stroke="rgb(204, 204, 204)" stroke-width="1px"></line><line x1="198.90571321759904" y1="0" x2="198.90571321759904" y2="5" style="visibility: inherit;" fill="rgb(0, 0, 0)" stroke="rgb(204, 204, 204)" stroke-width="1px"></line><line x1="218.79628453935896" y1="0" x2="218.79628453935896" y2="5" style="visibility: inherit;" fill="rgb(0, 0, 0)" stroke="rgb(204, 204, 204)" stroke-width="1px"></line><line x1="238.68685586111886" y1="0" x2="238.68685586111886" y2="5" style="visibility: inherit;" fill="rgb(0, 0, 0)" stroke="rgb(204, 204, 204)" stroke-width="1px"></line><line x1="258.57742718287875" y1="0" x2="258.57742718287875" y2="5" style="visibility: inherit;" fill="rgb(0, 0, 0)" stroke="rgb(204, 204, 204)" stroke-width="1px"></line><line x1="278.4679985046387" y1="0" x2="278.4679985046387" y2="5" style="visibility: inherit;" fill="rgb(0, 0, 0)" stroke="rgb(204, 204, 204)" stroke-width="1px"></line></g><g transform="translate(0, 8)"><text style="text-anchor: middle; visibility: hidden; font-family: Roboto, sans-serif; font-size: 12px; font-weight: 200;" x="0" y="0" dx="0em" dy="0.95em" fill="rgb(33, 33, 33)" stroke="none" stroke-width="1px">-2k</text><text style="text-anchor: middle; visibility: inherit; font-family: Roboto, sans-serif; font-size: 12px; font-weight: 200;" x="19.890571321759904" y="0" dx="0em" dy="0.95em" fill="rgb(33, 33, 33)" stroke="none" stroke-width="1px">0</text><text style="text-anchor: middle; visibility: hidden; font-family: Roboto, sans-serif; font-size: 12px; font-weight: 200;" x="39.78114264351981" y="0" dx="0em" dy="0.95em" fill="rgb(33, 33, 33)" stroke="none" stroke-width="1px">2k</text><text style="text-anchor: middle; visibility: inherit; font-family: Roboto, sans-serif; font-size: 12px; font-weight: 200;" x="59.671713965279714" y="0" dx="0em" dy="0.95em" fill="rgb(33, 33, 33)" stroke="none" stroke-width="1px">4k</text><text style="text-anchor: middle; visibility: hidden; font-family: Roboto, sans-serif; font-size: 12px; font-weight: 200;" x="79.56228528703961" y="0" dx="0em" dy="0.95em" fill="rgb(33, 33, 33)" stroke="none" stroke-width="1px">6k</text><text style="text-anchor: middle; visibility: inherit; font-family: Roboto, sans-serif; font-size: 12px; font-weight: 200;" x="99.45285660879952" y="0" dx="0em" dy="0.95em" fill="rgb(33, 33, 33)" stroke="none" stroke-width="1px">8k</text><text style="text-anchor: middle; visibility: hidden; font-family: Roboto, sans-serif; font-size: 12px; font-weight: 200;" x="119.34342793055943" y="0" dx="0em" dy="0.95em" fill="rgb(33, 33, 33)" stroke="none" stroke-width="1px">10k</text><text style="text-anchor: middle; visibility: inherit; font-family: Roboto, sans-serif; font-size: 12px; font-weight: 200;" x="139.23399925231934" y="0" dx="0em" dy="0.95em" fill="rgb(33, 33, 33)" stroke="none" stroke-width="1px">12k</text><text style="text-anchor: middle; visibility: hidden; font-family: Roboto, sans-serif; font-size: 12px; font-weight: 200;" x="159.12457057407923" y="0" dx="0em" dy="0.95em" fill="rgb(33, 33, 33)" stroke="none" stroke-width="1px">14k</text><text style="text-anchor: middle; visibility: inherit; font-family: Roboto, sans-serif; font-size: 12px; font-weight: 200;" x="179.01514189583915" y="0" dx="0em" dy="0.95em" fill="rgb(33, 33, 33)" stroke="none" stroke-width="1px">16k</text><text style="text-anchor: middle; visibility: hidden; font-family: Roboto, sans-serif; font-size: 12px; font-weight: 200;" x="198.90571321759904" y="0" dx="0em" dy="0.95em" fill="rgb(33, 33, 33)" stroke="none" stroke-width="1px">18k</text><text style="text-anchor: middle; visibility: inherit; font-family: Roboto, sans-serif; font-size: 12px; font-weight: 200;" x="218.79628453935896" y="0" dx="0em" dy="0.95em" fill="rgb(33, 33, 33)" stroke="none" stroke-width="1px">20k</text><text style="text-anchor: middle; visibility: hidden; font-family: Roboto, sans-serif; font-size: 12px; font-weight: 200;" x="238.68685586111886" y="0" dx="0em" dy="0.95em" fill="rgb(33, 33, 33)" stroke="none" stroke-width="1px">22k</text><text style="text-anchor: middle; visibility: inherit; font-family: Roboto, sans-serif; font-size: 12px; font-weight: 200;" x="258.57742718287875" y="0" dx="0em" dy="0.95em" fill="rgb(33, 33, 33)" stroke="none" stroke-width="1px">24k</text><text style="text-anchor: middle; visibility: hidden; font-family: Roboto, sans-serif; font-size: 12px; font-weight: 200;" x="278.4679985046387" y="0" dx="0em" dy="0.95em" fill="rgb(33, 33, 33)" stroke="none" stroke-width="1px">26k</text></g><line x1="0" y1="0" x2="278.4679985046387" y2="0" fill="rgb(0, 0, 0)" stroke="rgb(204, 204, 204)" stroke-width="1px"></line></g></g></g></g></svg>