<svg viewBox="0 0 330 200" xmlns="http://www.w3.org/2000/svg"><g><g><g><g><g><line x1="51.53200149536133" y1="176.89999961853027" x2="46.53200149536133" y2="176.89999961853027" style="visibility: inherit;" fill="rgb(0, 0, 0)" stroke="rgb(204, 204, 204)" stroke-width="1px"></line><line x1="51.53200149536133" y1="157.24444410536063" x2="46.53200149536133" y2="157.24444410536063" style="visibility: inherit;" fill="rgb(0, 0, 0)" stroke="rgb(204, 204, 204)" stroke-width="1px"></line><line x1="51.53200149536133" y1="137.58888859219013" x2="46.53200149536133" y2="137.58888859219013" style="visibility: inherit;" fill="rgb(0, 0, 0)" stroke="rgb(204, 204, 204)" stroke-width="1px"></line><line x1="51.53200149536133" y1="117.93333307902047" x2="46.53200149536133" y2="117.93333307902047" style="visibility: inherit;" fill="rgb(0, 0, 0)" stroke="rgb(204, 204, 204)" stroke-width="1px"></line><line x1="51.53200149536133" y1="98.27777756584996" x2="46.53200149536133" y2="98.27777756584996" style="visibility: inherit;" fill="rgb(0, 0, 0)" stroke="rgb(204, 204, 204)" stroke-width="1px"></line><line x1="51.53200149536133" y1="78.62222205268031" x2="46.53200149536133" y2="78.62222205268031" style="visibility: inherit;" fill="rgb(0, 0, 0)" stroke="rgb(204, 204, 204)" stroke-width="1px"></line><line x1="51.53200149536133" y1="58.9666665395098" x2="46.53200149536133" y2="58.9666665395098" style="visibility: inherit;" fill="rgb(0, 0, 0)" stroke="rgb(204, 204, 204)" stroke-width="1px"></line><line x1="51.53200149536133" y1="39.31111102634016" x2="46.53200149536133" y2="39.31111102634016" style="visibility: inherit;" fill="rgb(0, 0, 0)" stroke="rgb(204, 204, 204)" stroke-width="1px"></line><line x1="51.53200149536133" y1="19.655555513169645" x2="46.53200149536133" y2="19.655555513169645" style="visibility: inherit;" fill="rgb(0, 0, 0)" stroke="rgb(204, 204, 204)" stroke-width="1px"></line><line x1="51.53200149536133" y1="0" x2="46.53200149536133" y2="0" style="visibility: inherit;" fill="rgb(0, 0, 0)" stroke="rgb(204, 204, 204)" stroke-width="1px"></line></g><g transform="translate(41.53200149536133, 0)"><text style="text-anchor: end; visibility: hidden; font-family: Roboto, sans-serif; font-size: 12px; font-weight: 200;" x="0" y="176.89999961853027" dx="0em" dy="0.3em" fill="rgb(33, 33, 33)" stroke="none" stroke-width="1px">4.24</text><text style="text-anchor: end; visibility: inherit; font-family: Roboto, sans-serif; font-size: 12px; font-weight: 200;" x="0" y="157.24444410536063" dx="0em" dy="0.3em" fill="rgb(33, 33, 33)" stroke="none" stroke-width="1px">4.26</text><text style="text-anchor: end; visibility: hidden; font-family: Roboto, sans-serif; font-size: 12px; font-weight: 200;" x="0" y="137.58888859219013" dx="0em" dy="0.3em" fill="rgb(33, 33, 33)" stroke="none" stroke-width="1px">4.28</text><text style="text-anchor: end; visibility: inherit; font-family: Roboto, sans-serif; font-size: 12px; font-weight: 200;" x="0" y="117.93333307902047" dx="0em" dy="0.3em" fill="rgb(33, 33, 33)" stroke="none" stroke-width="1px">4.3</text><text style="text-anchor: end; visibility: hidden; font-family: Roboto, sans-serif; font-size: 12px; font-weight: 200;" x="0" y="98.27777756584996" dx="0em" dy="0.3em" fill="rgb(33, 33, 33)" stroke="none" stroke-width="1px">4.32</text><text style="text-anchor: end; visibility: inherit; font-family: Roboto, sans-serif; font-size: 12px; font-weight: 200;" x="0" y="78.62222205268031" dx="0em" dy="0.3em" fill="rgb(33, 33, 33)" stroke="none" stroke-width="1px">4.34</text><text style="text-anchor: end; visibility: hidden; font-family: Roboto, sans-serif; font-size: 12px; font-weight: 200;" x="0" y="58.9666665395098" dx="0em" dy="0.3em" fill="rgb(33, 33, 33)" stroke="none" stroke-width="1px">4.36</text><text style="text-anchor: end; visibility: inherit; font-family: Roboto, sans-serif; font-size: 12px; font-weight: 200;" x="0" y="39.31111102634016" dx="0em" dy="0.3em" fill="rgb(33, 33, 33)" stroke="none" stroke-width="1px">4.38</text><text style="text-anchor: end; visibility: hidden; font-family: Roboto, sans-serif; font-size: 12px; font-weight: 200;" x="0" y="19.655555513169645" dx="0em" dy="0.3em" fill="rgb(33, 33, 33)" stroke="none" stroke-width="1px">4.4</text><text style="text-anchor: end; visibility: hidden; font-family: Roboto, sans-serif; font-size: 12px; font-weight: 200;" x="0" y="0" dx="0em" dy="0.3em" fill="rgb(33, 33, 33)" stroke="none" stroke-width="1px">4.42</text></g><line x1="51.53200149536133" y1="0" x2="51.53200149536133" y2="176.89999961853027" fill="rgb(0, 0, 0)" stroke="rgb(204, 204, 204)" stroke-width="1px"></line></g></g><g transform="translate(51, 0)" clip-path="url(#clip_0)"><clipPath id="clip_0"><rect width="278" height="176"></rect></clipPath><g><g><g><line x1="0" y1="0" x2="0" y2="176.89999961853027" fill="rgb(0, 0, 0)" stroke="rgb(66, 66, 66)" stroke-width="1px" opacity="0.25"></line><line x1="19.890571321759904" y1="0" x2="19.890571321759904" y2="176.89999961853027" fill="rgb(0, 0, 0)" stroke="rgb(66, 66, 66)" stroke-width="1px" opacity="0.25"></line><line x1="39.78114264351981" y1="0" x2="39.78114264351981" y2="176.89999961853027" fill="rgb(0, 0, 0)" stroke="rgb(66, 66, 66)" stroke-width="1px" opacity="0.25"></line><line x1="59.671713965279714" y1="0" x2="59.671713965279714" y2="176.89999961853027" fill="rgb(0, 0, 0)" stroke="rgb(66, 66, 66)" stroke-width="1px" opacity="0.25"></line><line x1="79.56228528703961" y1="0" x2="79.56228528703961" y2="176.89999961853027" fill="rgb(0, 0, 0)" stroke="rgb(66, 66, 66)" stroke-width="1px" opacity="0.25"></line><line x1="99.45285660879952" y1="0" x2="99.45285660879952" y2="176.89999961853027" fill="rgb(0, 0, 0)" stroke="rgb(66, 66, 66)" stroke-width="1px" opacity="0.25"></line><line x1="119.34342793055943" y1="0" x2="119.34342793055943" y2="176.89999961853027" fill="rgb(0, 0, 0)" stroke="rgb(66, 66, 66)" stroke-width="1px" opacity="0.25"></line><line x1="139.23399925231934" y1="0" x2="139.23399925231934" y2="176.89999961853027" fill="rgb(0, 0, 0)" stroke="rgb(66, 66, 66)" stroke-width="1px" opacity="0.25"></line><line x1="159.12457057407923" y1="0" x2="159.12457057407923" y2="176.89999961853027" fill="rgb(0, 0, 0)" stroke="rgb(66, 66, 66)" stroke-width="1px" opacity="0.25"></line><line x1="179.01514189583915" y1="0" x2="179.01514189583915" y2="176.89999961853027" fill="rgb(0, 0, 0)" stroke="rgb(66, 66, 66)" stroke-width="1px" opacity="0.25"></line><line x1="198.90571321759904" y1="0" x2="198.90571321759904" y2="176.89999961853027" fill="rgb(0, 0, 0)" stroke="rgb(66, 66, 66)" stroke-width="1px" opacity="0.25"></line><line x1="218.79628453935896" y1="0" x2="218.79628453935896" y2="176.89999961853027" fill="rgb(0, 0, 0)" stroke="rgb(66, 66, 66)" stroke-width="1px" opacity="0.25"></line><line x1="238.68685586111886" y1="0" x2="238.68685586111886" y2="176.89999961853027" fill="rgb(0, 0, 0)" stroke="rgb(66, 66, 66)" stroke-width="1px" opacity="0.25"></line><line x1="258.57742718287875" y1="0" x2="258.57742718287875" y2="176.89999961853027" fill="rgb(0, 0, 0)" stroke="rgb(66, 66, 66)" stroke-width="1px" opacity="0.25"></line><line x1="278.4679985046387" y1="0" x2="278.4679985046387" y2="176.89999961853027" fill="rgb(0, 0, 0)" stroke="rgb(66, 66, 66)" stroke-width="1px" opacity="0.25"></line></g><g><line x1="0" y1="176.89999961853027" x2="278.4679985046387" y2="176.89999961853027" fill="rgb(0, 0, 0)" stroke="rgb(66, 66, 66)" stroke-width="1px" opacity="0.25"></line><line x1="0" y1="157.24444410536063" x2="278.4679985046387" y2="157.24444410536063" fill="rgb(0, 0, 0)" stroke="rgb(66, 66, 66)" stroke-width="1px" opacity="0.25"></line><line x1="0" y1="137.58888859219013" x2="278.4679985046387" y2="137.58888859219013" fill="rgb(0, 0, 0)" stroke="rgb(66, 66, 66)" stroke-width="1px" opacity="0.25"></line><line x1="0" y1="117.93333307902047" x2="278.4679985046387" y2="117.93333307902047" fill="rgb(0, 0, 0)" stroke="rgb(66, 66, 66)" stroke-width="1px" opacity="0.25"></line><line x1="0" y1="98.27777756584996" x2="278.4679985046387" y2="98.27777756584996" fill="rgb(0, 0, 0)" stroke="rgb(66, 66, 66)" stroke-width="1px" opacity="0.25"></line><line x1="0" y1="78.62222205268031" x2="278.4679985046387" y2="78.62222205268031" fill="rgb(0, 0, 0)" stroke="rgb(66, 66, 66)" stroke-width="1px" opacity="0.25"></line><line x1="0" y1="58.9666665395098" x2="278.4679985046387" y2="58.9666665395098" fill="rgb(0, 0, 0)" stroke="rgb(66, 66, 66)" stroke-width="1px" opacity="0.25"></line><line x1="0" y1="39.31111102634016" x2="278.4679985046387" y2="39.31111102634016" fill="rgb(0, 0, 0)" stroke="rgb(66, 66, 66)" stroke-width="1px" opacity="0.25"></line><line x1="0" y1="19.655555513169645" x2="278.4679985046387" y2="19.655555513169645" fill="rgb(0, 0, 0)" stroke="rgb(66, 66, 66)" stroke-width="1px" opacity="0.25"></line><line x1="0" y1="0" x2="278.4679985046387" y2="0" fill="rgb(0, 0, 0)" stroke="rgb(66, 66, 66)" stroke-width="1px" opacity="0.25"></line></g></g></g><g><g><line x1="0" y1="4343.8777684105835" x2="278.4679985046387" y2="4343.8777684105835" fill="rgb(0, 0, 0)" stroke="rgb(153, 153, 153)" stroke-width="1.5px"></line></g></g><g><g><line x1="19.890571321759904" y1="0" x2="19.890571321759904" y2="176.89999961853027" fill="rgb(0, 0, 0)" stroke="rgb(153, 153, 153)" stroke-width="1.5px"></line></g></g><g><g><g><g><g><path style="fill: none;" stroke="rgb(255, 112, 67)" stroke-width="2px" d="M23.868685586111887,237.82831546531534L24.86321415219988,164.66712782517146L25.857742718287877,130.37994079251385L26.852271284375874,86.56336186804198L27.846799850463867,64.24124092753777L28.841328416551864,86.42632298118068L29.835856982639857,84.68025747202589L30.83038554872785,66.45104797161258L31.824914114815847,51.83614670126531L32.81944268090384,41.06217505864894L33.81397124699184,33.571081929866814L34.808499813079834,30.5249788351173L35.80302837916783,29.124052908802316L36.79755694525583,27.667872887319024L37.792085511343814,26.59691775704294L38.786614077431814,25.331480035275103L39.78114264351981,25.991502478342518L40.77567120960781,59.86249075241466L41.7701997756958,46.85350023887278L42.7647283417838,37.33359696591293L43.75925690787179,31.2916021314002L44.75378547395979,28.055383377506903L45.74831404004778,26.63476985992678L46.742842606135774,49.45079983979636L47.737371172223774,40.423325289118544L48.73189973831177,48.88883273675984L49.72642830439976,51.983601782580195L50.720956870487754,55.34006284852328L51.715485436575754,56.07759215591164L52.71001400266375,53.52990740443737L53.70454256875175,43.590040678036246L54.69907113483974,49.95695592839869L55.693599700927734,56.76093389541618L56.68812826701573,67.61251451922702L57.68265683310373,65.40778833067259L58.67718539919172,74.5774655383981L59.671713965279714,64.69056533740644L60.666242531367715,105.6629102284746L61.6607710974557,115.13053782051561L62.6552996635437,106.93962805280418L63.649828229631694,101.64043482506978L64.64435679571969,89.42245552696687L65.63888536180768,66.93333748715658L66.63341392789569,76.55338702551641L67.62794249398368,69.43448130183907L68.62247106007167,50.506423565715L69.61699962615967,39.06954778074638L70.61152819224766,31.820150641481014L71.60605675833565,29.525151639985417L72.60058532442366,29.65187601616617L73.59511389051166,26.098878938542136L74.58964245659965,25.265734185806355L75.58417102268763,24.014360345599542L76.57869958877563,24.452718744259602L77.57322815486363,39.55502437035476L78.56775672095162,43.9509650774085L79.56228528703961,35.808655782887215L80.55681385312762,66.7777660250917L81.55134241921562,58.53495191328398L82.54587098530361,60.55359272686802L83.5403995513916,52.49087667315533L84.5349281174796,90.3189255030336L85.5294566835676,115.88636386629015L86.5239852496556,151.76216015549338L87.51851381574357,157.88805933792113L88.51304238183157,111.17066966697023L89.50757094791958,82.53364771398685L90.50209951400757,63.880139612475176L91.49662808009556,48.72328012568345L92.49115664618355,39.75719277314235L93.48568521227155,41.692963463586906L94.48021377835956,38.81394145816084L95.47474234444755,35.90015730188996L96.46927091053554,57.53514769655981L97.46379947662354,43.3576383535532L98.45832804271154,40.4024640439305L99.45285660879952,50.34966975002902L100.44738517488751,92.53951606260097L101.44191374097551,67.81308809091084L102.43644230706352,57.81287856258602L103.43097087315151,59.68396515212456L104.4254994392395,84.07984485327502L105.4200280053275,77.92335842386287L106.41455657141549,76.02598721935125L107.4090851375035,77.4187016397255L108.40361370359149,59.52339057319303L109.39814226967948,65.15133739543381L110.39267083576746,56.34291923490983L111.38719940185547,51.221137275248296L112.38172796794346,53.281385929806596L113.37625653403146,84.97365883277092L114.37078510011945,74.22608890765176L115.36531366620746,131.09946392605062L116.35984223229545,181.87279657601948L124.31607076099941,184.78694762329002L125.3105993270874,121.12471549383474L126.3051278931754,82.75642183013629L127.29965645926339,59.4837003024976L128.29418502535137,46.592656198230536L129.28871359143938,46.72024444293946L130.28324215752738,33.120446507798526L131.27777072361536,25.6327633917615L132.27229928970337,21.341849705651253L133.26682785579138,18.696070499808208L134.26135642187936,16.910280892515427L135.25588498796736,16.959945486486678L136.25041355405534,15.91359388084425L137.24494212014335,15.715605732320684L138.23947068623136,16.188592444829094L139.23399925231934,16.870153339816774L140.22852781840731,46.572461332094086L141.22305638449532,35.97530375065901L142.2175849505833,29.274163179825607L143.2121135166713,24.25943156858903L144.20664208275932,20.729106744477367L145.20117064884732,18.82366758261772L146.1956992149353,17.408414157737642L147.1902277810233,15.750415418931976L148.1847563471113,15.380012074604412L149.1792849131993,15.754985719185672L150.17381347928728,15.343577207959335L151.16834204537525,16.28347795420793L152.16287061146326,16.8022429556498L153.15739917755127,18.214583166502557L154.15192774363928,18.34948990126062L155.14645630972726,18.519097784866887L156.14098487581526,18.561628319873005L157.13551344190324,17.722439861566293L158.13004200799125,18.508770131138153L159.12457057407923,17.12481344458779L160.11909914016724,47.23868290298464L161.11362770625524,33.777167355568494L162.10815627234325,25.085984427334946L163.10268483843123,19.216699323905445L164.0972134045192,16.134511025928813L165.09174197060722,13.98190397193746L166.0862705366952,13.433766378767439L167.0807991027832,14.040821596353089L168.07532766887118,18.21178901570621L169.0698562349592,29.879174118100952L170.0643848010472,44.09118098999577L171.0589133671352,71.52327841766872L172.05344193322318,80.99440144554806L173.0479704993112,80.01997650648968L174.04249906539917,57.04592047337556L175.03702763148715,43.963487046118615L176.03155619757516,37.33451383999004L177.02608476366314,33.34138411760011L178.02061332975114,30.3284209346132L179.01514189583915,29.127043725247464L180.00967046192716,58.8612164099507L181.00419902801514,45.88925388967252L181.99872759410314,37.68806291167866L182.99325616019112,33.45660191853591L183.98778472627913,30.667854493076707L184.9823132923671,29.296213063145164L185.9768418584551,35.54009262747411L186.9713704245431,33.20479306324072L187.9658989906311,26.183675334127955L188.9604275567191,22.57496854728696L189.9549561228071,20.209735341532127L190.9494846888951,18.343714654612135L191.94401325498308,16.920995617238955L192.93854182107108,16.198391734102902L193.93307038715906,15.206228449886755L194.92759895324707,14.287391805806163L195.92212751933508,14.042383094318685L196.91665608542309,14.300269834326345L197.91118465151106,13.777745083696102L198.90571321759904,13.887867198686417L199.90024178368705,46.27350447557518L200.89477034977503,33.55402782002249L201.88929891586304,26.880023798400437L202.88382748195102,22.451047170136416L203.87835604803902,20.02010077466618L204.87288461412703,19.76946063863701L205.86741318021504,18.37553335867843L206.86194174630302,17.44151554868635L207.85647031239102,16.826556917150533L208.850998878479,16.628161224284977L209.84552744456698,14.84550519456477L210.840056010655,14.34201053045491L211.83458457674297,14.849697665789298L212.82911314283098,14.967422312268058L213.82364170891898,14.613857784833012L214.818170275007,14.30818152601914L215.81269884109497,14.214939213359497L216.80722740718298,14.822379321532157L217.80175597327096,14.300954758856967L218.79628453935896,15.343175960475557L219.79081310544694,49.04780747723358L220.78534167153492,35.871497917644334L221.77987023762293,28.210521861878057L222.77439880371094,23.201733712115104L223.76892736979894,19.664665215731276L224.76345593588692,18.15351106794484L225.75798450197493,17.893521026405256L226.7525130680629,16.988289412731394L227.74704163415092,16.657343827180238L228.7415702002389,16.7545725516689L229.7360987663269,15.720826175639106L230.7306273324149,15.448110621611038L231.72515589850292,15.765290499887977L232.7196844645909,15.871808283703402L233.71421303067888,15.688659874189762L234.70874159676688,16.41967145973864L235.70327016285486,16.85171766160429L236.69779872894287,16.830895105617817L237.69232729503085,16.099905780762523L238.68685586111886,16.421609323694987L239.68138442720686,48.42301934913826L240.67591299329487,35.74424647054387L241.67044155938285,27.94972020869617L242.66497012547086,23.117608414290224L243.65949869155884,20.211593138198495L244.65402725764682,19.707028371252495L245.64855582373482,19.13511133309075L246.6430843898228,17.900636433058434L247.6376129559108,17.730549246393025L248.63214152199882,18.223650635739965L249.62667008808683,18.204033145138634L250.6211986541748,16.499776739137207L251.6157272202628,16.573055505953217L252.6102557863508,16.693127459821294L253.6047843524388,15.981067346242144L254.59931291852678,16.16941702777017L255.59384148461476,16.167519996081253L256.58837005070274,16.437247004924135L257.58289861679077,15.736063480781727L258.57742718287875,16.37856967937916L259.5719557489668,48.359705565613886L260.56648431505477,35.549924913209395L261.56101288114274,27.450166955602114L262.5555414472307,22.410360195748343L263.55007001331876,20.597777940813412L264.54459857940674,18.525553818348687L265.5391271454948,17.8456939988063L266.53365571158275,16.63380512280554L267.52818427767073,16.23733357017297L268.5227128437587,16.182401823637456" fill="none"></path></g></g></g></g><g opacity="0.2"><g><g><g><path style="fill: none;" stroke="rgb(255, 112, 67)" stroke-width="2px" d="M20.8850998878479,2009.3951071906486L21.879628453935894,29.36021611981978L22.87415702002389,22.06794309095874L23.868685586111887,59.67462764163471L24.86321415219988,69.14788124220188L25.857742718287877,82.94841773901626L26.852271284375874,23.904952940784295L27.846799850463867,31.69537430392198L28.841328416551864,119.14500977996644L29.835856982639857,82.08755368439137L30.83038554872785,39.27257130949065L31.824914114815847,29.993328443063216L32.81944268090384,24.936396481464396L33.81397124699184,22.349118067972867L34.808499813079834,25.959404772834077L35.80302837916783,27.0236520608325L36.79755694525583,25.484219061680232L37.792085511343814,24.990756977020464L38.786614077431814,23.433516229323956L39.78114264351981,26.981475814280383L40.77567120960781,110.66711559802924L41.7701997756958,27.34044253493506L42.7647283417838,23.053930010354904L43.75925690787179,22.22868145281849L44.75378547395979,23.20107824832563L45.74831404004778,24.503855641824355L46.742842606135774,83.67478642963604L47.737371172223774,26.882127322402063L48.73189973831177,61.58708611029239L49.72642830439976,56.62575364087834L50.720956870487754,60.37475333439987L51.715485436575754,57.18388597025136L52.71001400266375,49.708380581369475L53.70454256875175,28.680241300407303L54.69907113483974,59.50732853031132L55.693599700927734,66.96690067049575L56.68812826701573,83.88988528705184L57.68265683310373,62.10069906830482L58.67718539919172,88.33198129891315L59.671713965279714,49.860215068957096L60.666242531367715,167.1214274829229L61.6607710974557,129.33197919718776L62.6552996635437,94.65326340715211L63.649828229631694,93.69164498576384L64.64435679571969,71.09548658298631L65.63888536180768,33.199660430947496L66.63341392789569,90.98346133215622L67.62794249398368,58.75612271672195L68.62247106007167,22.114336962166067L69.61699962615967,21.914234103524354L70.61152819224766,20.94605493267243L71.60605675833565,26.082653137758587L72.60058532442366,29.841962580437283L73.59511389051166,20.769383322115225L74.58964245659965,24.016017056704857L75.58417102268763,22.13729958528889L76.57869958877563,25.110256342251446L77.57322815486363,62.20848280949356L78.56775672095162,50.54487613798645L79.56228528703961,23.595191841107077L80.55681385312762,113.23143138839795L81.55134241921562,46.17073074557024L82.54587098530361,63.581553947245816L83.5403995513916,40.39680259258541L84.5349281174796,147.060998747851L85.5294566835676,154.23752141117455L86.5239852496556,205.57585458929645L87.51851381574357,167.07690811156235L88.51304238183157,41.0945851605421L89.50757094791958,39.57811478451266L90.50209951400757,35.89987746020637L91.49662808009556,25.987990895497184L92.49115664618355,26.308061744331567L93.48568521227155,44.59661949925288L94.48021377835956,34.49540845002086L95.47474234444755,31.529481067483665L96.46927091053554,89.98763328856458L97.46379947662354,22.091374339043245L98.45832804271154,35.969702579498204L99.45285660879952,65.27047830917725L100.44738517488751,155.82428553145752L101.44191374097551,30.723446133376527L102.43644230706352,42.812564270098335L103.43097087315151,62.49059503643106L104.4254994392395,120.67366440499984L105.4200280053275,68.68862877974551L106.41455657141549,73.17993041258427L107.4090851375035,79.50777327028689L108.40361370359149,32.680423973394774L109.39814226967948,73.59325762879502L110.39267083576746,43.13029199412429L111.38719940185547,43.53846433575644L112.38172796794346,56.37175891164227L113.37625653403146,132.5120681872174L114.37078510011945,58.10473401997258L115.36531366620746,216.40952645365024L120.33795649664744,270.57226227587887L121.33248506273543,151.0026033006272L122.32701362882341,193.07715823605741L123.3215421949114,250.07554370147338L124.31607076099941,130.15394737999236L125.3105993270874,25.631367299650936L126.3051278931754,25.203981334589496L127.29965645926339,24.57461801103956L128.29418502535137,27.256090041830827L129.28871359143938,46.91162681000242L130.28324215752738,12.720749605086235L131.27777072361536,14.401238717707253L132.27229928970337,14.905479176485892L133.26682785579138,14.72740169104363L134.26135642187936,14.231596481575412L135.25588498796736,17.034442377444424L136.25041355405534,14.344066472381051L137.24494212014335,15.418623509536662L138.23947068623136,16.898072513592574L139.23399925231934,17.892494682299162L140.22852781840731,91.12592332051005L141.22305638449532,20.079567378507267L142.2175849505833,19.222452323575922L143.2121135166713,16.737334151732846L144.20664208275932,15.433619508310745L145.20117064884732,15.965508839829106L146.1956992149353,15.28553402041665L147.1902277810233,13.263417310723487L148.1847563471113,14.824407058113499L149.1792849131993,16.317446186058437L150.17381347928728,14.726464441120239L151.16834204537525,17.69332907358084L152.16287061146326,17.580390457813497L153.15739917755127,20.333093482781678L154.15192774363928,18.551850003397263L155.14645630972726,18.773509610276722L156.14098487581526,18.625424122382626L157.13551344190324,16.46365717410577L158.13004200799125,19.688265535495972L159.12457057407923,15.04887841476309L160.11909914016724,92.40948709057949L161.11362770625524,13.584894034442947L162.10815627234325,12.049210034984204L163.10268483843123,10.412771668762067L164.0972134045192,11.51122857896385L165.09174197060722,10.752993390949138L166.0862705366952,12.611559989012417L167.0807991027832,14.951404422731535L168.07532766887118,24.468240144735898L169.0698562349592,47.3802517716926L170.0643848010472,65.40919129783755L171.0589133671352,112.67142455917818L172.05344193322318,95.20108598736793L173.0479704993112,78.55833909790258L174.04249906539917,22.584836423703013L175.03702763148715,24.339836905232787L176.03155619757516,27.3910540307976L177.02608476366314,27.35168953401562L178.02061332975114,25.808976160131532L179.01514189583915,27.32497791119929L180.00967046192716,103.46247543700427L181.00419902801514,26.4313101092561L181.99872759410314,25.38627644468697L182.99325616019112,27.10941042882179L183.98778472627913,26.484733354888775L184.9823132923671,27.238750918248297L185.9768418584551,44.905911973968415L186.9713704245431,29.701843716891926L187.9658989906311,15.651998740458362L188.9604275567191,17.16190836702415L189.9549561228071,16.66188553290072L190.9494846888951,15.544683624231308L191.94401325498308,14.78691706117828L192.93854182107108,15.114485909399715L193.93307038715906,13.717983523562959L194.92759895324707,12.909136839685685L195.92212751933508,13.674870027087469L196.91665608542309,14.687099944338275L197.91118465151106,12.993957957751624L198.90571321759904,14.053050371171445L199.90024178368705,94.85196039090876L200.89477034977503,14.474812836692614L201.88929891586304,16.869017765967797L202.88382748195102,15.807582227739509L203.87835604803902,16.37368118146127L204.87288461412703,19.39350043459284L205.86741318021504,16.284642438740118L206.86194174630302,16.040488833699545L207.85647031239102,15.904118969847692L208.850998878479,16.33056768498576L209.84552744456698,12.171521149985344L210.840056010655,13.58676853428971L211.83458457674297,15.611228368791323L212.82911314283098,15.144009281986197L213.82364170891898,14.083510993681298L214.818170275007,13.849667137797912L215.81269884109497,14.075075744370874L216.80722740718298,15.733539483792462L217.80175597327096,13.518817914844636L218.79628453935896,16.906507762902997L219.79081310544694,99.60475475237065L220.78534167153492,16.10703357825954L221.77987023762293,16.719057778226922L222.77439880371094,15.68855148747021L223.76892736979894,14.359062471155136L224.76345593588692,15.88677984626516L225.75798450197493,17.503535964096315L226.7525130680629,15.630441992220618L227.74704163415092,16.16092544885392L228.7415702002389,16.900415638401025L229.7360987663269,14.170206611594L230.7306273324149,15.03903729056761L231.72515589850292,16.241060317302942L232.7196844645909,16.031584959427416L233.71421303067888,15.413937259919745L234.70874159676688,17.51618883806195L235.70327016285486,17.49978696440279L236.69779872894287,16.79966127163765L237.69232729503085,15.003421793479152L238.68685586111886,16.90416463809455L239.68138442720686,96.42513438730272L240.67591299329487,16.726087152652287L241.67044155938285,16.25793081592379L242.66497012547086,15.869440722682608L243.65949869155884,15.852570224061761L244.65402725764682,18.950181220833926L245.64855582373482,18.277235775846798L246.6430843898228,16.048924083009968L247.6376129559108,17.475418466394892L248.63214152199882,18.96330271976125L249.62667008808683,18.174606909236662L250.6211986541748,13.94339213013594L251.6157272202628,16.682973656176777L252.6102557863508,16.87323539062301L253.6047843524388,14.912977175872944L254.59931291852678,16.451941550063527L255.59384148461476,16.164674448547444L256.58837005070274,16.841837518189767L257.58289861679077,14.684288194568122L258.57742718287875,17.342328977274878L259.5719557489668,96.33140939496467L260.56648431505477,16.335253934602658L261.56101288114274,15.300530019190735L262.5555414472307,14.85065005596814L263.55007001331876,17.878904558410156L264.54459857940674,15.417217634651585L265.5391271454948,16.82590426949229L266.53365571158275,14.815971808803075L267.52818427767073,15.642626241224567L268.5227128437587,16.100004203834192" fill="none"></path></g></g></g></g></g></g><g transform="translate(51, 176)" clip-path="url(#clip_1)"><clipPath id="clip_1"><rect width="278" height="23"></rect></clipPath><g><g><line x1="0" y1="0" x2="0" y2="5" style="visibility: inherit;" fill="rgb(0, 0, 0)" stroke="rgb(204, 204, 204)" stroke-width="1px"></line><line x1="19.890571321759904" y1="0" x2="19.890571321759904" y2="5" style="visibility: inherit;" fill="rgb(0, 0, 0)" stroke="rgb(204, 204, 204)" stroke-width="1px"></line><line x1="39.78114264351981" y1="0" x2="39.78114264351981" y2="5" style="visibility: inherit;" fill="rgb(0, 0, 0)" stroke="rgb(204, 204, 204)" stroke-width="1px"></line><line x1="59.671713965279714" y1="0" x2="59.671713965279714" y2="5" style="visibility: inherit;" fill="rgb(0, 0, 0)" stroke="rgb(204, 204, 204)" stroke-width="1px"></line><line x1="79.56228528703961" y1="0" x2="79.56228528703961" y2="5" style="visibility: inherit;" fill="rgb(0, 0, 0)" stroke="rgb(204, 204, 204)" stroke-width="1px"></line><line x1="99.45285660879952" y1="0" x2="99.45285660879952" y2="5" style="visibility: inherit;" fill="rgb(0, 0, 0)" stroke="rgb(204, 204, 204)" stroke-width="1px"></line><line x1="119.34342793055943" y1="0" x2="119.34342793055943" y2="5" style="visibility: inherit;" fill="rgb(0, 0, 0)" stroke="rgb(204, 204, 204)" stroke-width="1px"></line><line x1="139.23399925231934" y1="0" x2="139.23399925231934" y2="5" style="visibility: inherit;" fill="rgb(0, 0, 0)" stroke="rgb(204, 204, 204)" stroke-width="1px"></line><line x1="159.12457057407923" y1="0" x2="159.12457057407923" y2="5" style="visibility: inherit;" fill="rgb(0, 0, 0)" stroke="rgb(204, 204, 204)" stroke-width="1px"></line><line x1="179.01514189583915" y1="0" x2="179.01514189583915" y2="5" style="visibility: inherit;" fill="rgb(0, 0, 0)" stroke="rgb(204, 204, 204)" stroke-width="1px"></line><line x1="198.90571321759904" y1="0" x2="198.90571321759904" y2="5" style="visibility: inherit;" fill="rgb(0, 0, 0)" stroke="rgb(204, 204, 204)" stroke-width="1px"></line><line x1="218.79628453935896" y1="0" x2="218.79628453935896" y2="5" style="visibility: inherit;" fill="rgb(0, 0, 0)" stroke="rgb(204, 204, 204)" stroke-width="1px"></line><line x1="238.68685586111886" y1="0" x2="238.68685586111886" y2="5" style="visibility: inherit;" fill="rgb(0, 0, 0)" stroke="rgb(204, 204, 204)" stroke-width="1px"></line><line x1="258.57742718287875" y1="0" x2="258.57742718287875" y2="5" style="visibility: inherit;" fill="rgb(0, 0, 0)" stroke="rgb(204, 204, 204)" stroke-width="1px"></line><line x1="278.4679985046387" y1="0" x2="278.4679985046387" y2="5" style="visibility: inherit;" fill="rgb(0, 0, 0)" stroke="rgb(204, 204, 204)" stroke-width="1px"></line></g><g transform="translate(0, 8)"><text style="text-anchor: middle; visibility: hidden; font-family: Roboto, sans-serif; font-size: 12px; font-weight: 200;" x="0" y="0" dx="0em" dy="0.95em" fill="rgb(33, 33, 33)" stroke="none" stroke-width="1px">-2k</text><text style="text-anchor: middle; visibility: inherit; font-family: Roboto, sans-serif; font-size: 12px; font-weight: 200;" x="19.890571321759904" y="0" dx="0em" dy="0.95em" fill="rgb(33, 33, 33)" stroke="none" stroke-width="1px">0</text><text style="text-anchor: middle; visibility: hidden; font-family: Roboto, sans-serif; font-size: 12px; font-weight: 200;" x="39.78114264351981" y="0" dx="0em" dy="0.95em" fill="rgb(33, 33, 33)" stroke="none" stroke-width="1px">2k</text><text style="text-anchor: middle; visibility: inherit; font-family: Roboto, sans-serif; font-size: 12px; font-weight: 200;" x="59.671713965279714" y="0" dx="0em" dy="0.95em" fill="rgb(33, 33, 33)" stroke="none" stroke-width="1px">4k</text><text style="text-anchor: middle; visibility: hidden; font-family: Roboto, sans-serif; font-size: 12px; font-weight: 200;" x="79.56228528703961" y="0" dx="0em" dy="0.95em" fill="rgb(33, 33, 33)" stroke="none" stroke-width="1px">6k</text><text style="text-anchor: middle; visibility: inherit; font-family: Roboto, sans-serif; font-size: 12px; font-weight: 200;" x="99.45285660879952" y="0" dx="0em" dy="0.95em" fill="rgb(33, 33, 33)" stroke="none" stroke-width="1px">8k</text><text style="text-anchor: middle; visibility: hidden; font-family: Roboto, sans-serif; font-size: 12px; font-weight: 200;" x="119.34342793055943" y="0" dx="0em" dy="0.95em" fill="rgb(33, 33, 33)" stroke="none" stroke-width="1px">10k</text><text style="text-anchor: middle; visibility: inherit; font-family: Roboto, sans-serif; font-size: 12px; font-weight: 200;" x="139.23399925231934" y="0" dx="0em" dy="0.95em" fill="rgb(33, 33, 33)" stroke="none" stroke-width="1px">12k</text><text style="text-anchor: middle; visibility: hidden; font-family: Roboto, sans-serif; font-size: 12px; font-weight: 200;" x="159.12457057407923" y="0" dx="0em" dy="0.95em" fill="rgb(33, 33, 33)" stroke="none" stroke-width="1px">14k</text><text style="text-anchor: middle; visibility: inherit; font-family: Roboto, sans-serif; font-size: 12px; font-weight: 200;" x="179.01514189583915" y="0" dx="0em" dy="0.95em" fill="rgb(33, 33, 33)" stroke="none" stroke-width="1px">16k</text><text style="text-anchor: middle; visibility: hidden; font-family: Roboto, sans-serif; font-size: 12px; font-weight: 200;" x="198.90571321759904" y="0" dx="0em" dy="0.95em" fill="rgb(33, 33, 33)" stroke="none" stroke-width="1px">18k</text><text style="text-anchor: middle; visibility: inherit; font-family: Roboto, sans-serif; font-size: 12px; font-weight: 200;" x="218.79628453935896" y="0" dx="0em" dy="0.95em" fill="rgb(33, 33, 33)" stroke="none" stroke-width="1px">20k</text><text style="text-anchor: middle; visibility: hidden; font-family: Roboto, sans-serif; font-size: 12px; font-weight: 200;" x="238.68685586111886" y="0" dx="0em" dy="0.95em" fill="rgb(33, 33, 33)" stroke="none" stroke-width="1px">22k</text><text style="text-anchor: middle; visibility: inherit; font-family: Roboto, sans-serif; font-size: 12px; font-weight: 200;" x="258.57742718287875" y="0" dx="0em" dy="0.95em" fill="rgb(33, 33, 33)" stroke="none" stroke-width="1px">24k</text><text style="text-anchor: middle; visibility: hidden; font-family: Roboto, sans-serif; font-size: 12px; font-weight: 200;" x="278.4679985046387" y="0" dx="0em" dy="0.95em" fill="rgb(33, 33, 33)" stroke="none" stroke-width="1px">26k</text></g><line x1="0" y1="0" x2="278.4679985046387" y2="0" fill="rgb(0, 0, 0)" stroke="rgb(204, 204, 204)" stroke-width="1px"></line></g></g></g></g></svg>